<?xml version="1.0" encoding="utf-8"?>
<!-- Generator: Adobe Illustrator 18.1.0, SVG Export Plug-In . SVG Version: 6.00 Build 0)  -->
<!DOCTYPE svg PUBLIC "-//W3C//DTD SVG 1.1//EN" "http://www.w3.org/Graphics/SVG/1.1/DTD/svg11.dtd">
<svg version="1.1" id="Layer_1" xmlns="http://www.w3.org/2000/svg" xmlns:xlink="http://www.w3.org/1999/xlink" x="0px" y="0px"
	 viewBox="180 0 612 612" enable-background="new 180 0 612 612" xml:space="preserve">
<linearGradient id="SVGID_1_" gradientUnits="userSpaceOnUse" x1="14.4982" y1="14.4965" x2="84.5021" y2="84.5002" gradientTransform="matrix(6.1818 0 0 6.1818 180 1.117325e-02)">
	<stop  offset="0" style="stop-color:#CCCCCC"/>
	<stop  offset="1" style="stop-color:#777777"/>
</linearGradient>
<circle fill="url(#SVGID_1_)" cx="486" cy="306" r="306"/>
<path opacity="0.12" fill="#231F20" enable-background="new    " d="M790.1,338.8L601.6,150.2l-20.4,28.4l-85.9,11.1l63.1,63.1
	l-8,11.1l-74.8-74.8l-107.1,107l68,68l-13.6,5.6l-54.4-54.4l-2.5,53.2l-37.7,53.8l187.9,187.9C660.3,595.9,774.7,482.2,790.1,338.8z
	"/>
<g>
	
		<linearGradient id="SVGID_2_" gradientUnits="userSpaceOnUse" x1="44.0287" y1="71.2197" x2="21.6088" y2="48.7998" gradientTransform="matrix(6.1818 0 0 6.1818 180 1.117325e-02)">
		<stop  offset="0.34" style="stop-color:#FFFFFF"/>
		<stop  offset="0.42" style="stop-color:#F5F5F5"/>
		<stop  offset="0.58" style="stop-color:#E6E6E6"/>
		<stop  offset="0.58" style="stop-color:#FFFFFF"/>
	</linearGradient>
	<path fill="url(#SVGID_2_)" d="M443.3,325.8c-19.8,3.7-39.6,11.1-57.5,21.6l-16.7-31.5L329,422.8l110.7,26.6l-20.4-38.3
		c30.9-19.8,69.2-22.3,102-7.4L443.3,325.8z"/>
	
		<linearGradient id="SVGID_3_" gradientUnits="userSpaceOnUse" x1="57.6251" y1="57.6234" x2="35.2051" y2="35.2033" gradientTransform="matrix(6.1818 0 0 6.1818 180 1.117325e-02)">
		<stop  offset="0.34" style="stop-color:#FFFFFF"/>
		<stop  offset="0.42" style="stop-color:#F5F5F5"/>
		<stop  offset="0.58" style="stop-color:#E6E6E6"/>
		<stop  offset="0.58" style="stop-color:#FFFFFF"/>
	</linearGradient>
	<path fill="url(#SVGID_3_)" d="M452.6,323.9L452.6,323.9l60.6,60.6c-10.5-19.8-17.3-42-19.8-64.9c-1.9-17.9-0.6-35.9,3.1-53.2
		l-48.8-48.8l28.4-28.4l-113.7-6.8l6.8,113.7l28.4-28.4L452.6,323.9z"/>
	
		<linearGradient id="SVGID_4_" gradientUnits="userSpaceOnUse" x1="66.4777" y1="48.7707" x2="44.0577" y2="26.3507" gradientTransform="matrix(6.1818 0 0 6.1818 180 1.117325e-02)">
		<stop  offset="0.34" style="stop-color:#FFFFFF"/>
		<stop  offset="0.42" style="stop-color:#F5F5F5"/>
		<stop  offset="0.58" style="stop-color:#E6E6E6"/>
		<stop  offset="0.58" style="stop-color:#FFFFFF"/>
	</linearGradient>
	<path fill="url(#SVGID_4_)" d="M494.7,189.8l31.5,16.7c-3.1,4.9-5.6,9.9-8,15.5c0,0.6-0.6,1.2-0.6,1.9c-0.6,1.2-1.2,2.5-1.9,3.7
		c-4.9,12.4-8.7,25.3-11.7,38.3c-0.6,2.5-0.6,4.9-1.2,7.4l0,0c-2.5,16.7-3.7,32.1-1.9,45.7c4.3,36.5,19.8,71.7,45.1,98.9l7.4,7.4
		l0,0l0,0l0,0l50.7-50.7l0,0l0,0c-36.5-36.5-41.4-92.1-14.8-134.1l38.3,20.4L601,150.2L494.7,189.8z"/>
</g>
</svg>
