<?xml version="1.0" encoding="utf-8"?>
<!-- Generator: Adobe Illustrator 17.1.0, SVG Export Plug-In . SVG Version: 6.00 Build 0)  -->
<!DOCTYPE svg PUBLIC "-//W3C//DTD SVG 1.1//EN" "http://www.w3.org/Graphics/SVG/1.1/DTD/svg11.dtd">
<svg version="1.1" id="Layer_1" xmlns="http://www.w3.org/2000/svg" xmlns:xlink="http://www.w3.org/1999/xlink" x="0px" y="0px"
	 viewBox="0 0 99.5 163.5" enable-background="new 0 0 99.5 163.5" xml:space="preserve">
<g>
	<path fill="#1B9EBC" d="M88.8,5.8c2.8,0,5,2.2,5,5v142c0,2.8-2.2,5-5,5h-78c-2.8,0-5-2.2-5-5v-142c0-2.8,2.2-5,5-5H88.8 M88.8,0
		h-78C4.8,0,0,4.8,0,10.8v142c0,5.9,4.8,10.8,10.8,10.8h78c5.9,0,10.8-4.8,10.8-10.8v-142C99.5,4.8,94.7,0,88.8,0L88.8,0z"/>
	<path fill="#1B9EBC" d="M88.5,141.5H11.1V21.6h77.4V141.5z M13.9,138.7h71.6V24.5H13.9V138.7z"/>
	<path fill="#1B9EBC" d="M82.4,63.5h-65V29.3h65V63.5z M18.9,62H81V30.8H18.9V62z"/>
	<path fill="#1B9EBC" d="M35.1,102.8c-9.4,0-17.1-7.7-17.1-17.1s7.7-17.1,17.1-17.1c9.4,0,17.1,7.7,17.1,17.1S44.5,102.8,35.1,102.8
		z M35.1,70.1c-8.6,0-15.6,7-15.6,15.6s7,15.6,15.6,15.6c8.6,0,15.6-7,15.6-15.6S43.7,70.1,35.1,70.1z"/>
</g>
</svg>
