<?xml version="1.0" encoding="utf-8"?>
<!-- Generator: Adobe Illustrator 17.1.0, SVG Export Plug-In . SVG Version: 6.00 Build 0)  -->
<!DOCTYPE svg PUBLIC "-//W3C//DTD SVG 1.1//EN" "http://www.w3.org/Graphics/SVG/1.1/DTD/svg11.dtd">
<svg version="1.1" id="Layer_1" xmlns="http://www.w3.org/2000/svg" xmlns:xlink="http://www.w3.org/1999/xlink" x="0px" y="0px"
	 viewBox="0 0 99.5 163.5" enable-background="new 0 0 99.5 163.5" xml:space="preserve">
<path fill="#1B9EBC" d="M31.7,98c-7.7,0-14-6.3-14-14s6.3-14,14-14s14,6.3,14,14S39.4,98,31.7,98z M31.7,71.6
	c-6.9,0-12.5,5.6-12.5,12.5s5.6,12.5,12.5,12.5S44.2,91,44.2,84.1S38.6,71.6,31.7,71.6z"/>
<path fill="#1B9EBC" d="M31.7,130c-7.7,0-14-6.3-14-14s6.3-14,14-14s14,6.3,14,14S39.4,130,31.7,130z M31.7,103.5
	c-6.9,0-12.5,5.6-12.5,12.5s5.6,12.5,12.5,12.5s12.5-5.6,12.5-12.5S38.6,103.5,31.7,103.5z"/>
<path fill="#1B9EBC" d="M88.8,5.8c2.8,0,5,2.2,5,5v142c0,2.8-2.2,5-5,5h-78c-2.8,0-5-2.2-5-5v-142c0-2.8,2.2-5,5-5H88.8 M88.8,0h-78
	C4.8,0,0,4.8,0,10.8v142c0,5.9,4.8,10.8,10.8,10.8h78c5.9,0,10.8-4.8,10.8-10.8v-142C99.5,4.8,94.7,0,88.8,0L88.8,0z"/>
<path fill="#1B9EBC" d="M88.5,141.5H11.1V21.6h77.4V141.5z M13.9,138.7h71.6V24.5H13.9V138.7z"/>
<path fill="#1B9EBC" d="M82.4,63.5h-65V29.3h65V63.5z M18.9,62H81V30.8H18.9V62z"/>
<rect x="50.1" y="82.4" fill="#1B9EBC" width="28.3" height="3"/>
<rect x="50.1" y="113.8" fill="#1B9EBC" width="28.3" height="3"/>
</svg>
