<?xml version="1.0" encoding="utf-8"?>
<!-- Generator: Adobe Illustrator 17.1.0, SVG Export Plug-In . SVG Version: 6.00 Build 0)  -->
<!DOCTYPE svg PUBLIC "-//W3C//DTD SVG 1.1//EN" "http://www.w3.org/Graphics/SVG/1.1/DTD/svg11.dtd">
<svg version="1.1" id="Layer_1" xmlns="http://www.w3.org/2000/svg" xmlns:xlink="http://www.w3.org/1999/xlink" x="0px" y="0px"
	 viewBox="0 0 152.4 165" enable-background="new 0 0 152.4 165" xml:space="preserve">
<g>
	<path fill="#F6B908" d="M108.6,88.4l-3.2,4.9c23.6,9.1,40.3,28.9,41.3,52v10.7c0,1.2-1,2.1-2.1,2.1H7.9c-1.2,0-2.1-1-2.1-2.1v-8.6
		C5.8,114.7,37.4,88,76.2,88c5.4,0,10.6,0.5,15.6,1.5l1.8-5.5c-5.6-1.1-11.4-1.7-17.4-1.7c-42,0-76.2,29.3-76.2,65.2v8.6
		c0,4.3,3.5,7.9,7.9,7.9h136.6c4.3,0,7.9-3.5,7.9-7.9l0-8.6C152.4,121.4,134.5,98.8,108.6,88.4z"/>
	<path fill="#F6B908" d="M62.7,140.3c2.9,6.8,10.8,9.9,17.5,7c6.7-2.9,23.8-18.4,33.3-28c-13.2,0.7-37.2,0.6-43.9,3.5
		C62.9,125.7,59.8,133.5,62.7,140.3z M79.7,133.1c1.2,2.7-0.1,5.9-2.8,7.1c-2.7,1.2-5.9-0.1-7.1-2.8c-1.2-2.7,0.1-5.9,2.8-7.1
		C75.4,129.1,78.5,130.4,79.7,133.1z"/>
	<path fill="#F6B908" d="M77.8,108.7c-0.8,0-1.4-0.6-1.4-1.4V92.4c0-0.8,0.6-1.4,1.4-1.4s1.4,0.6,1.4,1.4v14.9
		C79.2,108,78.6,108.7,77.8,108.7z"/>
	<path fill="#F6B908" d="M140.4,146h-14.9c-0.8,0-1.4-0.6-1.4-1.4s0.6-1.4,1.4-1.4h14.9c0.8,0,1.4,0.6,1.4,1.4S141.1,146,140.4,146z
		"/>
	<path fill="#F6B908" d="M28.8,146H14c-0.8,0-1.4-0.6-1.4-1.4s0.6-1.4,1.4-1.4h14.9c0.8,0,1.4,0.6,1.4,1.4S29.6,146,28.8,146z"/>
</g>
<g>
	<polygon fill="#F6B908" points="89.3,110.3 119.5,30.5 126,46.5 149,2 124.9,75.1 118.2,56.1 	"/>
</g>
<polygon fill="#F6B908" points="95.5,76.5 108.6,41.7 101.9,45.1 107.2,23.9 94,54.8 101.7,50.5 "/>
</svg>
