<?xml version="1.0" encoding="utf-8"?>
<!-- Generator: Adobe Illustrator 17.1.0, SVG Export Plug-In . SVG Version: 6.00 Build 0)  -->
<!DOCTYPE svg PUBLIC "-//W3C//DTD SVG 1.1//EN" "http://www.w3.org/Graphics/SVG/1.1/DTD/svg11.dtd">
<svg version="1.1" id="Layer_1" xmlns="http://www.w3.org/2000/svg" xmlns:xlink="http://www.w3.org/1999/xlink" x="0px" y="0px"
	 viewBox="0 0 119.2 158.8" enable-background="new 0 0 119.2 158.8" xml:space="preserve">
<g>
	<path fill="#F25316" d="M58.4,90.3c-4.7,0-9.3-0.7-13.8-2.2c-11.5-3.7-20.8-11.6-26.4-22.3c-5.5-10.7-6.5-22.9-2.9-34.4
		C21.4,12.6,38.7,0,58.4,0c4.7,0,9.3,0.7,13.8,2.2C83.6,5.8,93,13.8,98.5,24.5c5.5,10.7,6.5,22.9,2.9,34.4
		C95.4,77.7,78.1,90.3,58.4,90.3z M58.4,5.8c-17.2,0-32.2,11-37.5,27.4c-3.2,10-2.3,20.7,2.5,30s13,16.3,23,19.5
		c3.9,1.3,8,1.9,12,1.9c17.2,0,32.2-11,37.5-27.4c3.2-10,2.3-20.7-2.5-30c-4.8-9.3-13-16.3-23-19.5C66.5,6.4,62.5,5.8,58.4,5.8z"/>
	<path fill="#F25316" d="M82.9,87.1l30.1,58.4c1,2,0.2,4.4-1.7,5.4l-3.3,1.7c-0.6,0.3-1.2,0.4-1.8,0.4c-1.4,0-2.8-0.8-3.5-2.2
		L72.5,92.4c-0.1-0.2-0.2-0.4-0.2-0.6L82.9,87.1 M85.5,79.6l-5,2.2l-10.6,4.8l-4.7,2.1l1.6,4.9c0.2,0.5,0.4,1,0.6,1.4l30.1,58.4
		c1.7,3.3,5,5.3,8.7,5.3c1.5,0,3.1-0.4,4.5-1.1l3.3-1.7c4.8-2.5,6.7-8.3,4.2-13.1L88,84.4L85.5,79.6L85.5,79.6z"/>
	<path fill="#F25316" d="M78.5,132.6H0v-1.4c0-13.5,11-24.4,24.4-24.4H54c13.5,0,24.4,11,24.4,24.4V132.6z M2.9,129.7h72.6
		c-0.7-11.2-10.1-20.1-21.5-20.1H24.4C13,109.6,3.7,118.5,2.9,129.7z"/>
	<path fill="#F25316" d="M38.8,102.3c-11.3,0-20.5-10.1-20.5-22.6c0-4.5,1.2-8.8,3.4-12.5l2.5,1.5c-2,3.3-3,7.1-3,11.1
		c0,10.9,7.9,19.7,17.6,19.7c7.3,0,13.7-4.9,16.4-12.5l2.7,1C54.8,96.6,47.3,102.3,38.8,102.3z"/>
	<path fill="#F25316" d="M59.3,89.5c-8.1,0-14.8-1.8-15.1-1.9L44,87.5c-22.5-7.9-28-27.9-28.2-28.7l-0.1-0.5l0.1-0.5
		C19,38.8,34,25,51.5,25c20,0,36.3,18,36.3,40.1c0,5.5-1,10.8-3,15.9l-0.3,0.7L84,82.1c-0.3,0.2-7.9,5.6-18.6,7
		C63.5,89.3,61.4,89.5,59.3,89.5z M45.6,82.7c0.7,0.2,6.7,1.7,13.7,1.7c1.9,0,3.7-0.1,5.5-0.3c7.8-1,13.8-4.5,15.7-5.7
		c1.5-4.2,2.3-8.7,2.3-13.3c0-19.3-14-35-31.2-35c-14.8,0-27.6,11.7-30.6,27.9C21.9,61,27.5,76.3,45.6,82.7z"/>
</g>
</svg>
