<?xml version="1.0" encoding="utf-8"?>
<!-- Generator: Adobe Illustrator 17.1.0, SVG Export Plug-In . SVG Version: 6.00 Build 0)  -->
<!DOCTYPE svg PUBLIC "-//W3C//DTD SVG 1.1//EN" "http://www.w3.org/Graphics/SVG/1.1/DTD/svg11.dtd">
<svg version="1.1" id="Layer_1" xmlns="http://www.w3.org/2000/svg" xmlns:xlink="http://www.w3.org/1999/xlink" x="0px" y="0px"
	 viewBox="0 0 99.5 163.5" enable-background="new 0 0 99.5 163.5" xml:space="preserve">
<g>
	<path fill="#1B9EBC" d="M-371.9,5.8c2.8,0,5,2.2,5,5v142c0,2.8-2.2,5-5,5h-78c-2.8,0-5-2.2-5-5v-142c0-2.8,2.2-5,5-5H-371.9
		 M-371.9,0h-78c-5.9,0-10.8,4.8-10.8,10.8v142c0,5.9,4.8,10.8,10.8,10.8h78c5.9,0,10.8-4.8,10.8-10.8v-142
		C-361.1,4.8-366,0-371.9,0L-371.9,0z"/>
</g>
<rect x="-448.2" y="23.1" fill="none" stroke="#1B9EBC" stroke-width="2.88" stroke-miterlimit="10" width="74.5" height="117"/>
<rect x="-442.5" y="30.1" fill="none" stroke="#1B9EBC" stroke-width="1.44" stroke-miterlimit="10" width="63.5" height="32.7"/>
<circle fill="none" stroke="#1B9EBC" stroke-width="1.44" stroke-miterlimit="10" cx="-425.6" cy="85.8" r="16.3"/>
<path fill="#1B9EBC" d="M31.7,98c-7.7,0-14-6.3-14-14s6.3-14,14-14s14,6.3,14,14S39.4,98,31.7,98z M31.7,71.6
	c-6.9,0-12.5,5.6-12.5,12.5s5.6,12.5,12.5,12.5S44.2,91,44.2,84.1S38.6,71.6,31.7,71.6z"/>
<path fill="#1B9EBC" d="M31.7,130c-7.7,0-14-6.3-14-14s6.3-14,14-14s14,6.3,14,14S39.4,130,31.7,130z M31.7,103.5
	c-6.9,0-12.5,5.6-12.5,12.5s5.6,12.5,12.5,12.5s12.5-5.6,12.5-12.5S38.6,103.5,31.7,103.5z"/>
<circle fill="none" stroke="#F25316" stroke-width="5.76" stroke-miterlimit="10" cx="-258.1" cy="47.2" r="42.2"/>
<g>
	<path fill="#F25316" d="M-233.6,89.1l30.1,58.4c1,2,0.2,4.4-1.7,5.4l-3.3,1.7c-0.6,0.3-1.2,0.4-1.8,0.4c-1.4,0-2.8-0.8-3.5-2.2
		L-244,94.5c-0.1-0.2-0.2-0.4-0.2-0.6L-233.6,89.1 M-231,81.6l-5,2.2l-10.6,4.8l-4.7,2.1l1.6,4.9c0.2,0.5,0.4,1,0.6,1.4l30.1,58.4
		c1.7,3.3,5,5.3,8.7,5.3c1.5,0,3.1-0.4,4.5-1.1l3.3-1.7c4.8-2.5,6.7-8.3,4.2-13.1l-30.1-58.4L-231,81.6L-231,81.6z"/>
</g>
<path fill="none" stroke="#F25316" stroke-width="2.88" stroke-miterlimit="10" d="M-239.4,133.2c0-12.7-10.3-23-23-23h-29.6
	c-12.7,0-23,10.3-23,23H-239.4z"/>
<path fill="none" stroke="#F25316" stroke-width="2.88" stroke-miterlimit="10" d="M-259.9,89.4c-2.8,7.9-9.7,13.5-17.8,13.5
	c-10.5,0-19.1-9.5-19.1-21.2c0-4.4,1.2-8.4,3.2-11.8"/>
<path fill="none" stroke="#F25316" stroke-width="5.1021" stroke-miterlimit="10" d="M-271.6,87.2c-21.5-7.5-26.6-27-26.6-27
	c2.9-17.4,16.7-30.6,33.2-30.6c18.7,0,33.8,16.8,33.8,37.5c0,5.3-1,10.4-2.8,14.9c0,0-7.3,5.2-17.4,6.6
	C-261.6,89.9-271.6,87.2-271.6,87.2z"/>
<path fill="none" stroke="#F6B908" stroke-width="5.76" stroke-miterlimit="10" d="M-335.6,294.9v8.6c0,2.8-2.2,5-5,5h-136.6
	c-2.8,0-5-2.2-5-5v-8.6c0-34.4,32.8-62.3,73.3-62.3S-335.6,260.4-335.6,294.9L-335.6,294.9z"/>
<path fill="#F6B908" d="M-423.1,280.6c-1.1,7.3,3.8,14.1,11.1,15.2c7.3,1.1,29.9-2.8,43.1-5.9c-11.5-6.5-31.7-19.3-39-20.5
	C-415.1,268.4-421.9,273.4-423.1,280.6z M-404.9,283.7c-0.5,2.9-3.2,4.9-6.1,4.5c-2.9-0.5-4.9-3.2-4.5-6.1c0.5-2.9,3.2-4.9,6.1-4.5
	C-406.4,278-404.4,280.7-404.9,283.7z"/>
<line fill="none" stroke="#F6B908" stroke-width="2.88" stroke-linecap="round" stroke-miterlimit="10" x1="-407.4" y1="239.8" x2="-407.4" y2="254.7"/>
<line fill="none" stroke="#F6B908" stroke-width="2.88" stroke-linecap="round" stroke-miterlimit="10" x1="-359.7" y1="291.9" x2="-344.8" y2="291.9"/>
<line fill="none" stroke="#F6B908" stroke-width="2.88" stroke-linecap="round" stroke-miterlimit="10" x1="-471.2" y1="291.9" x2="-456.3" y2="291.9"/>
<circle fill="none" stroke="#2ECA80" stroke-width="5.76" stroke-miterlimit="10" cx="-209.9" cy="265.8" r="55"/>
<path fill="none" stroke="#2ECA80" stroke-width="2.88" stroke-linecap="round" stroke-miterlimit="10" d="M-186.4,284.9
	c-6,5.4-13.9,8.6-22.5,8.6c-8.7,0-16.6-3.3-22.6-8.7"/>
<path fill="none" stroke="#2ECA80" stroke-width="2.88" stroke-linecap="round" stroke-miterlimit="10" d="M-186.2,258.2
	c-2.1,1.9-4.8,3-7.8,3c-3,0-5.8-1.1-7.8-3"/>
<circle fill="#2ECA80" cx="-225.9" cy="256" r="6.8"/>
<path fill="#1B9EBC" d="M88.8,5.8c2.8,0,5,2.2,5,5v142c0,2.8-2.2,5-5,5h-78c-2.8,0-5-2.2-5-5v-142c0-2.8,2.2-5,5-5H88.8 M88.8,0h-78
	C4.8,0,0,4.8,0,10.8v142c0,5.9,4.8,10.8,10.8,10.8h78c5.9,0,10.8-4.8,10.8-10.8v-142C99.5,4.8,94.7,0,88.8,0L88.8,0z"/>
<path fill="#1B9EBC" d="M88.5,141.5H11.1V21.6h77.4V141.5z M13.9,138.7h71.6V24.5H13.9V138.7z"/>
<path fill="#1B9EBC" d="M82.4,63.5h-65V29.3h65V63.5z M18.9,62H81V30.8H18.9V62z"/>
<g>
	<path fill="#F25316" d="M202.6,92.3c-4.7,0-9.3-0.7-13.8-2.2c-11.5-3.7-20.8-11.6-26.4-22.3c-5.5-10.7-6.5-22.9-2.9-34.4
		c6-18.8,23.3-31.4,43-31.4c4.7,0,9.3,0.7,13.8,2.2c11.5,3.7,20.8,11.6,26.4,22.3c5.5,10.7,6.5,22.9,2.9,34.4
		C239.6,79.7,222.3,92.3,202.6,92.3z M202.6,7.8c-17.2,0-32.2,11-37.5,27.4c-3.2,10-2.3,20.7,2.5,30s13,16.3,23,19.5
		c3.9,1.3,8,1.9,12,1.9c17.2,0,32.2-11,37.5-27.4c3.2-10,2.3-20.7-2.5-30c-4.8-9.3-13-16.3-23-19.5C210.7,8.5,206.7,7.8,202.6,7.8z"
		/>
	<path fill="#F25316" d="M227.1,89.1l30.1,58.4c1,2,0.2,4.4-1.7,5.4l-3.3,1.7c-0.6,0.3-1.2,0.4-1.8,0.4c-1.4,0-2.8-0.8-3.5-2.2
		l-30.1-58.4c-0.1-0.2-0.2-0.4-0.2-0.6L227.1,89.1 M229.7,81.6l-5,2.2l-10.6,4.8l-4.7,2.1l1.6,4.9c0.2,0.5,0.4,1,0.6,1.4l30.1,58.4
		c1.7,3.3,5,5.3,8.7,5.3c1.5,0,3.1-0.4,4.5-1.1l3.3-1.7c4.8-2.5,6.7-8.3,4.2-13.1l-30.1-58.4L229.7,81.6L229.7,81.6z"/>
	<path fill="#F25316" d="M222.7,134.7h-78.5v-1.4c0-13.5,11-24.4,24.4-24.4h29.6c13.5,0,24.4,11,24.4,24.4V134.7z M147.1,131.8h72.6
		c-0.7-11.2-10.1-20.1-21.5-20.1h-29.6C157.2,111.7,147.9,120.6,147.1,131.8z"/>
	<path fill="#F25316" d="M183,104.3c-11.3,0-20.5-10.1-20.5-22.6c0-4.5,1.2-8.8,3.4-12.5l2.5,1.5c-2,3.3-3,7.1-3,11.1
		c0,10.9,7.9,19.7,17.6,19.7c7.3,0,13.7-4.9,16.4-12.5l2.7,1C199,98.7,191.5,104.3,183,104.3z"/>
	<path fill="#F25316" d="M203.5,91.5c-8.1,0-14.8-1.8-15.1-1.9l-0.2-0.1c-22.5-7.9-28-27.9-28.2-28.7l-0.1-0.5l0.1-0.5
		c3.2-18.9,18.2-32.7,35.7-32.7c20,0,36.3,18,36.3,40.1c0,5.5-1,10.8-3,15.9l-0.3,0.7l-0.6,0.4c-0.3,0.2-7.9,5.6-18.6,7
		C207.7,91.4,205.6,91.5,203.5,91.5z M189.8,84.7c0.7,0.2,6.7,1.7,13.7,1.7c1.9,0,3.7-0.1,5.5-0.3c7.8-1,13.8-4.5,15.7-5.7
		c1.5-4.2,2.3-8.7,2.3-13.3c0-19.3-14-35-31.2-35c-14.8,0-27.6,11.7-30.6,27.9C166.1,63.1,171.7,78.3,189.8,84.7z"/>
</g>
<g>
	<path fill="#F6B908" d="M84.1,275.8l-3.2,4.9c23.6,9.1,40.3,28.9,41.3,52v10.7c0,1.2-1,2.1-2.1,2.1H-16.6c-1.2,0-2.1-1-2.1-2.1
		v-8.6c0-32.8,31.6-59.5,70.5-59.5c5.4,0,10.6,0.5,15.6,1.5l1.8-5.5c-5.6-1.1-11.4-1.7-17.4-1.7c-42,0-76.2,29.3-76.2,65.2v8.6
		c0,4.3,3.5,7.9,7.9,7.9H120c4.3,0,7.9-3.5,7.9-7.9l0-8.6C127.9,308.8,110,286.3,84.1,275.8z"/>
	<path fill="#F6B908" d="M38.2,327.7c2.9,6.8,10.8,9.9,17.5,7c6.7-2.9,23.8-18.4,33.3-28c-13.2,0.7-37.2,0.6-43.9,3.5
		C38.4,313.1,35.3,321,38.2,327.7z M55.2,320.5c1.2,2.7-0.1,5.9-2.8,7.1c-2.7,1.2-5.9-0.1-7.1-2.8c-1.2-2.7,0.1-5.9,2.8-7.1
		C50.9,316.6,54.1,317.8,55.2,320.5z"/>
	<path fill="#F6B908" d="M53.3,296.1c-0.8,0-1.4-0.6-1.4-1.4v-14.9c0-0.8,0.6-1.4,1.4-1.4s1.4,0.6,1.4,1.4v14.9
		C54.7,295.5,54.1,296.1,53.3,296.1z"/>
	<path fill="#F6B908" d="M115.9,333.4H101c-0.8,0-1.4-0.6-1.4-1.4s0.6-1.4,1.4-1.4h14.9c0.8,0,1.4,0.6,1.4,1.4
		S116.7,333.4,115.9,333.4z"/>
	<path fill="#F6B908" d="M4.3,333.4h-14.9c-0.8,0-1.4-0.6-1.4-1.4s0.6-1.4,1.4-1.4H4.3c0.8,0,1.4,0.6,1.4,1.4S5.1,333.4,4.3,333.4z"
		/>
</g>
<g>
	<path fill="#2ECA80" d="M250.8,323.6c-31.9,0-57.9-26-57.9-57.9s26-57.9,57.9-57.9s57.9,26,57.9,57.9S282.7,323.6,250.8,323.6z
		 M250.8,213.6c-28.7,0-52.1,23.4-52.1,52.1s23.4,52.1,52.1,52.1s52.1-23.4,52.1-52.1S279.5,213.6,250.8,213.6z"/>
	<path fill="#2ECA80" d="M251.7,294.9c-8.7,0-17.1-3.2-23.6-9.1c-0.6-0.5-0.6-1.4-0.1-2c0.5-0.6,1.4-0.6,2-0.1
		c5.9,5.4,13.6,8.3,21.6,8.3c8,0,15.6-2.9,21.5-8.2c0.6-0.5,1.5-0.5,2,0.1c0.5,0.6,0.5,1.5-0.1,2
		C268.7,291.8,260.4,294.9,251.7,294.9z"/>
	<path fill="#2ECA80" d="M266.7,262.6c-3.3,0-6.4-1.2-8.8-3.4c-0.6-0.5-0.6-1.4-0.1-2c0.5-0.6,1.4-0.6,2-0.1
		c1.9,1.7,4.3,2.6,6.9,2.6c2.5,0,4.9-0.9,6.8-2.6c0.6-0.5,1.5-0.5,2,0.1c0.5,0.6,0.5,1.5-0.1,2C273,261.4,269.9,262.6,266.7,262.6z"
		/>
	<circle fill="#2ECA80" cx="234.8" cy="256" r="6.8"/>
</g>
<g>
	<polygon fill="#F6B908" points="64.8,297.7 95,217.9 101.5,234 124.6,189.4 100.5,262.6 93.7,243.5 	"/>
</g>
<polygon fill="#F6B908" points="71.1,263.9 84.2,229.1 77.4,232.5 82.7,211.3 69.5,242.2 77.2,237.9 "/>
<polygon fill="none" stroke="#F6B908" stroke-width="1.44" stroke-linecap="round" stroke-miterlimit="10" points="-89.5,241.2 
	-103.3,207 -90.6,211.2 -94.3,180.2 -78.6,221.6 -91.3,218.8 "/>
<rect x="50.1" y="82.4" fill="#1B9EBC" width="28.3" height="3"/>
<rect x="50.1" y="113.8" fill="#1B9EBC" width="28.3" height="3"/>
</svg>
