<?xml version="1.0" encoding="utf-8"?>
<!-- Generator: Adobe Illustrator 17.1.0, SVG Export Plug-In . SVG Version: 6.00 Build 0)  -->
<!DOCTYPE svg PUBLIC "-//W3C//DTD SVG 1.1//EN" "http://www.w3.org/Graphics/SVG/1.1/DTD/svg11.dtd">
<svg version="1.1" id="Layer_1" xmlns="http://www.w3.org/2000/svg" xmlns:xlink="http://www.w3.org/1999/xlink" x="0px" y="0px"
	 viewBox="0 0 99 99" enable-background="new 0 0 99 99" xml:space="preserve">
<linearGradient id="SVGID_1_" gradientUnits="userSpaceOnUse" x1="14.4982" y1="14.4982" x2="84.5018" y2="84.5018">
	<stop  offset="0" style="stop-color:#484949"/>
	<stop  offset="1" style="stop-color:#2A2724"/>
</linearGradient>
<circle fill="url(#SVGID_1_)" cx="49.5" cy="49.5" r="49.5"/>
<g opacity="6.000000e-02">
	
		<image overflow="visible" width="647" height="647" xlink:href="203D442CF877D6C3.png"  transform="matrix(0.24 0 0 0.24 -21.3746 -21.4996)">
	</image>
</g>
<path opacity="0.24" fill="#231F20" d="M98.2,58.4L72.8,33c0,0-0.3,8.5-1.9,15.2s-5.1,7.7-8.6,9.5c-2.3,1.2-6.7,0.3-9.5-0.5v-1.5
	h-3.1l-0.5-1.4L44.7,46l-1.9-0.2l-1.7,3.5l7.1,7.1v0.3l-6.1-6.1l-0.8,1.5l-4.2-4.2c0,0-2.7,3.3,0.8,5.1s3.3,9.8,1.9,11.9
	c-1.4,2.1-6.1,1.9-7.2,1.4c-1.1-0.4-6.2,1.5-6.2,1.5l30.6,30.6C77.9,95.2,94.5,79,98.2,58.4z"/>
<g>
	<linearGradient id="SVGID_2_" gradientUnits="userSpaceOnUse" x1="48.9186" y1="73.8091" x2="23.1796" y2="48.07">
		<stop  offset="0.34" style="stop-color:#FFFFFF"/>
		<stop  offset="0.4244" style="stop-color:#FFF4F5"/>
		<stop  offset="0.5778" style="stop-color:#FFE5E7"/>
		<stop  offset="0.5799" style="stop-color:#FFFFFF"/>
	</linearGradient>
	<path fill-rule="evenodd" clip-rule="evenodd" fill="url(#SVGID_2_)" d="M44.7,54.2c-0.5,0.4-1.1,0.9-1.6,1.3
		c0.3,1.2,0.9,2.3,0.4,3.8c0.7,0.2,1.5,0.4,2.2,0.6c-0.2,1.4-0.5,2.9-1.3,4.4c-0.7-0.2-1.4-0.5-2.1-0.8c-0.6,1.3-1.5,2.3-2.3,3.2
		c0.3,0.6,0.6,1.2,0.9,1.8c-1.4,1.1-2.9,1.7-4.5,1.9c-0.4-0.7-0.6-1.4-0.9-2.2c-1.2,0-2.3,0.2-3.6-0.2c-0.4,0.6-0.8,1.3-1.2,1.9
		c-1.3-0.4-3-1.3-4.1-2.2c0.4-0.7,0.7-1.4,1.1-2.1c-1-0.8-1.7-1.8-2-2.8c-0.7,0.1-1.3,0.3-2,0.4c-0.9-1.4-1.2-3-1.1-4.7
		c0.7-0.2,1.5-0.3,2.3-0.4c0-1.1,0.3-2.4,1.1-3.7c-0.5-0.4-1.1-0.8-1.7-1.2c0.6-1.6,1.8-3,2.9-3.7c0.6,0.5,1.2,1,1.8,1.5
		c1-0.8,2.1-1.3,3.4-1.5c0.1-0.7,0-1.3,0.2-1.9c1.4-0.4,3-0.2,4.7,0.1c-0.1,0.8,0,1.5-0.1,2.2c1,0.4,2.4,1,3.2,1.8
		c0.6-0.4,1.2-0.8,1.8-1.3C43,51.8,43.8,53,44.7,54.2 M32.4,53.7c-1.2,0.4-2.6,1.2-3.4,2.8c-0.8,1.5-0.8,3-0.4,4.3
		c0.4,1.3,1.3,2.6,2.8,3.4c1.5,0.8,3,0.8,4.3,0.4c1.3-0.4,2.5-1.2,3.4-2.8c0.4-0.8,0.6-1.5,0.7-2.3c0.1-2-0.7-4.2-3-5.4
		C35.2,53.3,33.6,53.3,32.4,53.7"/>
	<linearGradient id="SVGID_3_" gradientUnits="userSpaceOnUse" x1="68.2434" y1="54.4843" x2="42.4881" y2="28.729">
		<stop  offset="0.34" style="stop-color:#FFFFFF"/>
		<stop  offset="0.4244" style="stop-color:#FFF4F5"/>
		<stop  offset="0.5778" style="stop-color:#FFE5E7"/>
		<stop  offset="0.5799" style="stop-color:#FFFFFF"/>
	</linearGradient>
	<path fill-rule="evenodd" clip-rule="evenodd" fill="url(#SVGID_3_)" d="M65.6,27.8c-0.2,1.2-0.2,2.3-0.5,3.5
		c1.7,1,3.5,2.2,4.7,3.4c1.1-0.5,2.1-1,3.1-1.7c1.2,2.1,2.2,4.2,3.4,6.3c-0.9,0.6-1.9,1.2-2.8,1.7c0.2,1.9,0.9,3.7-0.1,6
		c1.1,0.4,2.3,1,3.4,1.4c-0.6,2.1-1.5,4.7-3.1,6.8c-1-0.6-2.1-1.1-3.1-1.6c-1.3,2-2.9,3.2-4.4,4.6c0.2,1,0.7,2,1,3
		c-2.3,1.3-4.8,2-7.4,2.1c-0.4-1.2-0.7-2.4-1.1-3.6c-1.8-0.1-3.5-0.2-5.5-1c-0.8,0.8-1.5,1.9-2.3,2.8c-2.4-1.2-4.5-2.7-6-4.3
		c0.7-1.1,1.5-2,2.2-3.1c-1.3-1.5-2.3-3.1-2.5-4.9c-1.1,0.1-2.2,0.2-3.3,0.3c-1.1-2.3-1.3-4.8-0.8-7.6c1.2-0.1,2.4-0.1,3.7-0.2
		c0.3-1.7,1.2-4,2.6-5.5c-0.7-0.8-1.6-1.5-2.4-2.3c1.6-2.6,3.4-4.2,5.4-5.2c0.8,0.9,1.7,1.8,2.5,2.7c1.8-0.9,3.6-1.7,5.7-1.6
		c0.3-1,0.3-2,0.6-3C60.5,26.3,63,26.9,65.6,27.8 M55.1,33.9c-2.5,0.8-5.1,2.4-6.8,5.7c-1.6,3.1-1.6,6.1-0.8,8.7
		c0.8,2.5,2.6,5.2,5.6,6.8c3,1.6,6.1,1.6,8.7,0.9c2.6-0.7,5.1-2.4,6.8-5.6c0.8-1.5,1.2-3.1,1.3-4.6c0.3-4.1-1.4-8.4-6.1-10.9
		C60.6,33.1,57.5,33.2,55.1,33.9"/>
</g>
</svg>
