<?xml version="1.0" encoding="utf-8"?>
<!-- Generator: Adobe Illustrator 17.1.0, SVG Export Plug-In . SVG Version: 6.00 Build 0)  -->
<!DOCTYPE svg PUBLIC "-//W3C//DTD SVG 1.1//EN" "http://www.w3.org/Graphics/SVG/1.1/DTD/svg11.dtd">
<svg version="1.1" id="Layer_1" xmlns="http://www.w3.org/2000/svg" xmlns:xlink="http://www.w3.org/1999/xlink" x="0px" y="0px"
	 viewBox="0 0 99 99" enable-background="new 0 0 99 99" xml:space="preserve">
<linearGradient id="SVGID_1_" gradientUnits="userSpaceOnUse" x1="14.4982" y1="14.4982" x2="84.5018" y2="84.5018">
	<stop  offset="0" style="stop-color:#484949"/>
	<stop  offset="1" style="stop-color:#2A2724"/>
</linearGradient>
<circle fill="url(#SVGID_1_)" cx="49.5" cy="49.5" r="49.5"/>
<g opacity="6.000000e-02">
	
		<image overflow="visible" width="647" height="647" xlink:href="8633898069E20301.png"  transform="matrix(0.24 0 0 0.24 -21.3746 -21.4996)">
	</image>
</g>
<path opacity="0.24" fill="#231F20" d="M98.4,57.4L75.6,34.6l-1.4,3.9l-0.4,7L67.3,48l-5.7,0L43.3,29.6l-1.8,2.7l0.1,4.7l-7.4-7.4
	l-1.8,2.7l0.2,9.8l11.8,1.2L54.4,48l-30.2,0.1l-1.4,17.7l32.8,32.8C77.5,95.9,94.9,79,98.4,57.4z"/>
<g>
	<g>
		<linearGradient id="SVGID_2_" gradientUnits="userSpaceOnUse" x1="65.7536" y1="66.7241" x2="36.2849" y2="37.2555">
			<stop  offset="0.34" style="stop-color:#FFFFFF"/>
			<stop  offset="0.4244" style="stop-color:#FFF4F5"/>
			<stop  offset="0.5778" style="stop-color:#FFE5E7"/>
			<stop  offset="0.5799" style="stop-color:#FFFFFF"/>
		</linearGradient>
		<path fill="url(#SVGID_2_)" d="M75.6,41.2v-6.6h-2.8v6.6H44c-1.2-3.1-0.8-11.5-0.8-11.5h-5.9c-0.1,7.2-0.6,10.3-1,11.5h-1.5
			c-1.2-3.1-0.8-11.5-0.8-11.5h-5.9c-0.1,7.2-0.6,10.3-1,11.5h-4.3v24.6h4V55.2h20.3v10.6H79V41.2H75.6z"/>
	</g>
</g>
</svg>
