<?xml version="1.0" encoding="utf-8"?>
<!-- Generator: Adobe Illustrator 19.2.0, SVG Export Plug-In . SVG Version: 6.00 Build 0)  -->
<svg version="1.1" id="Layer_1" xmlns="http://www.w3.org/2000/svg" xmlns:xlink="http://www.w3.org/1999/xlink" x="0px" y="0px"
	 width="286px" height="265.5px" viewBox="0 0 286 265.5" style="enable-background:new 0 0 286 265.5;" xml:space="preserve">
<style type="text/css">
	.st0{opacity:0.5;fill:#FEC913;enable-background:new    ;}
	.st1{opacity:0.5;fill:#E96255;enable-background:new    ;}
	.st2{opacity:0.5;fill:#AB6396;enable-background:new    ;}
	.st3{opacity:0.5;fill:#07557A;enable-background:new    ;}
	.st4{opacity:0.5;fill:#76BF81;enable-background:new    ;}
	.st5{opacity:0.5;fill:#7BC2E0;enable-background:new    ;}
	.st6{fill:#FEC913;}
	.st7{fill:#E96255;}
	.st8{fill:#AB6396;}
	.st9{fill:#07557A;}
	.st10{fill:#76BF81;}
	.st11{fill:#7BC2E0;}
	.st12{fill:#DCAF57;}
</style>
<g id="Layer_1_1_">
	<path class="st0" d="M57.6,260H42.3c-2,0-3.6-1.6-3.6-3.6V111c0-2,1.6-3.6,3.6-3.6h15.3c2,0,3.6,1.6,3.6,3.6v145.4
		C61.2,258.4,59.6,260,57.6,260z"/>
	<path class="st1" d="M93.7,260H78.3c-2,0-3.6-1.6-3.6-3.6V143c0-2,1.6-3.6,3.6-3.6h15.3c2,0,3.6,1.6,3.6,3.6v113.4
		C97.2,258.4,95.6,260,93.7,260z"/>
	<path class="st2" d="M129.6,260h-15.3c-2,0-3.6-1.6-3.6-3.6V121.5c0-2,1.6-3.6,3.6-3.6h15.3c2,0,3.6,1.6,3.6,3.6v134.9
		C133.2,258.4,131.6,260,129.6,260z"/>
	<path class="st3" d="M165.6,260h-15.3c-2,0-3.6-1.6-3.6-3.6V157c0-2,1.6-3.6,3.6-3.6h15.3c2,0,3.6,1.6,3.6,3.6v99.4
		C169.2,258.4,167.6,260,165.6,260z"/>
	<path class="st4" d="M201.6,260h-15.3c-2,0-3.6-1.6-3.6-3.6V136c0-2,1.6-3.6,3.6-3.6h15.3c2,0,3.6,1.6,3.6,3.6v120.4
		C205.2,258.4,203.6,260,201.6,260z"/>
	<path class="st5" d="M237.6,260h-15.3c-2,0-3.6-1.6-3.6-3.6V86c0-2,1.6-3.6,3.6-3.6h15.3c2,0,3.6,1.6,3.6,3.6v170.4
		C241.2,258.4,239.6,260,237.6,260z"/>
	<path class="st6" d="M57.6,260H42.3c-2,0-3.6-1.6-3.6-3.6V141.1c0-2,1.6-3.6,3.6-3.6h15.3c2,0,3.6,1.6,3.6,3.6v115.3
		C61.2,258.4,59.6,260,57.6,260z"/>
	<path class="st7" d="M93.7,260H78.3c-2,0-3.6-1.6-3.6-3.6v-66.5c0-2,1.6-3.6,3.6-3.6h15.3c2,0,3.6,1.6,3.6,3.6v66.5
		C97.2,258.4,95.6,260,93.7,260z"/>
	<path class="st8" d="M129.6,260h-15.3c-2,0-3.6-1.6-3.6-3.6v-73.9c0-2,1.6-3.6,3.6-3.6h15.3c2,0,3.6,1.6,3.6,3.6v73.9
		C133.2,258.4,131.6,260,129.6,260z"/>
	<path class="st9" d="M165.6,260h-15.3c-2,0-3.6-1.6-3.6-3.6v-73.9c0-2,1.6-3.6,3.6-3.6h15.3c2,0,3.6,1.6,3.6,3.6v73.9
		C169.2,258.4,167.6,260,165.6,260z"/>
	<path class="st10" d="M201.6,260h-15.3c-2,0-3.6-1.6-3.6-3.6V220c0-2,1.6-3.6,3.6-3.6h15.3c2,0,3.6,1.6,3.6,3.6v36.4
		C205.2,258.4,203.6,260,201.6,260z"/>
	<path class="st11" d="M237.6,260h-15.3c-2,0-3.6-1.6-3.6-3.6v-14.9c0-2,1.6-3.6,3.6-3.6h15.3c2,0,3.6,1.6,3.6,3.6v14.9
		C241.2,258.4,239.6,260,237.6,260z"/>
	<path class="st11" d="M283.6,260.1h-9.1c-0.4,0-0.7-0.3-0.7-0.7v-9.1c0-0.4,0.3-0.7,0.7-0.7h9.1c0.4,0,0.7,0.3,0.7,0.7v9.1
		C284.3,259.8,284,260.1,283.6,260.1z"/>
	<path class="st10" d="M283.6,235.2h-9.1c-0.4,0-0.7-0.3-0.7-0.7v-9.1c0-0.4,0.3-0.7,0.7-0.7h9.1c0.4,0,0.7,0.3,0.7,0.7v9.1
		C284.3,234.9,284,235.2,283.6,235.2z"/>
	<path class="st9" d="M283.6,210.4h-9.1c-0.4,0-0.7-0.3-0.7-0.7v-9.1c0-0.4,0.3-0.7,0.7-0.7h9.1c0.4,0,0.7,0.3,0.7,0.7v9.1
		C284.3,210,284,210.4,283.6,210.4z"/>
	<path class="st8" d="M283.6,185.5h-9.1c-0.4,0-0.7-0.3-0.7-0.7v-9.1c0-0.4,0.3-0.7,0.7-0.7h9.1c0.4,0,0.7,0.3,0.7,0.7v9.1
		C284.3,185.1,284,185.5,283.6,185.5z"/>
	<path class="st12" d="M283.6,160.6h-9.1c-0.4,0-0.7-0.3-0.7-0.7v-9.1c0-0.4,0.3-0.7,0.7-0.7h9.1c0.4,0,0.7,0.3,0.7,0.7v9.1
		C284.3,160.3,284,160.6,283.6,160.6z"/>
	<path class="st7" d="M283.6,135.7h-9.1c-0.4,0-0.7-0.3-0.7-0.7v-9.1c0-0.4,0.3-0.7,0.7-0.7h9.1c0.4,0,0.7,0.3,0.7,0.7v9.1
		C284.3,135.4,284,135.7,283.6,135.7z"/>
	<path class="st6" d="M283.6,110.8h-9.1c-0.4,0-0.7-0.3-0.7-0.7V101c0-0.4,0.3-0.7,0.7-0.7h9.1c0.4,0,0.7,0.3,0.7,0.7v9.1
		C284.3,110.5,284,110.8,283.6,110.8z"/>
</g>
<g id="Layer_2">
</g>
</svg>
