<?xml version="1.0" encoding="utf-8"?>
<!-- Generator: Adobe Illustrator 19.2.0, SVG Export Plug-In . SVG Version: 6.00 Build 0)  -->
<svg version="1.1" id="Layer_1" xmlns="http://www.w3.org/2000/svg" xmlns:xlink="http://www.w3.org/1999/xlink" x="0px" y="0px"
	 width="424px" height="423.5px" viewBox="0 0 424 423.5" style="enable-background:new 0 0 424 423.5;" xml:space="preserve">
<style type="text/css">
	.st0{fill:#DFF0F7;}
	.st1{fill:#DDEFE0;}
	.st2{fill:#C3D5DD;}
	.st3{fill:#EAD8E4;}
	.st4{fill:#F9D8D5;}
	.st5{fill:#FEF1CC;}
	.st6{fill:#7BC2E0;}
	.st7{fill:#76BF81;}
	.st8{fill:#07557A;}
	.st9{fill:#AB6396;}
	.st10{fill:#E96255;}
	.st11{fill:#FEC913;}
</style>
<g id="Layer_1_1_">
	<path class="st0" d="M213.4,417.3c-112.9,0-204.8-91.9-204.8-204.8C8.5,99.6,100.4,7.7,213.4,7.7c112.9,0,204.8,91.9,204.8,204.8
		S326.3,417.3,213.4,417.3z M213.4,27.7c-101.9,0-184.8,82.9-184.8,184.8s82.9,184.8,184.8,184.8s184.8-82.9,184.8-184.8
		S315.3,27.7,213.4,27.7z"/>
	<path class="st1" d="M213.4,391.7c-98.8,0-179.2-80.4-179.2-179.2S114.6,33.3,213.4,33.3s179.2,80.4,179.2,179.2
		C392.6,311.3,312.2,391.7,213.4,391.7z M213.4,53.3c-87.8,0-159.2,71.4-159.2,159.2s71.4,159.2,159.2,159.2s159.2-71.4,159.2-159.2
		C372.6,124.7,301.2,53.3,213.4,53.3z"/>
	<path class="st2" d="M213.4,365.8c-84.5,0-153.3-68.8-153.3-153.3S128.8,59.3,213.4,59.3c84.5,0,153.3,68.8,153.3,153.3
		S297.9,365.8,213.4,365.8z M213.4,79.3c-73.5,0-133.3,59.8-133.3,133.3s59.8,133.3,133.3,133.3s133.3-59.8,133.3-133.3
		C346.6,139,286.8,79.3,213.4,79.3z"/>
	<path class="st3" d="M213.4,339c-69.7,0-126.5-56.7-126.5-126.5S143.6,86.1,213.4,86.1c69.7,0,126.5,56.7,126.5,126.5
		S283.1,339,213.4,339z M213.4,106.1c-58.7,0-106.5,47.8-106.5,106.5s47.8,106.5,106.5,106.5s106.5-47.8,106.5-106.5
		C319.8,153.8,272,106.1,213.4,106.1z"/>
	<path class="st4" d="M213.4,287.1c-41.1,0-74.6-33.4-74.6-74.6s33.4-74.6,74.6-74.6c41.1,0,74.6,33.4,74.6,74.6
		S254.5,287.1,213.4,287.1z M213.4,158c-30.1,0-54.6,24.5-54.6,54.6s24.5,54.6,54.6,54.6s54.6-24.5,54.6-54.6
		C267.9,182.4,243.4,158,213.4,158z"/>
	<path class="st5" d="M213.4,261.3c-26.9,0-48.8-21.9-48.8-48.8s21.9-48.8,48.8-48.8s48.8,21.9,48.8,48.8
		C262.1,239.4,240.2,261.3,213.4,261.3z M213.4,183.8c-15.9,0-28.8,12.9-28.8,28.8s12.9,28.8,28.8,28.8s28.8-12.9,28.8-28.8
		S229.2,183.8,213.4,183.8z"/>
</g>
<g id="Layer_2">
	<path class="st6" d="M213.4,417.3c-112.9,0-204.8-91.9-204.8-204.8c0-54.4,21.1-105.7,59.4-144.3c3.9-3.9,10.2-3.9,14.1-0.1
		C86,72,86,78.3,82.2,82.2C47.6,117,28.6,163.3,28.6,212.4c0,101.9,82.9,184.8,184.8,184.8s184.8-82.9,184.8-184.8
		S315.3,27.7,213.4,27.7c-5.5,0-10-4.5-10-10s4.5-10,10-10c112.9,0,204.8,91.9,204.8,204.8S326.3,417.3,213.4,417.3z"/>
	<path class="st7" d="M213.4,391.7c-98.8,0-179.2-80.4-179.2-179.2V212c0-5.5,4.5-10,10-10l0,0c5.5,0,10,4.5,10,10v0.5
		c0,87.8,71.4,159.2,159.2,159.2s159.2-71.4,159.2-159.2S301.2,53.3,213.4,53.3c-5.5,0-10-4.5-10-10s4.5-10,10-10
		c98.8,0,179.2,80.4,179.2,179.2S312.2,391.7,213.4,391.7z"/>
	<path class="st8" d="M213.4,365.8c-41,0-79.5-16-108.4-45c-3.9-3.9-3.9-10.2,0-14.1s10.2-3.9,14.1,0c25.2,25.2,58.7,39.1,94.3,39.1
		c73.5,0,133.3-59.8,133.3-133.3S286.9,79.2,213.4,79.2c-5.5,0-10-4.5-10-10s4.5-10,10-10c84.5,0,153.3,68.8,153.3,153.3
		S297.9,365.8,213.4,365.8z"/>
	<path class="st9" d="M213.4,339c-5.5,0-10-4.5-10-10s4.5-10,10-10c58.7,0,106.5-47.8,106.5-106.5S272.1,106,213.4,106
		c-5.5,0-10-4.5-10-10s4.5-10,10-10c69.7,0,126.5,56.7,126.5,126.5S283.1,339,213.4,339z"/>
	<path class="st10" d="M277.9,222.5c-5.5,0-10-4.5-10-10c0-30.1-24.5-54.6-54.6-54.6c-5.5,0-10-4.5-10-10s4.5-10,10-10
		c41.1,0,74.6,33.4,74.6,74.6C287.9,218,283.4,222.5,277.9,222.5z"/>
	<path class="st11" d="M240.6,194.9c-2.5,0-5.1-1-7-2.9c-5.4-5.3-12.6-8.3-20.2-8.3c-5.5,0-10-4.5-10-10s4.5-10,10-10
		c12.9,0,25.1,5,34.2,14c3.9,3.9,4,10.2,0.1,14.1C245.7,193.9,243.1,194.9,240.6,194.9z"/>
</g>
</svg>
