<?xml version="1.0" encoding="utf-8"?>
<!-- Generator: Adobe Illustrator 18.1.0, SVG Export Plug-In . SVG Version: 6.00 Build 0)  -->
<!DOCTYPE svg PUBLIC "-//W3C//DTD SVG 1.1//EN" "http://www.w3.org/Graphics/SVG/1.1/DTD/svg11.dtd">
<svg version="1.1" xmlns="http://www.w3.org/2000/svg" xmlns:xlink="http://www.w3.org/1999/xlink" x="0px" y="0px" width="558.6px"
	 height="394.7px" viewBox="0 0 558.6 394.7" enable-background="new 0 0 558.6 394.7" xml:space="preserve">
<g id="Layer_1">
	<g>
		<defs>
			<polygon id="SVGID_1_" points="398.8,341.3 398.8,130.8 536.3,130.8 536.3,11.3 1.8,11.3 1.8,377.3 536.3,377.3 536.3,341.3 			
				"/>
		</defs>
		<clipPath id="SVGID_2_">
			<use xlink:href="#SVGID_1_"  overflow="visible"/>
		</clipPath>
		<rect x="6.4" y="73.4" clip-path="url(#SVGID_2_)" fill="#4A5762" width="105.7" height="83.9"/>
		<rect x="117.1" y="73.4" clip-path="url(#SVGID_2_)" fill="#F1F1F1" width="397.1" height="297.2"/>
		<rect x="128.4" y="87.8" clip-path="url(#SVGID_2_)" fill="#484949" width="105.7" height="9.3"/>
		<rect x="422.7" y="86" clip-path="url(#SVGID_2_)" fill="#909090" width="75.1" height="11.8"/>
		<rect x="341.1" y="86" clip-path="url(#SVGID_2_)" fill="#1B9EBC" width="76.1" height="11.8"/>
		<rect x="6.4" y="165.8" clip-path="url(#SVGID_2_)" fill="#4A5762" width="105.7" height="204.8"/>
		<rect x="6.4" y="42.8" clip-path="url(#SVGID_2_)" fill="#282424" width="507.8" height="24.7"/>
		<rect x="127.8" y="109.4" clip-path="url(#SVGID_2_)" fill="#FFFFFF" width="113.9" height="85.5"/>
		<rect x="127.8" y="208" clip-path="url(#SVGID_2_)" fill="#FFFFFF" width="370.2" height="150.6"/>
		<rect x="255.5" y="109.4" clip-path="url(#SVGID_2_)" fill="#FFFFFF" width="113.9" height="85.5"/>
		<rect x="383.3" y="109.4" clip-path="url(#SVGID_2_)" fill="#FFFFFF" width="113.9" height="85.5"/>
		<polygon clip-path="url(#SVGID_2_)" fill="#CCCCCC" points="241.7,111.9 241.7,194.9 130.3,194.9 130.3,197.5 244.2,197.5 
			244.2,111.9 		"/>
		<polygon clip-path="url(#SVGID_2_)" fill="#CCCCCC" points="498,210.5 498,358.6 130.3,358.6 130.3,361.1 500.5,361.1 
			500.5,210.5 		"/>
		<polygon clip-path="url(#SVGID_2_)" fill="#CCCCCC" points="369.4,111.9 369.4,194.9 258.1,194.9 258.1,197.5 371.9,197.5 
			371.9,111.9 		"/>
		<polygon clip-path="url(#SVGID_2_)" fill="#CCCCCC" points="497.1,111.9 497.1,194.9 385.8,194.9 385.8,197.5 499.7,197.5 
			499.7,111.9 		"/>
		<rect x="139.5" y="295.5" clip-path="url(#SVGID_2_)" fill="#CCCCCC" width="346.7" height="11.8"/>
		<rect x="139.5" y="317.6" clip-path="url(#SVGID_2_)" fill="#CCCCCC" width="346.7" height="0.2"/>
		<rect x="139.5" y="326.9" clip-path="url(#SVGID_2_)" fill="#CCCCCC" width="346.7" height="0.2"/>
		<rect x="139.5" y="336.1" clip-path="url(#SVGID_2_)" fill="#CCCCCC" width="346.7" height="0.2"/>
		<rect x="139.5" y="345.4" clip-path="url(#SVGID_2_)" fill="#CCCCCC" width="346.7" height="0.2"/>
		<rect x="13.8" y="351.3" clip-path="url(#SVGID_2_)" fill="#3E4A55" width="89.7" height="11.8"/>
		<rect x="6.4" y="18.3" clip-path="url(#SVGID_2_)" fill="#121212" width="507.8" height="28.5"/>
		<rect x="6.4" y="157.2" clip-path="url(#SVGID_2_)" fill="#3E4A55" width="105.7" height="9.3"/>
	</g>
</g>
<g id="Layer_2">
	<rect x="404.7" y="135.7" fill="#4A5762" width="43.6" height="201.4"/>
	<rect x="404.7" y="135.7" fill="#3E4A55" width="43.6" height="21.4"/>
	<rect x="451.9" y="160.5" fill="#F1F1F1" width="102.6" height="177.6"/>
	<rect x="504.9" y="165.7" fill="#909090" width="43.8" height="9.5"/>
	<rect x="457.1" y="165.7" fill="#1B9EBC" width="43.8" height="9.5"/>
	<rect x="456.8" y="181.9" fill="#FFFFFF" width="91.4" height="68.6"/>
	<polygon fill="#CCCCCC" points="548.1,183.9 548.1,250.5 458.8,250.5 458.8,252.6 550.1,252.6 550.1,183.9 	"/>
	<rect x="456.8" y="259.8" fill="#FFFFFF" width="91.4" height="68.6"/>
	<polygon fill="#CCCCCC" points="548.1,261.8 548.1,328.4 458.8,328.4 458.8,330.4 550.1,330.4 550.1,261.8 	"/>
	<rect x="451.9" y="134.8" fill="#121212" width="103.1" height="22.8"/>
	<g>
		<defs>
			<rect id="SVGID_3_" x="512.6" y="187" width="32" height="47.5"/>
		</defs>
		<clipPath id="SVGID_4_">
			<use xlink:href="#SVGID_3_"  overflow="visible"/>
		</clipPath>
		<g clip-path="url(#SVGID_4_)">
			<g>
				<path fill="#EF5923" d="M530.2,225.4c0.1,0.3,0.2,0.6,0.3,0.9l-2.4,0.6c-0.1-0.3-0.2-0.7-0.3-1L530.2,225.4z"/>
				<path fill="#EF5923" d="M529.9,223.9c0,0.4,0.1,0.8,0.2,1.2l-2.4,0.5c-0.1-0.5-0.2-1.1-0.3-1.6L529.9,223.9z"/>
				<path fill="#EF5923" d="M529.9,222.3c0,0.4,0,0.9,0,1.4l-2.5,0.1c-0.1-0.6-0.1-1.2,0-1.7L529.9,222.3z"/>
				<path fill="#EF5923" d="M530.2,221c-0.1,0.3-0.1,0.7-0.2,1l-2.5-0.3c0.1-0.6,0.2-1.2,0.4-1.8L530.2,221z"/>
				<path fill="#EF5923" d="M530.7,219.7c-0.2,0.3-0.3,0.7-0.4,1.1l-2.4-1.1c0.2-0.6,0.5-1.2,0.8-1.7L530.7,219.7z"/>
				<path fill="#EF5923" d="M531.6,218.6c-0.3,0.2-0.5,0.5-0.7,0.9l-2-1.6c0.4-0.5,0.8-1,1.3-1.3L531.6,218.6z"/>
				<path fill="#EF5923" d="M531.7,215.7l0.8,2.3c-0.2,0.1-0.5,0.2-0.7,0.4l-1.4-2.1C530.8,216.1,531.2,215.9,531.7,215.7z"/>
			</g>
			<g>
				<path fill="#1C9CBD" d="M522.6,196.4l5.4,15.1c0,0,11.9-5.1,14-5.9c2.1-0.8,11-3.9,11.9-4.3c1.2-0.5-4.5-13.9-4.8-14.5
					c-0.3-0.6-9,1.5-11.8,2.4c-2.8,0.9-7.8,3-10.2,4.3C525.2,194.6,522.6,196.4,522.6,196.4z"/>
				<path fill="#0E6272" d="M553.9,201.4c-0.2-0.6-6.2,1.2-13.4,4c-7.2,2.8-12.8,5.6-12.5,6.2c0.2,0.6,6.2-1.2,13.4-4
					C548.5,204.8,554.2,202,553.9,201.4z"/>
			</g>
			<path fill="#1C9CBD" d="M542.8,208.3c-3.1,1.4-6.4,2.9-9.2,4.9c-0.9,0.8-1.9,1.6-2.8,2.2c2.5,6.7,8.7,10.8,15.1,9.4
				c7.1-1.6,11.3-7.1,9.6-15.3c-0.1-0.6-1.4-4.2-1.6-4.7C549.6,205.7,547,206.9,542.8,208.3z"/>
			<g>
				<path fill="#EF5923" d="M556.5,198.6c-0.1-0.3-0.2-0.6-0.3-0.9l2.4-0.6c0.1,0.3,0.2,0.7,0.3,1L556.5,198.6z"/>
				<path fill="#EF5923" d="M556.8,200c0-0.4-0.1-0.8-0.2-1.2l2.4-0.5c0.1,0.5,0.2,1.1,0.3,1.6L556.8,200z"/>
				<path fill="#EF5923" d="M556.8,201.6c0-0.4,0-0.9,0-1.4l2.5-0.1c0.1,0.6,0.1,1.2,0,1.7L556.8,201.6z"/>
				<path fill="#EF5923" d="M556.5,202.9c0.1-0.3,0.1-0.7,0.2-1l2.5,0.3c-0.1,0.6-0.2,1.2-0.4,1.8L556.5,202.9z"/>
				<path fill="#EF5923" d="M556,204.3c0.2-0.3,0.3-0.7,0.4-1.1l2.4,1.1c-0.2,0.6-0.5,1.2-0.8,1.7L556,204.3z"/>
				<path fill="#EF5923" d="M555.1,205.4c0.3-0.2,0.5-0.5,0.7-0.9l2,1.6c-0.4,0.5-0.8,1-1.3,1.3L555.1,205.4z"/>
				<path fill="#EF5923" d="M555,208.2l-0.8-2.3c0.2-0.1,0.5-0.2,0.7-0.4l1.4,2.1C555.9,207.9,555.5,208.1,555,208.2z"/>
			</g>
			<path fill="#1C9CBD" d="M554.8,193.9c-1.9,3.5,2.9,5,4.3,2.9c3.1-4.6-1.7-5.3-1.7-5.3l-0.2,1c0,0,3.4,1.7,0.1,3.3
				c-0.8,0.4-2.4,0.7-1.4-1.7L554.8,193.9z"/>
			<path fill="#1C9CBD" d="M532.3,230c1.9-3.5-2.9-5-4.3-2.9c-3.1,4.6,1.7,5.3,1.7,5.3l0.2-1c0,0-3.4-1.7-0.1-3.3
				c0.8-0.4,2.4-0.7,1.4,1.7L532.3,230z"/>
		</g>
	</g>
</g>
</svg>
