<?xml version="1.0" encoding="utf-8"?>
<!-- Generator: Adobe Illustrator 18.1.0, SVG Export Plug-In . SVG Version: 6.00 Build 0)  -->
<!DOCTYPE svg PUBLIC "-//W3C//DTD SVG 1.1//EN" "http://www.w3.org/Graphics/SVG/1.1/DTD/svg11.dtd">
<svg version="1.1" id="Layer_1" xmlns="http://www.w3.org/2000/svg" xmlns:xlink="http://www.w3.org/1999/xlink" x="0px" y="0px"
	 viewBox="0 0 612 792" enable-background="new 0 0 612 792" xml:space="preserve">
<path fill="#CCCCCC" d="M468,253.3c-79,0-143,64-143,143l35.7-0.2c0.1-59.1,48.1-106.9,107.1-106.9v-35.8H468z"/>
<path fill="#909090" d="M468,289c59.2,0,107,47.9,107.1,106.9l35.7,0.2c0-79-64-143-143-143V289H468z"/>
<path fill="#F25316" d="M468,502.9c-59.2,0-107-47.9-107.1-106.9l-35.7-0.2c0,79,64,143,143,143v-35.8H468z"/>
<path fill="#484949" d="M468,538.7c79,0,143-64,143-143l-35.7,0.2c-0.1,59.1-48.1,106.9-107.1,106.9v35.8H468z"/>
<path fill="#05373F" d="M216.6,179.8C97,179.8,0,276.7,0,396.4l54.1-0.3c0.2-89.5,72.9-162,162.4-162v-54.2H216.6z"/>
<path fill="#41788F" d="M216.6,233.9c89.6,0,162.3,72.5,162.4,162l54.1,0.3c0-119.5-97-216.5-216.5-216.5V233.9z"/>
<path fill="#1B9EBC" d="M216.6,558c-89.6,0-162.3-72.5-162.4-162L0,395.6c0,119.6,97,216.6,216.6,216.6V558z"/>
<path fill="#18DFFF" d="M216.6,612.2c119.6,0,216.6-97,216.6-216.6l-54.1,0.3c-0.2,89.5-72.9,162-162.4,162v54.2H216.6z"/>
<g id="icons">
	<g>
		<polygon fill="#484949" points="584.6,600.8 593.9,589.3 588.9,589.3 588.9,578.7 580.2,578.7 580.2,589.3 575.4,589.3 		"/>
		<polygon fill="#484949" points="595.7,595.4 595.7,602.9 573.5,602.9 573.5,595.4 570.2,595.4 570.2,606.2 599.1,606.2 
			599.1,595.4 		"/>
	</g>
</g>
</svg>
