<?xml version="1.0" encoding="utf-8"?>
<!-- Generator: Adobe Illustrator 17.1.0, SVG Export Plug-In . SVG Version: 6.00 Build 0)  -->
<!DOCTYPE svg PUBLIC "-//W3C//DTD SVG 1.1//EN" "http://www.w3.org/Graphics/SVG/1.1/DTD/svg11.dtd">
<svg version="1.1" xmlns="http://www.w3.org/2000/svg" xmlns:xlink="http://www.w3.org/1999/xlink" x="0px" y="0px"
	 viewBox="0 0 99 99" enable-background="new 0 0 99 99" xml:space="preserve">
<g id="icons">
	<g id="Ellipse_1_10_">
		<g>
			<path fill="#231F20" d="M62.2,32.7C54.3,25,41.7,25.2,34,33.1c-7.7,7.9-7.5,20.6,0.4,28.3c7.9,7.7,20.6,7.5,28.3-0.4
				C70.4,53,70.2,40.3,62.2,32.7z M54.9,54.6l-6.5-6.3L42,54.8l-1.3-1.3L47,47l-6.5-6.3l1.3-1.3l6.5,6.3l6.3-6.5l1.3,1.3L49.6,47
				l6.5,6.3L54.9,54.6z"/>
		</g>
	</g>
</g>
<g id="Labels" display="none">
	<rect y="83" display="inline" fill="none" width="97" height="15"/>
	<text transform="matrix(1 0 0 1 10.2471 92.1201)" display="inline" font-family="'OpenSans'" font-size="12">delete mobile</text>
</g>
</svg>
