<?xml version="1.0" encoding="utf-8"?>
<!-- Generator: Adobe Illustrator 17.1.0, SVG Export Plug-In . SVG Version: 6.00 Build 0)  -->
<!DOCTYPE svg PUBLIC "-//W3C//DTD SVG 1.1//EN" "http://www.w3.org/Graphics/SVG/1.1/DTD/svg11.dtd">
<svg version="1.1" xmlns="http://www.w3.org/2000/svg" xmlns:xlink="http://www.w3.org/1999/xlink" x="0px" y="0px"
	 viewBox="0 0 99 99.1" enable-background="new 0 0 99 99.1" xml:space="preserve">
<g id="icons">
	<g>
		<g>
			<path fill="none" d="M45.8,27.2c-9.9,0-17.9,8.2-17.9,18.3c0,10.1,8,18.3,17.9,18.3c9.9,0,17.9-8.2,17.9-18.3
				C63.7,35.4,55.7,27.2,45.8,27.2z"/>
			<path d="M45.8,24.8c-11.2,0-20.3,9.3-20.3,20.8c0,11.5,9.1,20.8,20.3,20.8c11.2,0,20.3-9.3,20.3-20.8
				C66.1,34.1,57,24.8,45.8,24.8z M45.8,65.1c-10.6,0-19.1-8.8-19.1-19.6c0-10.8,8.6-19.6,19.1-19.6c10.6,0,19.1,8.8,19.1,19.6
				C64.9,56.3,56.4,65.1,45.8,65.1z"/>
			<path d="M45.8,26c-10.6,0-19.1,8.8-19.1,19.6c0,10.8,8.6,19.6,19.1,19.6c10.6,0,19.1-8.8,19.1-19.6C64.9,34.7,56.4,26,45.8,26z
				 M45.8,63.9c-9.9,0-17.9-8.2-17.9-18.3c0-10.1,8-18.3,17.9-18.3c9.9,0,17.9,8.2,17.9,18.3C63.7,55.6,55.7,63.9,45.8,63.9z"/>
		</g>
		<g>
			<path d="M48.3,42.8v9.1c0,0.8,0.1,1.3,0.4,1.6c0.2,0.3,0.8,0.4,1.7,0.4v1.6h-9.1v-1.6h0.3c0.8,0,1.4-0.1,1.6-0.4
				c0.2-0.3,0.3-0.8,0.3-1.5v-4.4c0-0.7-0.1-1.2-0.3-1.5s-0.8-0.4-1.6-0.4h-0.3v-1.6L48.3,42.8z M43.3,37.6c0-0.7,0.3-1.4,0.8-1.9
				c0.5-0.5,1.2-0.8,1.9-0.8c0.7,0,1.4,0.3,1.9,0.8s0.8,1.2,0.8,1.9s-0.3,1.4-0.8,1.9s-1.1,0.8-1.9,0.8c-0.8,0-1.4-0.3-1.9-0.8
				C43.6,39,43.3,38.3,43.3,37.6z"/>
		</g>
	</g>
</g>
<g id="Labels" display="none">
	<rect x="2.7" y="84.7" display="inline" fill="none" width="97" height="15"/>
	<text transform="matrix(1 0 0 1 13.8864 93.7868)" display="inline" font-family="'OpenSans'" font-size="12">about mobile</text>
</g>
</svg>
