<?xml version="1.0" encoding="utf-8"?>
<!-- Generator: Adobe Illustrator 17.1.0, SVG Export Plug-In . SVG Version: 6.00 Build 0)  -->
<!DOCTYPE svg PUBLIC "-//W3C//DTD SVG 1.1//EN" "http://www.w3.org/Graphics/SVG/1.1/DTD/svg11.dtd">
<svg version="1.1" xmlns="http://www.w3.org/2000/svg" xmlns:xlink="http://www.w3.org/1999/xlink" x="0px" y="0px"
	 viewBox="0 0 99 99" enable-background="new 0 0 99 99" xml:space="preserve">
<g id="icons">
	<g>
		<path d="M51.1,39.6c12.3,0,22.2,8.4,22.2,18.8l0,0V61c0,0.8-0.7,1.5-1.5,1.5H30.4c-0.8,0-1.5-0.7-1.5-1.5v-2.6
			C28.9,48,38.8,39.6,51.1,39.6 M51.1,36.7c-6.6,0-12.8,2.2-17.5,6.2c-4.8,4.1-7.5,9.6-7.5,15.5V61c0,2.4,1.9,4.4,4.4,4.4h41.3
			c2.3,0,4.2-1.8,4.3-4.1l0,0v-2.8c0-5.9-2.7-11.4-7.5-15.5C63.9,39,57.7,36.7,51.1,36.7L51.1,36.7z"/>
		<path d="M46.7,55.2c0.4,2.2,2.4,3.7,4.6,3.4c2.2-0.4,8.3-3.6,11.9-5.7c-3.9-0.8-10.9-2.6-13.1-2.2C47.8,51,46.3,53,46.7,55.2z
			 M52.2,54.4c0.2,0.9-0.5,1.7-1.4,1.9c-0.9,0.2-1.7-0.5-1.9-1.4c-0.2-0.9,0.5-1.7,1.4-1.9C51.2,52.9,52.1,53.5,52.2,54.4z"/>
		<path d="M51.5,48.2c-0.4,0-0.8-0.3-0.8-0.8V43c0-0.4,0.3-0.8,0.8-0.8s0.8,0.3,0.8,0.8v4.5C52.3,47.9,51.9,48.2,51.5,48.2z"/>
		<path d="M68.9,58.3h-4.5c-0.4,0-0.8-0.3-0.8-0.8s0.3-0.8,0.8-0.8h4.5c0.4,0,0.8,0.3,0.8,0.8S69.4,58.3,68.9,58.3z"/>
		<path d="M38.5,58.3H34c-0.4,0-0.8-0.3-0.8-0.8s0.3-0.8,0.8-0.8h4.5c0.4,0,0.8,0.3,0.8,0.8S39,58.3,38.5,58.3z"/>
	</g>
</g>
<g id="Labels" display="none">
	<rect x="1" y="83.7" display="inline" fill="none" width="97" height="15"/>
	<text transform="matrix(1 0 0 1 28.7227 92.835)" display="inline" font-family="'OpenSans'" font-size="12">volume</text>
</g>
</svg>
