<?xml version="1.0" encoding="utf-8"?>
<!-- Generator: Adobe Illustrator 17.1.0, SVG Export Plug-In . SVG Version: 6.00 Build 0)  -->
<!DOCTYPE svg PUBLIC "-//W3C//DTD SVG 1.1//EN" "http://www.w3.org/Graphics/SVG/1.1/DTD/svg11.dtd">
<svg version="1.1" xmlns="http://www.w3.org/2000/svg" xmlns:xlink="http://www.w3.org/1999/xlink" x="0px" y="0px"
	 viewBox="0 0 99 99.1" enable-background="new 0 0 99 99.1" xml:space="preserve">
<g id="icons">
	<g id="Rounded_Rectangle_2_7_">
		<g>
			<path d="M35.2,27.2c0-0.6-0.4-1-1-1h-3c-0.6,0-1,0.4-1,1c0,0.6,0,1,0,1h5C35.2,28.2,35.2,27.8,35.2,27.2z M72.2,30.2
				c0,0-6.9,0-9,0c-2.9,0-4-6-7-6h-13c-2,0-3,6-6,6s-9,0-9,0c-1.7,0-3,1.3-3,3v26c0,1.7,1.3,3,3,3h44c1.7,0,3-1.3,3-3v-26
				C75.2,31.6,73.9,30.2,72.2,30.2z M50.2,57.2c-6.6,0-12-5.4-12-12c0-6.6,5.4-12,12-12c6.6,0,12,5.4,12,12
				C62.2,51.9,56.8,57.2,50.2,57.2z M64.7,36.2c-0.8,0-1.5-0.7-1.5-1.5c0-0.8,0.7-1.5,1.5-1.5c0.8,0,1.5,0.7,1.5,1.5
				C66.2,35.6,65.5,36.2,64.7,36.2z M50.2,36.2c-5,0-9,4-9,9c0,5,4,9,9,9c5,0,9-4,9-9C59.2,40.3,55.2,36.2,50.2,36.2z"/>
		</g>
	</g>
</g>
<g id="Labels" display="none">
	<rect x="0" y="83" display="inline" fill="none" width="97" height="15"/>
	<text transform="matrix(1 0 0 1 27.5732 92.1201)" display="inline" font-family="'OpenSans'" font-size="12">camera</text>
</g>
</svg>
