<?xml version="1.0" encoding="utf-8"?>
<!-- Generator: Adobe Illustrator 17.1.0, SVG Export Plug-In . SVG Version: 6.00 Build 0)  -->
<!DOCTYPE svg PUBLIC "-//W3C//DTD SVG 1.1//EN" "http://www.w3.org/Graphics/SVG/1.1/DTD/svg11.dtd">
<svg version="1.1" xmlns="http://www.w3.org/2000/svg" xmlns:xlink="http://www.w3.org/1999/xlink" x="0px" y="0px"
	 viewBox="0 0 99 99" enable-background="new 0 0 99 99" xml:space="preserve">
<g id="icons">
	<g>
		<path d="M68.2,38.5c-0.1-0.4-0.2-0.5-0.6-0.6c-0.6-0.1-1.3-0.3-1.9-0.3c-1.6,0.1-2.4-0.7-2.8-2.2c-0.1-0.3-0.1-0.6,0.1-0.8
			c0.7-1,1.5-1.9,2.2-2.9c0.1-0.2,0.1-0.5,0-0.7c-1.4-2.2-3.3-4-5.4-5.4c-0.3-0.2-0.5-0.2-0.8,0c-1,0.7-1.9,1.5-2.9,2.2
			c-0.4,0.3-2.5-0.4-2.7-0.9c0-0.1,0-0.2,0-0.3c-0.2-1.2-0.4-2.3-0.5-3.5c0-0.4-0.2-0.5-0.5-0.5c-2.5-0.5-5.1-0.5-7.6,0
			c-0.3,0.1-0.5,0.2-0.5,0.5c-0.1,0.9-0.3,1.9-0.4,2.8c-0.1,0.9-0.3,1.5-1.3,1.7c-0.2,0-0.4,0.1-0.6,0.3c-0.4,0.3-0.8,0.2-1.1-0.1
			c-0.9-0.7-1.8-1.3-2.7-2c-0.3-0.3-0.5-0.2-0.9,0c-2.1,1.5-3.9,3.2-5.3,5.3c-0.2,0.3-0.2,0.5,0,0.8c0.5,0.7,1,1.4,1.6,2.1
			c0.7,0.8,1,1.6,0.3,2.5c-0.1,0.2-0.1,0.4-0.2,0.6c-0.2,0.2-0.4,0.4-0.6,0.5c-1.2,0.2-2.4,0.4-3.6,0.5c-0.4,0-0.5,0.2-0.6,0.5
			c-0.5,2.5-0.5,5.1,0,7.6c0.1,0.3,0.2,0.5,0.5,0.5c0.9,0.1,1.9,0.3,2.8,0.4c0.9,0.1,1.5,0.3,1.7,1.3c0,0.3,0.2,0.5,0.3,0.7
			c0.2,0.3,0.1,0.6-0.1,0.9c-0.7,0.9-1.4,1.9-2.1,2.8c-0.1,0.2-0.2,0.5-0.1,0.6c1.5,2.3,3.5,4.2,5.8,5.7c0.1,0,0.1,0,0.2-0.1
			c0.7-0.5,1.4-1,2.1-1.6c0.9-0.8,1.8-1.2,2.9-0.4c0.1,0.1,0.2,0.1,0.2,0.1c0.4,0.1,0.6,0.3,0.6,0.8c0.1,1.2,0.3,2.3,0.5,3.4
			c0,0.3,0.2,0.5,0.5,0.6c2.6,0.5,5.1,0.5,7.7,0c0.2,0,0.4-0.3,0.5-0.5c0.2-1.2,0.4-2.4,0.5-3.6c0.1-0.6,2.2-1.6,2.7-1.2
			c1,0.7,1.9,1.4,2.8,2.1c0.3,0.3,0.6,0.3,0.9,0c2.1-1.4,3.8-3.2,5.2-5.2c0.2-0.3,0.3-0.6,0-0.9c-0.4-0.5-0.8-1-1.1-1.5
			c-0.4-0.5-1.1-1-1.1-1.6c-0.1-0.6,0.4-1.3,0.6-1.9c0.1-0.2,0.4-0.5,0.6-0.5c1.2-0.2,2.3-0.4,3.5-0.5c0.4,0,0.5-0.2,0.6-0.6
			C68.6,43.5,68.6,41,68.2,38.5z M48.5,53.6c-6.3,0-11.3-5.1-11.3-11.3c0-6.3,5.1-11.3,11.3-11.3S59.8,36,59.8,42.2
			C59.8,48.5,54.8,53.6,48.5,53.6z"/>
	</g>
</g>
<g id="Labels" display="none">
	<rect y="83" display="inline" fill="none" width="97" height="15"/>
	<text transform="matrix(1 0 0 1 26.6855 92.1201)" display="inline" font-family="'OpenSans'" font-size="12">settings</text>
</g>
</svg>
