<?xml version="1.0" encoding="utf-8"?>
<!-- Generator: Adobe Illustrator 17.1.0, SVG Export Plug-In . SVG Version: 6.00 Build 0)  -->
<!DOCTYPE svg PUBLIC "-//W3C//DTD SVG 1.1//EN" "http://www.w3.org/Graphics/SVG/1.1/DTD/svg11.dtd">
<svg version="1.1" xmlns="http://www.w3.org/2000/svg" xmlns:xlink="http://www.w3.org/1999/xlink" x="0px" y="0px"
	 viewBox="0 0 99 99" enable-background="new 0 0 99 99" xml:space="preserve">
<g id="icons">
	<g>
		<path fill="#231F20" d="M42.6,30.3l15.4,0c2.7,0,4.9,1.5,4.9,3.4l0,33.2c0,1.9-2.2,3.4-4.9,3.4H42.6c-2.7,0-4.9-1.5-4.9-3.4
			l0-33.2C37.7,31.9,39.9,30.3,42.6,30.3z"/>
		<path fill="#FFFFFF" d="M43.3,33.9h14c1.6,0,2.8,1.3,2.8,3v22.3c0,1.6-1.3,3-2.8,3h-14c-1.6,0-2.8-1.3-2.8-3V36.9
			C40.5,35.3,41.8,33.9,43.3,33.9z"/>
		<circle fill="#ECECEC" cx="50.1" cy="66.2" r="2.5"/>
		<path fill="#231F20" d="M49.4,65.2h1.6c0.2,0,0.3,0.1,0.3,0.3v1.4c0,0.2-0.1,0.3-0.3,0.3h-1.6c-0.2,0-0.3-0.1-0.3-0.3v-1.4
			C49,65.4,49.2,65.2,49.4,65.2z"/>
	</g>
</g>
<g id="Labels" display="none">
	<rect x="1" y="81.9" display="inline" fill="none" width="97" height="15"/>
	<text transform="matrix(1 0 0 1 30.2168 90.9776)" display="inline" font-family="'OpenSans'" font-size="12">mobile</text>
</g>
</svg>
