<?xml version="1.0" encoding="utf-8"?>
<!-- Generator: Adobe Illustrator 17.1.0, SVG Export Plug-In . SVG Version: 6.00 Build 0)  -->
<!DOCTYPE svg PUBLIC "-//W3C//DTD SVG 1.1//EN" "http://www.w3.org/Graphics/SVG/1.1/DTD/svg11.dtd">
<svg version="1.1" xmlns="http://www.w3.org/2000/svg" xmlns:xlink="http://www.w3.org/1999/xlink" x="0px" y="0px"
	 viewBox="0 0 99 99" enable-background="new 0 0 99 99" xml:space="preserve">
<g id="icons">
	<g>
		<path fill="#231F20" d="M70.5,34.5l-14,14v21.1c0,0.7-0.5,1.4-1.1,1.7c-0.2,0.1-0.5,0.1-0.7,0.1c-0.5,0-0.9-0.2-1.3-0.5l-7.3-7.3
			c-0.3-0.3-0.5-0.8-0.5-1.3V48.5l-14-14c-0.5-0.5-0.7-1.3-0.4-2c0.3-0.7,0.9-1.1,1.7-1.1h36.4c0.7,0,1.4,0.5,1.7,1.1
			C71.1,33.2,71,34,70.5,34.5z"/>
	</g>
</g>
<g id="Labels" display="none">
	<rect x="2" y="83" display="inline" fill="none" width="97" height="15"/>
	<text transform="matrix(1 0 0 1 37.498 92.1201)" display="inline" font-family="'OpenSans'" font-size="12">filter</text>
</g>
</svg>
