<?xml version="1.0" encoding="utf-8"?>
<!-- Generator: Adobe Illustrator 17.1.0, SVG Export Plug-In . SVG Version: 6.00 Build 0)  -->
<!DOCTYPE svg PUBLIC "-//W3C//DTD SVG 1.1//EN" "http://www.w3.org/Graphics/SVG/1.1/DTD/svg11.dtd">
<svg version="1.1" xmlns="http://www.w3.org/2000/svg" xmlns:xlink="http://www.w3.org/1999/xlink" x="0px" y="0px"
	 viewBox="0 0 99 99" enable-background="new 0 0 99 99" xml:space="preserve">
<g id="icons">
	<g>
		<g>
			<path fill="#231F20" d="M49.4,31.7c-7.6,0-13.8,6.2-13.8,13.8c0,1.9,0.4,3.8,1.1,5.4c1.2,2.8,4.4,6.8,6,9.7l5.9,10.9
				c0.5,0.8,1.2,0.8,1.7,0l5.9-10.9c1.5-2.8,4.7-6.8,6-9.7c0.7-1.7,1.1-3.5,1.1-5.4C63.2,37.9,57,31.7,49.4,31.7z M49.4,52.1
				c-3.7,0-6.6-3-6.6-6.6c0-3.7,3-6.6,6.6-6.6c3.7,0,6.6,3,6.6,6.6C56,49.2,53.1,52.1,49.4,52.1z"/>
		</g>
		<g>
			<path fill="#231F20" d="M65.9,47.3c-0.6,0-1.2,0.1-1.8,0.2c-0.2,1.2-0.5,2.4-1,3.5c-1,2.4-3.4,5.5-5,8.1c0,0,0,0,0,0
				c0.8,1.7,2.7,4.2,3.7,5.9l3.6,6.7c0.3,0.5,0.7,0.5,1,0l3.6-6.7c0.9-1.7,2.9-4.2,3.7-5.9c0.4-1,0.7-2.2,0.7-3.3
				C74.4,51.1,70.6,47.3,65.9,47.3z M65.9,59.8c-2.2,0-4.1-1.8-4.1-4.1c0-2.2,1.8-4.1,4.1-4.1c2.2,0,4.1,1.8,4.1,4.1
				C70,58,68.2,59.8,65.9,59.8z"/>
			<path fill="#231F20" d="M34.7,47.5c-0.6-0.1-1.2-0.2-1.8-0.2c-4.7,0-8.5,3.8-8.5,8.5c0,1.2,0.2,2.3,0.7,3.3
				c0.8,1.7,2.7,4.2,3.7,5.9l3.6,6.7c0.3,0.5,0.7,0.5,1,0L37,65c0.9-1.7,2.9-4.2,3.7-5.9c0,0,0,0,0,0c-1.7-2.6-4-5.8-5-8.1
				C35.2,49.9,34.9,48.7,34.7,47.5z M37,55.8c0,2.2-1.8,4.1-4.1,4.1c-2.2,0-4.1-1.8-4.1-4.1c0-2.2,1.8-4.1,4.1-4.1
				C35.1,51.7,37,53.5,37,55.8z"/>
		</g>
	</g>
</g>
<g id="Labels" display="none">
	<rect x="2" y="82.7" display="inline" fill="none" width="97" height="15"/>
	<text transform="matrix(1 0 0 1 37.7734 91.835)" display="inline" font-family="'OpenSans'" font-size="12">sites</text>
</g>
</svg>
