<?xml version="1.0" encoding="utf-8"?>
<!-- Generator: Adobe Illustrator 17.1.0, SVG Export Plug-In . SVG Version: 6.00 Build 0)  -->
<!DOCTYPE svg PUBLIC "-//W3C//DTD SVG 1.1//EN" "http://www.w3.org/Graphics/SVG/1.1/DTD/svg11.dtd">
<svg version="1.1" xmlns="http://www.w3.org/2000/svg" xmlns:xlink="http://www.w3.org/1999/xlink" x="0px" y="0px"
	 viewBox="0 0 99 99" enable-background="new 0 0 99 99" xml:space="preserve">
<g id="icons">
	<path fill="#231F20" d="M68.9,58.1c-3.9-1.8-8-3-12.2-3.5c0.1-1,0.3-2,0.4-3c0.9-0.6,1.6-1.5,1.7-2.2c0.1-0.9,0.2-1.8,0.3-2.8
		c0.1,0.1,0.3,0.2,0.5,0.3c0.4,0,0.8-0.3,0.9-0.7l0.4-4.3c0-0.4-0.3-0.8-0.7-0.9c-0.2,0-0.3,0-0.5,0.1c0.1-0.8,0.2-1.6,0.3-2.4
		c0.1-1.1,0.6-4.1-1.5-6c-3.1-3-9.9-3-13,0c-2.1,1.9-1.6,4.9-1.5,6c0.1,0.8,0.2,1.6,0.3,2.4C44.2,41,44,41,43.8,41
		c-0.4,0-0.8,0.4-0.7,0.9l0.4,4.3c0,0.4,0.4,0.8,0.9,0.7c0.2,0,0.4-0.1,0.5-0.3c0.1,0.9,0.2,1.9,0.3,2.8c0.1,0.7,0.7,1.6,1.7,2.2
		c0.1,1,0.3,2,0.4,3c-4.2,0.5-8.3,1.7-12.2,3.5c-1.2,0.7-2.1,2.3-2,3.7c0.1,1.5,0.3,3,0.4,4.5c0.1,1.3,1.3,2.6,2.5,2.8
		c10.6,1.7,21.3,1.7,31.8,0c1.2-0.2,2.4-1.5,2.5-2.8c0.2-1.5,0.3-3,0.4-4.5C71,60.4,70.2,58.7,68.9,58.1z"/>
</g>
<g id="Labels" display="none">
	<rect x="0" y="82.9" display="inline" fill="none" width="97" height="15"/>
	<text transform="matrix(1 0 0 1 15.4912 91.9776)" display="inline" font-family="'OpenSans'" font-size="12">contact info</text>
</g>
</svg>
