<?xml version="1.0" encoding="utf-8"?>
<!-- Generator: Adobe Illustrator 17.1.0, SVG Export Plug-In . SVG Version: 6.00 Build 0)  -->
<!DOCTYPE svg PUBLIC "-//W3C//DTD SVG 1.1//EN" "http://www.w3.org/Graphics/SVG/1.1/DTD/svg11.dtd">
<svg version="1.1" xmlns="http://www.w3.org/2000/svg" xmlns:xlink="http://www.w3.org/1999/xlink" x="0px" y="0px"
	 viewBox="0 0 99 99" enable-background="new 0 0 99 99" xml:space="preserve">
<g id="icons">
	<path fill="#231F20" d="M68.3,46H65c-0.5-8.4-7.2-15.1-15.6-15.6V27h-2v3.3c-8.4,0.5-15.1,7.2-15.6,15.6h-3.3v2h3.3
		c0.5,8.4,7.2,15.1,15.6,15.6V67h2v-3.3C57.7,63.2,64.5,56.4,65,48h3.3V46z M62.9,46H58c-0.5-4.6-4.1-8.2-8.7-8.7v-4.9
		C56.6,33,62.4,38.8,62.9,46z M47.3,44.6c-0.6,0.3-1.2,0.8-1.4,1.4h-5.1c0.5-3.4,3.2-6.1,6.6-6.6V44.6z M45.8,48
		c0.3,0.6,0.8,1.2,1.4,1.4v5.1c-3.4-0.5-6.1-3.2-6.6-6.6H45.8z M49.3,49.5c0.6-0.3,1.2-0.8,1.4-1.4h5.1c-0.5,3.4-3.2,6.1-6.6,6.6
		V49.5z M50.8,46c-0.3-0.6-0.8-1.2-1.4-1.4v-5.1c3.4,0.5,6.1,3.2,6.6,6.6H50.8z M47.3,32.4v4.9c-4.6,0.5-8.2,4.1-8.7,8.7h-4.9
		C34.2,38.8,40,33,47.3,32.4z M33.7,48h4.9c0.5,4.6,4.1,8.2,8.7,8.7v4.9C40,61.1,34.2,55.3,33.7,48z M49.3,61.6v-4.9
		c4.6-0.5,8.2-4.1,8.7-8.7h4.9C62.4,55.3,56.6,61.1,49.3,61.6z"/>
</g>
<g id="Labels" display="none">
	<rect x="1" y="82" display="inline" fill="none" width="97" height="15"/>
	<text transform="matrix(1 0 0 1 32.8242 91.1201)" display="inline" font-family="'OpenSans'" font-size="12">target</text>
</g>
</svg>
