<?xml version="1.0" encoding="utf-8"?>
<!-- Generator: Adobe Illustrator 17.1.0, SVG Export Plug-In . SVG Version: 6.00 Build 0)  -->
<!DOCTYPE svg PUBLIC "-//W3C//DTD SVG 1.1//EN" "http://www.w3.org/Graphics/SVG/1.1/DTD/svg11.dtd">
<svg version="1.1" xmlns="http://www.w3.org/2000/svg" xmlns:xlink="http://www.w3.org/1999/xlink" x="0px" y="0px"
	 viewBox="0 0 99 99" enable-background="new 0 0 99 99" xml:space="preserve">
<g id="icons">
	<g>
		<path fill="#231F20" d="M44.1,54.1c-7.3,0-13.2-5.9-13.2-13.2c0-7.3,5.9-13.2,13.2-13.2S57.3,33.7,57.3,41
			C57.3,48.2,51.4,54.1,44.1,54.1z M44.1,30.2c-5.9,0-10.8,4.8-10.8,10.8c0,5.9,4.8,10.8,10.8,10.8S54.9,46.9,54.9,41
			C54.9,35,50.1,30.2,44.1,30.2z"/>
		
			<rect x="50.7" y="52.8" transform="matrix(0.7165 0.6976 -0.6976 0.7165 54.1875 -25.4461)" fill="#231F20" width="15.3" height="2.3"/>
	</g>
</g>
<g id="Labels" display="none">
	<rect x="1" y="84" display="inline" fill="none" width="97" height="15"/>
	<text transform="matrix(1 0 0 1 30.9463 93.1201)" display="inline" font-family="'OpenSans'" font-size="12">search</text>
</g>
</svg>
