<?xml version="1.0" encoding="utf-8"?>
<!-- Generator: Adobe Illustrator 17.1.0, SVG Export Plug-In . SVG Version: 6.00 Build 0)  -->
<!DOCTYPE svg PUBLIC "-//W3C//DTD SVG 1.1//EN" "http://www.w3.org/Graphics/SVG/1.1/DTD/svg11.dtd">
<svg version="1.1" xmlns="http://www.w3.org/2000/svg" xmlns:xlink="http://www.w3.org/1999/xlink" x="0px" y="0px"
	 viewBox="0 0 99 99" enable-background="new 0 0 99 99" xml:space="preserve">
<g id="icons">
	<g>
		<path fill="#231F20" d="M30.5,41.3h5.2v8.3h-5.2V41.3L30.5,41.3z M37.9,41.3h5.2v8.3h-5.2V41.3L37.9,41.3z"/>
		<path fill="#231F20" d="M29,45.5h22.9v8.2H29C26,53.7,26,45.5,29,45.5L29,45.5z"/>
		<path fill-rule="evenodd" clip-rule="evenodd" fill="#231F20" d="M63.1,35.9c7.5,0,13.7,6.1,13.7,13.7c0,7.5-6.1,13.7-13.7,13.7
			c-7.5,0-13.7-6.1-13.7-13.7C49.4,42,55.6,35.9,63.1,35.9L63.1,35.9z M63.1,42.8c3.7,0,6.7,3,6.7,6.7c0,3.7-3,6.7-6.7,6.7
			c-3.7,0-6.7-3-6.7-6.7C56.4,45.9,59.4,42.8,63.1,42.8L63.1,42.8z"/>
	</g>
</g>
<g id="Labels" display="none">
	<rect x="2" y="84" display="inline" fill="none" width="97" height="15"/>
	<text transform="matrix(1 0 0 1 19.8613 93.1201)" display="inline" font-family="'OpenSans'" font-size="12">key/legend</text>
</g>
</svg>
