<?xml version="1.0" encoding="utf-8"?>
<!-- Generator: Adobe Illustrator 17.1.0, SVG Export Plug-In . SVG Version: 6.00 Build 0)  -->
<!DOCTYPE svg PUBLIC "-//W3C//DTD SVG 1.1//EN" "http://www.w3.org/Graphics/SVG/1.1/DTD/svg11.dtd">
<svg version="1.1" xmlns="http://www.w3.org/2000/svg" xmlns:xlink="http://www.w3.org/1999/xlink" x="0px" y="0px"
	 viewBox="0 0 99 99" enable-background="new 0 0 99 99" xml:space="preserve">
<g id="icons">
	<g>
		<polygon points="65.5,61.2 63.7,51.4 62.3,51.4 64.1,61.2 		"/>
		<polygon points="68.2,61.2 66.4,51.4 65,51.4 66.8,61.2 		"/>
		<polygon points="62.8,61.2 61.1,51.4 59.6,51.4 61.4,61.2 		"/>
		<polygon points="60.1,61.2 58.4,51.4 57,51.4 58.7,61.2 		"/>
		<polygon points="68.8,51.4 67.6,51.4 68.8,58.2 		"/>
		<polygon points="57.4,61.2 55.7,51.4 54.3,51.4 56,61.2 		"/>
		<polygon points="49.4,61.2 47.6,51.4 46.2,51.4 48,61.2 		"/>
		<polygon points="54.7,61.2 53,51.4 51.6,51.4 53.3,61.2 		"/>
		<polygon points="52.1,61.2 50.3,51.4 48.9,51.4 50.6,61.2 		"/>
		<path d="M31.7,51.6V61c0,0.3,0.1,0.7,0.4,0.9c0.3,0.3,0.6,0.4,0.9,0.4h7.9c0.3,0,0.7-0.1,0.9-0.4c0.2-0.2,0.3-0.5,0.4-0.7h4.5
			L45,51.4h-2.8c0-0.3-0.2-0.5-0.4-0.7c-0.3-0.3-0.6-0.4-0.9-0.4H33c-0.3,0-0.7,0.1-0.9,0.4C31.8,51,31.7,51.3,31.7,51.6z"/>
		<path d="M31.7,65.2v3.4h10.5v-3.4c0-0.3-0.1-0.7-0.4-0.9c-0.3-0.3-0.6-0.4-0.9-0.4H33c-0.3,0-0.7,0.1-0.9,0.4
			C31.8,64.5,31.7,64.9,31.7,65.2z"/>
		<path d="M32.1,48.4c0.3,0.3,0.6,0.4,0.9,0.4h7.9c0.3,0,0.7-0.1,0.9-0.4c0.3-0.3,0.4-0.6,0.4-0.9v-3.4H31.7v3.4
			C31.7,47.8,31.8,48.1,32.1,48.4z"/>
		<path d="M69.4,37.5l-5.1-8.9H53.9l-5.2,8.9l5.1,8.9h10.3L69.4,37.5z M63.2,37.5c0,2.3-1.9,4.1-4.1,4.1S55,39.7,55,37.5
			c0-2.3,1.9-4.1,4.1-4.1S63.2,35.2,63.2,37.5z"/>
	</g>
</g>
<g id="Labels" display="none">
	<rect y="82.7" display="inline" fill="none" width="97" height="15"/>
	<text transform="matrix(1 0 0 1 34.0566 91.835)" display="inline" font-family="'OpenSans'" font-size="12">parts</text>
</g>
</svg>
