<?xml version="1.0" encoding="utf-8"?>
<!-- Generator: Adobe Illustrator 17.1.0, SVG Export Plug-In . SVG Version: 6.00 Build 0)  -->
<!DOCTYPE svg PUBLIC "-//W3C//DTD SVG 1.1//EN" "http://www.w3.org/Graphics/SVG/1.1/DTD/svg11.dtd">
<svg version="1.1" xmlns="http://www.w3.org/2000/svg" xmlns:xlink="http://www.w3.org/1999/xlink" x="0px" y="0px"
	 viewBox="0 0 99 99" enable-background="new 0 0 99 99" xml:space="preserve">
<g id="icons">
	<path d="M40.6,47.4c0-5.5-4.5-10-10-10c-5.5,0-10,4.5-10,10c0,3.8,2.2,7.2,5.4,8.9l2,4.3l2.6,5.6l2.6-5.6l2-4.3
		C38.4,54.6,40.6,51.3,40.6,47.4L40.6,47.4z"/>
	<path fill="#FFFFFF" d="M30.6,43.9c1.9,0,3.5,1.6,3.5,3.5c0,1.9-1.6,3.5-3.5,3.5c-1.9,0-3.5-1.6-3.5-3.5
		C27.1,45.5,28.7,43.9,30.6,43.9L30.6,43.9z"/>
	<g>
		<g>
			<path fill="#FFFFFF" d="M70.7,43.9c-1.9,0-3.5,1.6-3.5,3.5c0,1.9,1.6,3.5,3.5,3.5c1.9,0,3.5-1.6,3.5-3.5
				C74.1,45.5,72.6,43.9,70.7,43.9z"/>
			<path d="M70.7,37.5c-5.5,0-10,4.5-10,10c0,3.8,2.2,7.2,5.4,8.9l2,4.3l2.6,5.6l2.6-5.6l2-4.3c3.2-1.7,5.4-5,5.4-8.9
				C80.6,41.9,76.2,37.5,70.7,37.5z M70.7,50.9c-1.9,0-3.5-1.6-3.5-3.5c0-1.9,1.6-3.5,3.5-3.5c1.9,0,3.5,1.6,3.5,3.5
				C74.1,49.4,72.6,50.9,70.7,50.9z"/>
		</g>
	</g>
	<rect x="38" y="51.5" width="26.3" height="2"/>
</g>
<g id="Labels" display="none">
	<rect x="1" y="83.7" display="inline" fill="none" width="97" height="15"/>
	<text transform="matrix(1 0 0 1 34.2598 92.835)" display="inline" font-family="'OpenSans'" font-size="12">route</text>
</g>
</svg>
