<?xml version="1.0" encoding="utf-8"?>
<!-- Generator: Adobe Illustrator 17.1.0, SVG Export Plug-In . SVG Version: 6.00 Build 0)  -->
<!DOCTYPE svg PUBLIC "-//W3C//DTD SVG 1.1//EN" "http://www.w3.org/Graphics/SVG/1.1/DTD/svg11.dtd">
<svg version="1.1" xmlns="http://www.w3.org/2000/svg" xmlns:xlink="http://www.w3.org/1999/xlink" x="0px" y="0px"
	 viewBox="0 0 99 99.1" enable-background="new 0 0 99 99.1" xml:space="preserve">
<g id="icons">
	<rect x="32.6" y="34.6" fill="#231F20" width="40" height="28"/>
	<rect x="36.9" y="41.1" fill="#FFFFFF" width="4.8" height="4.8"/>
	<rect x="43.5" y="41.1" fill="#FFFFFF" width="4.8" height="4.8"/>
	<rect x="50.1" y="41.1" fill="#FFFFFF" width="4.8" height="4.8"/>
	<rect x="56.7" y="41.1" fill="#FFFFFF" width="4.8" height="4.8"/>
	<rect x="63.4" y="41.1" fill="#FFFFFF" width="4.8" height="4.8"/>
	<rect x="36.9" y="47.8" fill="#FFFFFF" width="4.8" height="4.8"/>
	<rect x="43.5" y="47.8" fill="#FFFFFF" width="4.8" height="4.8"/>
	<rect x="50.1" y="47.8" fill="#FFFFFF" width="4.8" height="4.8"/>
	<rect x="56.7" y="47.8" fill="#FFFFFF" width="4.8" height="4.8"/>
	<rect x="63.4" y="47.8" fill="#FFFFFF" width="4.8" height="4.8"/>
	<rect x="36.9" y="54.5" fill="#FFFFFF" width="4.8" height="4.8"/>
	<rect x="43.5" y="54.5" fill="#FFFFFF" width="4.8" height="4.8"/>
	<rect x="50.1" y="54.5" fill="#FFFFFF" width="4.8" height="4.8"/>
	<rect x="56.7" y="54.5" fill="#FFFFFF" width="4.8" height="4.8"/>
	<rect x="63.4" y="54.5" fill="#FFFFFF" width="4.8" height="4.8"/>
	<polygon fill="#231F20" points="71.3,26.5 71.3,25.2 67.3,25.2 67.3,22.6 61.8,22.6 61.8,25.2 43.5,25.2 43.5,22.6 38,22.6 
		38,25.2 33.9,25.2 33.9,26.5 32.6,26.5 32.6,33.2 33.9,33.2 71.3,33.2 72.6,33.2 72.6,26.5 	"/>
</g>
<g id="Labels" display="none">
	<rect x="1" y="84" display="inline" fill="none" width="97" height="15"/>
	<text transform="matrix(1 0 0 1 10.5762 93.1201)" display="inline" font-family="'OpenSans'" font-size="12">calendar/date</text>
</g>
</svg>
