<?xml version="1.0" encoding="utf-8"?>
<!-- Generator: Adobe Illustrator 17.1.0, SVG Export Plug-In . SVG Version: 6.00 Build 0)  -->
<!DOCTYPE svg PUBLIC "-//W3C//DTD SVG 1.1//EN" "http://www.w3.org/Graphics/SVG/1.1/DTD/svg11.dtd">
<svg version="1.1" xmlns="http://www.w3.org/2000/svg" xmlns:xlink="http://www.w3.org/1999/xlink" x="0px" y="0px"
	 viewBox="0 0 99 99" enable-background="new 0 0 99 99" xml:space="preserve">
<g id="icons">
	<path fill="#231F20" d="M61.8,56.4c-1.5,0-2.8,0.6-3.7,1.7l-15.1-7.9c0.1-0.4,0.2-0.9,0.2-1.3c0-0.8-0.2-1.5-0.5-2.1L57.5,39
		c0.9,1.4,2.4,2.3,4.2,2.3c2.7,0,4.9-2.2,4.9-4.9c0-2.7-2.2-4.9-4.9-4.9s-4.9,2.2-4.9,4.9c0,0.4,0,0.7,0.1,1.1l-15.1,7.9
		c-0.9-0.9-2.1-1.5-3.5-1.5c-2.7,0-4.9,2.2-4.9,4.9c0,2.7,2.2,4.9,4.9,4.9c1.7,0,3.2-0.8,4.1-2.1l15,7.8c-0.2,0.6-0.4,1.2-0.4,1.9
		c0,2.7,2.2,4.9,4.9,4.9s4.9-2.2,4.9-4.9C66.7,58.6,64.5,56.4,61.8,56.4z"/>
</g>
<g id="Labels" display="none">
	<rect x="1" y="84" display="inline" fill="none" width="97" height="15"/>
	<text transform="matrix(1 0 0 1 10.2803 93.1201)" display="inline" font-family="'OpenSans'" font-size="12">android share</text>
</g>
</svg>
