<?xml version="1.0" encoding="utf-8"?>
<!-- Generator: Adobe Illustrator 17.1.0, SVG Export Plug-In . SVG Version: 6.00 Build 0)  -->
<!DOCTYPE svg PUBLIC "-//W3C//DTD SVG 1.1//EN" "http://www.w3.org/Graphics/SVG/1.1/DTD/svg11.dtd">
<svg version="1.1" xmlns="http://www.w3.org/2000/svg" xmlns:xlink="http://www.w3.org/1999/xlink" x="0px" y="0px"
	 viewBox="0 0 99 99" enable-background="new 0 0 99 99" xml:space="preserve">
<g id="icons">
	<path d="M43.2,45.7h15.1v-5c0-2.1-0.8-3.9-2.3-5.4c-1.5-1.2-3.3-2.3-5.4-2.3s-3.9,0.8-5.4,2.3c-1.2,1.5-2.1,3.3-2.1,5.4V45.7
		L43.2,45.7z M50.7,53.2c-1.7,0-3.1,1.5-3.1,3.1c0,1.2,0.8,2.5,1.9,2.9v2.1c0,0.6,0.6,1.2,1.2,1.2s1.2-0.6,1.2-1.2v-2.1
		c1-0.4,1.9-1.7,1.9-2.9C53.8,54.6,52.3,53.2,50.7,53.2L50.7,53.2z M61.9,45.7L61.9,45.7c2.1,0,3.7,1.7,3.7,3.7v16.4
		c0,2.1-1.7,3.7-3.7,3.7H39.5c-2.1,0-3.7-1.7-3.7-3.7V49.5c0-2.1,1.7-3.7,3.7-3.7v-5c0-3.1,1.2-6,3.3-7.9c2.1-2.1,4.8-3.3,7.9-3.3
		s6,1.2,7.9,3.3c2.1,2.1,3.3,4.8,3.3,7.9L61.9,45.7L61.9,45.7z"/>
</g>
<g id="Labels" display="none">
	<rect x="0.3" y="82.7" display="inline" fill="none" width="97" height="15"/>
	<text transform="matrix(1 0 0 1 30.6429 91.835)" display="inline" font-family="'OpenSans'" font-size="12">locked</text>
</g>
</svg>
