<?xml version="1.0" encoding="utf-8"?>
<!-- Generator: Adobe Illustrator 17.1.0, SVG Export Plug-In . SVG Version: 6.00 Build 0)  -->
<!DOCTYPE svg PUBLIC "-//W3C//DTD SVG 1.1//EN" "http://www.w3.org/Graphics/SVG/1.1/DTD/svg11.dtd">
<svg version="1.1" xmlns="http://www.w3.org/2000/svg" xmlns:xlink="http://www.w3.org/1999/xlink" x="0px" y="0px"
	 viewBox="0 0 99 99" enable-background="new 0 0 99 99" xml:space="preserve">
<g id="icons">
	<g>
		<path d="M47.8,57.5v-3.9h0c-2,0-3.9-0.7-5.4-2.2l0,0C41,50,40.1,48.1,40.1,46h-7.7h0c0,0.4,0,0.8,0,1.1c0,0,0,0.1,0,0.1
			c0.1,0.7,0.2,1.5,0.3,2.2c0,0,0,0.1,0,0.1c0.2,0.7,0.4,1.4,0.6,2.1c0,0,0,0.1,0,0.1c0.3,0.7,0.6,1.3,0.9,1.9c0,0,0,0.1,0.1,0.1
			c0.3,0.6,0.7,1.2,1.2,1.7c0,0,0.1,0.1,0.1,0.1c0.4,0.5,0.8,0.9,1.2,1.3l0,0c1.1,1.1,2.4,2.1,3.8,2.8c0,0,0.1,0,0.1,0.1
			c0.3,0.2,0.6,0.3,0.9,0.4c0,0,0,0,0,0c0.2,0.1,0.4,0.2,0.6,0.2c0,0,0.1,0,0.1,0c0.2,0.1,0.4,0.1,0.6,0.2c0,0,0.1,0,0.2,0
			c0.2,0.1,0.4,0.1,0.5,0.2c0.1,0,0.1,0,0.2,0.1c0.2,0,0.4,0.1,0.5,0.1c0.1,0,0.1,0,0.2,0c0.2,0,0.4,0.1,0.6,0.1c0.1,0,0.1,0,0.2,0
			c0.2,0,0.4,0.1,0.7,0.1c0,0,0.1,0,0.1,0c0.5,0.1,1,0.1,1.6,0.1L47.8,57.5C47.8,57.5,47.8,57.5,47.8,57.5L47.8,57.5L47.8,57.5z"/>
		<path d="M70.7,46c0-6.3-2.6-12.1-6.7-16.2C59.5,25.3,53.6,23,47.7,23l0,3.8h0v3.8c3.9,0,7.9,1.5,10.9,4.5v0
			c2.8,2.8,4.5,6.6,4.5,10.9h-3.8c0,3-1.1,5.9-3.4,8.2c-2.1,2.1-5,3.4-8.2,3.4v3.8v3.8c5.3,0,10.1-2.1,13.6-5.6
			C65.1,55.8,67,50.9,67,46h0H70.7z"/>
		<path d="M47.8,38.3c-4.2,0-7.7,3.4-7.7,7.7l0,0h7.7h7.7l0,0C55.4,41.8,52,38.3,47.8,38.3z"/>
	</g>
</g>
<g id="Labels" display="none">
	<rect x="1" y="81.6" display="inline" fill="none" width="97" height="15"/>
	<text transform="matrix(1 0 0 1 13.7783 90.6925)" display="inline" font-family="'OpenSans'" font-size="12">impact chain</text>
</g>
</svg>
