<?xml version="1.0" encoding="utf-8"?>
<!-- Generator: Adobe Illustrator 17.1.0, SVG Export Plug-In . SVG Version: 6.00 Build 0)  -->
<!DOCTYPE svg PUBLIC "-//W3C//DTD SVG 1.1//EN" "http://www.w3.org/Graphics/SVG/1.1/DTD/svg11.dtd">
<svg version="1.1" xmlns="http://www.w3.org/2000/svg" xmlns:xlink="http://www.w3.org/1999/xlink" x="0px" y="0px"
	 viewBox="0 0 99 99" enable-background="new 0 0 99 99" xml:space="preserve">
<g id="icons">
	<path d="M66.9,36l-0.1-3.9l-16.1,0.2l-2-4.6L38,32.6l-4.7,0.1l0,2l-15.3,6.7l14.1,32l13.4-5.9l0.1,0l26.6,5.3l6.9-34.3L66.9,36z
		 M45,61.8l-0.6,0.3l-4.6,2l-6,2.7l-1.9,0.8L20.8,42.4l12.6-5.6l2-0.9l3-1.3l4.7-2.1l4.6-2l0.8,1.9l0,0.1l0.9,2l0.1,0.2l9.3,21.1
		L45,61.8z M58.2,61.9l4.7-2.1L52,35.1l-0.3-0.7l6.6-0.1l6.6-0.1l0,1.4l0,2.1l0.4,24.1L58.2,61.9z M71.3,67.1l-4-0.8l-0.4-28.2
		l9.8,2L71.3,67.1z"/>
</g>
<g id="Labels" display="none">
	<rect x="1" y="82.7" display="inline" fill="none" width="97" height="15"/>
	<text transform="matrix(1 0 0 1 32.7744 91.835)" display="inline" font-family="'OpenSans'" font-size="12">photo</text>
</g>
</svg>
