<?xml version="1.0" encoding="utf-8"?>
<!-- Generator: Adobe Illustrator 17.1.0, SVG Export Plug-In . SVG Version: 6.00 Build 0)  -->
<!DOCTYPE svg PUBLIC "-//W3C//DTD SVG 1.1//EN" "http://www.w3.org/Graphics/SVG/1.1/DTD/svg11.dtd">
<svg version="1.1" xmlns="http://www.w3.org/2000/svg" xmlns:xlink="http://www.w3.org/1999/xlink" x="0px" y="0px"
	 viewBox="0 0 99 99" enable-background="new 0 0 99 99" xml:space="preserve">
<g id="icons">
	<g>
		<g>
			<path fill="#231F20" d="M39.2,46.1l-1.1-3.5h-5.3l-1.1,3.5h-3.3l5.2-14.7h3.8l5.2,14.7H39.2z M37.3,40c-1-3.2-1.5-4.9-1.7-5.4
				c-0.1-0.4-0.2-0.7-0.3-1c-0.2,0.9-0.9,3-1.9,6.3H37.3z"/>
			<path fill="#231F20" d="M40.9,67.3H30v-2l7-10.1h-6.8v-2.6h10.5v2l-7,10.1h7.2V67.3z"/>
		</g>
		<g>
			<polygon fill="#231F20" points="55.2,31.4 48.2,46.8 53.7,46.8 53.7,66 56.6,66 56.6,46.8 62.3,46.8 			"/>
			<polygon fill="#231F20" points="71.2,66 64.2,50.6 69.7,50.6 69.7,31.4 72.6,31.4 72.6,50.6 78.4,50.6 			"/>
		</g>
	</g>
</g>
<g id="Labels" display="none">
	<rect x="0.5" y="83" display="inline" fill="none" width="97" height="15"/>
	<text transform="matrix(1 0 0 1 37.9463 92.1201)" display="inline" font-family="'OpenSans'" font-size="12">sort</text>
</g>
</svg>
