<?xml version="1.0" encoding="utf-8"?>
<!-- Generator: Adobe Illustrator 17.1.0, SVG Export Plug-In . SVG Version: 6.00 Build 0)  -->
<!DOCTYPE svg PUBLIC "-//W3C//DTD SVG 1.1//EN" "http://www.w3.org/Graphics/SVG/1.1/DTD/svg11.dtd">
<svg version="1.1" xmlns="http://www.w3.org/2000/svg" xmlns:xlink="http://www.w3.org/1999/xlink" x="0px" y="0px"
	 viewBox="0 0 99 99" enable-background="new 0 0 99 99" xml:space="preserve">
<g id="icons">
	<path fill="#231F20" d="M71.9,51.4c0-11-9-20-20-20c-5.3,0-10.2,2.1-13.7,5.5l4.6,6c2.3-2.5,5.5-4,9.2-4c6.9,0,12.5,5.6,12.5,12.5
		h-5L68.1,63l8.7-11.6H71.9z M51.8,63.9c-6.9,0-12.5-5.6-12.5-12.5h5l-8.8-11.6l-8.7,11.6h5c0,11,9,20,20,20
		c5.3,0,10.1-2.1,13.7-5.5l-4.6-6C58.7,62.3,55.5,63.9,51.8,63.9"/>
</g>
<g id="Labels" display="none">
	<rect x="2" y="83" display="inline" fill="none" width="97" height="15"/>
	<text transform="matrix(1 0 0 1 30.291 92.1201)" display="inline" font-family="'OpenSans'" font-size="12">refresh</text>
</g>
</svg>
