<?xml version="1.0" encoding="utf-8"?>
<!-- Generator: Adobe Illustrator 17.1.0, SVG Export Plug-In . SVG Version: 6.00 Build 0)  -->
<!DOCTYPE svg PUBLIC "-//W3C//DTD SVG 1.1//EN" "http://www.w3.org/Graphics/SVG/1.1/DTD/svg11.dtd">
<svg version="1.1" xmlns="http://www.w3.org/2000/svg" xmlns:xlink="http://www.w3.org/1999/xlink" x="0px" y="0px"
	 viewBox="0 0 99 99" enable-background="new 0 0 99 99" xml:space="preserve">
<g id="icons">
	<g>
		<g>
			<path fill="#231F20" d="M66.6,33.6L52.2,48v21.7c0,0.8-0.5,1.4-1.1,1.7c-0.2,0.1-0.5,0.1-0.7,0.1c-0.5,0-1-0.2-1.3-0.6l-7.5-7.5
				c-0.4-0.4-0.6-0.8-0.6-1.3V48L26.6,33.6c-0.6-0.5-0.7-1.3-0.4-2c0.3-0.7,1-1.1,1.7-1.1h37.4c0.8,0,1.4,0.5,1.7,1.1
				C67.3,32.3,67.1,33.1,66.6,33.6z"/>
		</g>
		<circle fill="#1B9EBC" cx="63.6" cy="32.9" r="11.5"/>
		<polygon fill="#FFFFFF" points="69.8,29.6 68.1,27.8 61.5,34.4 59.2,32.1 57.4,33.8 59.7,36.1 59.7,36.1 61.5,37.9 63.2,36.1 
			63.2,36.1 		"/>
	</g>
</g>
<g id="Labels" display="none">
	<rect x="0.5" y="83" display="inline" fill="none" width="97" height="15"/>
	<text transform="matrix(1 0 0 1 13.6709 92.1201)" display="inline" font-family="'OpenSans'" font-size="12">filter applied</text>
</g>
</svg>
