<?xml version="1.0" encoding="utf-8"?>
<!-- Generator: Adobe Illustrator 17.1.0, SVG Export Plug-In . SVG Version: 6.00 Build 0)  -->
<!DOCTYPE svg PUBLIC "-//W3C//DTD SVG 1.1//EN" "http://www.w3.org/Graphics/SVG/1.1/DTD/svg11.dtd">
<svg version="1.1" xmlns="http://www.w3.org/2000/svg" xmlns:xlink="http://www.w3.org/1999/xlink" x="0px" y="0px"
	 viewBox="0 0 99 99" enable-background="new 0 0 99 99" xml:space="preserve">
<g id="icons">
	<g>
		<path d="M25.1,41.5c0,0,8.6-15.4,25-15.5c0,0,15.4-1.1,25,15.5c0,0-8.3,15.6-25,15.5C50.1,57,34.9,57.7,25.1,41.5z"/>
		<path fill="#FFFFFF" d="M50.1,41.5l2.4-7.7c-0.7-0.2-1.5-0.4-2.4-0.4c-4.5,0-8.1,3.6-8.1,8.1c0,4.5,3.6,8.1,8.1,8.1
			c4.5,0,8.1-3.6,8.1-8.1c0-1.2-0.3-2.4-0.8-3.5L50.1,41.5z"/>
	</g>
</g>
<g id="Labels" display="none">
	<rect x="1" y="82" display="inline" fill="none" width="97" height="15"/>
	<text transform="matrix(1 0 0 1 32.8389 91.1201)" display="inline" font-family="'OpenSans'" font-size="12">watch</text>
</g>
</svg>
