<?xml version="1.0" encoding="utf-8"?>
<!-- Generator: Adobe Illustrator 17.1.0, SVG Export Plug-In . SVG Version: 6.00 Build 0)  -->
<!DOCTYPE svg PUBLIC "-//W3C//DTD SVG 1.1//EN" "http://www.w3.org/Graphics/SVG/1.1/DTD/svg11.dtd">
<svg version="1.1" xmlns="http://www.w3.org/2000/svg" xmlns:xlink="http://www.w3.org/1999/xlink" x="0px" y="0px"
	 viewBox="0 0 99 99.1" enable-background="new 0 0 99 99.1" xml:space="preserve">
<g id="icons">
	<g>
		<path fill="#231F20" d="M50.6,58.5l-0.1,0c-0.6,0-1.2-0.5-1.3-1.2l-3.3-20.7L44,44.2c-0.2,0.6-0.7,1.1-1.4,1.1
			c-0.8,0-1.3-0.6-1.4-1.3l-0.9-6.7c-0.3,0.3-0.7,0.6-1.1,0.6H24.5c-0.8,0-1.5-0.7-1.5-1.5c0-0.8,0.7-1.5,1.5-1.5H38l1.4-4.6
			c0.2-0.6,0.8-1,1.4-1c0.8,0.1,1.3,0.6,1.4,1.3l0.8,5.6l1.8-7.2c0.2-0.6,0.7-1.1,1.4-1.1c0.8,0,1.3,0.5,1.4,1.2L51,50.1v0l3.9-14.6
			c0.2-0.6,0.7-1.1,1.4-1.1h11.3c0.5-0.9,1.4-1.5,2.5-1.5c1.6,0,2.9,1.3,2.9,2.9c0,1.6-1.3,2.9-2.9,2.9c-1,0-1.9-0.5-2.4-1.3H57.4
			L52,57.4C51.8,58.1,51.3,58.5,50.6,58.5z"/>
	</g>
</g>
<g id="Labels" display="none">
	<rect x="0" y="83" display="inline" fill="none" width="97" height="15"/>
	<text transform="matrix(1 0 0 1 11.6973 92.1201)" display="inline" font-family="'OpenSans'" font-size="12">pulse/activity</text>
</g>
</svg>
