<?xml version="1.0" encoding="utf-8"?>
<!-- Generator: Adobe Illustrator 17.1.0, SVG Export Plug-In . SVG Version: 6.00 Build 0)  -->
<!DOCTYPE svg PUBLIC "-//W3C//DTD SVG 1.1//EN" "http://www.w3.org/Graphics/SVG/1.1/DTD/svg11.dtd">
<svg version="1.1" xmlns="http://www.w3.org/2000/svg" xmlns:xlink="http://www.w3.org/1999/xlink" x="0px" y="0px"
	 viewBox="0 0 99 99.1" enable-background="new 0 0 99 99.1" xml:space="preserve">
<g id="icons">
	<polygon fill="#231F20" points="52.8,33.5 33.1,33.5 33.1,66.8 66.1,66.8 66.1,47 62,51.1 62,63.1 37,63.1 37,37.4 49.6,37.4 	"/>
	<polygon fill="#231F20" points="50.2,56.7 41.8,59.1 44.6,50.9 	"/>
	
		<rect x="46.1" y="39.1" transform="matrix(0.7071 -0.7071 0.7071 0.7071 -13.4727 53.5864)" fill="#231F20" width="23.7" height="7.9"/>
	<g>
		<g>
			
				<rect x="65" y="29.9" transform="matrix(0.7103 0.7039 -0.7039 0.7103 42.3669 -39.3354)" fill="#231F20" width="7.9" height="3.9"/>
			<g>
				<path fill="#231F20" d="M71.1,35.2c-0.3,0.3-0.7,0.3-1,0l-4.5-4.5c-0.3-0.3-0.3-0.7,0-1l1.9-1.9c0.3-0.3,0.7-0.3,1,0l4.5,4.5
					c0.3,0.3,0.3,0.7,0,1L71.1,35.2z"/>
			</g>
			<g>
				<path fill="#231F20" d="M71.9,34.5c-0.6,0.6-1.5,0.6-2.1,0L66.3,31c-0.6-0.6-0.6-1.5,0-2.1l1.1-1.1c0.6-0.6,1.5-0.6,2.1,0
					l3.5,3.5c0.6,0.6,0.6,1.5,0,2.1L71.9,34.5z"/>
			</g>
		</g>
	</g>
</g>
<g id="Labels" display="none">
	<rect x="0" y="82.9" display="inline" fill="none" width="97" height="15"/>
	<text transform="matrix(1 0 0 1 37.8213 91.9776)" display="inline" font-family="'OpenSans'" font-size="12">edit</text>
</g>
</svg>
