<?xml version="1.0" encoding="utf-8"?>
<!-- Generator: Adobe Illustrator 17.1.0, SVG Export Plug-In . SVG Version: 6.00 Build 0)  -->
<!DOCTYPE svg PUBLIC "-//W3C//DTD SVG 1.1//EN" "http://www.w3.org/Graphics/SVG/1.1/DTD/svg11.dtd">
<svg version="1.1" xmlns="http://www.w3.org/2000/svg" xmlns:xlink="http://www.w3.org/1999/xlink" x="0px" y="0px"
	 viewBox="0 0 99 99" enable-background="new 0 0 99 99" xml:space="preserve">
<g id="icons">
	<g>
		<g>
			<polygon fill="#231F20" points="49.3,65.2 56.6,61 56.6,57 49.3,61.2 			"/>
			<polygon fill="#231F20" points="49.3,52 56.6,47.8 56.6,43.8 49.3,48 			"/>
			<polygon fill="#231F20" points="49.3,58.6 56.6,54.4 56.6,50.4 49.3,54.6 			"/>
		</g>
		<polygon fill="#231F20" points="49.3,67.8 53,71.5 56.6,67.8 56.6,63.6 		"/>
		<path fill="#231F20" d="M43.7,31.9c3.1,0,5.6,2.5,5.6,5.6v7.9l7.3-4.2v-3.7c0-3.1,2.5-5.6,5.6-5.6v-4.3H43.7V31.9z"/>
	</g>
</g>
<g id="Labels" display="none">
	<rect x="2" y="84" display="inline" fill="none" width="97" height="15"/>
	<text transform="matrix(1 0 0 1 19.5918 93.1201)" display="inline" font-family="'OpenSans'" font-size="12">production</text>
</g>
</svg>
