<?xml version="1.0" encoding="utf-8"?>
<!-- Generator: Adobe Illustrator 17.1.0, SVG Export Plug-In . SVG Version: 6.00 Build 0)  -->
<!DOCTYPE svg PUBLIC "-//W3C//DTD SVG 1.1//EN" "http://www.w3.org/Graphics/SVG/1.1/DTD/svg11.dtd">
<svg version="1.1" xmlns="http://www.w3.org/2000/svg" xmlns:xlink="http://www.w3.org/1999/xlink" x="0px" y="0px"
	 viewBox="0 0 99 99" enable-background="new 0 0 99 99" xml:space="preserve">
<g id="icons">
	<path d="M71.5,50.8L56.9,25.4c-1.3-2.3-3.7-3.6-6.3-3.6c-2.6,0-5,1.4-6.3,3.6L29.6,50.8c-1.3,2.3-1.3,5,0,7.3
		c1.3,2.3,3.7,3.6,6.3,3.6h29.4c2.6,0,5-1.4,6.3-3.6C72.8,55.9,72.8,53.1,71.5,50.8z"/>
	<g>
		<path stroke="#FFFFFF" stroke-width="2.6318" stroke-miterlimit="10" d="M66.8,53.6L52.1,28.1c-0.3-0.6-0.9-0.9-1.6-0.9
			c-0.7,0-1.3,0.3-1.6,0.9L34.3,53.6c-0.3,0.6-0.3,1.3,0,1.8c0.3,0.6,0.9,0.9,1.6,0.9h29.4c0.6,0,1.2-0.3,1.6-0.9
			C67.1,54.8,67.1,54.1,66.8,53.6z"/>
		<circle fill="#FFFFFF" cx="50.6" cy="51.8" r="1.8"/>
		<path fill="#FFFFFF" d="M52.8,36.9l-1.7,12.3c-0.2,0-0.4-0.1-0.6-0.1c-0.2,0-0.4,0-0.6,0.1l-1.7-12.3c-0.2-1.3,0.7-2.4,2-2.6
			c1.3-0.2,2.4,0.7,2.6,2C52.9,36.5,52.9,36.7,52.8,36.9z"/>
	</g>
</g>
<g id="Labels" display="none">
	<rect x="1" y="84" display="inline" fill="none" width="97" height="15"/>
	<text transform="matrix(1 0 0 1 5.0332 93.1201)" display="inline" font-family="'OpenSans'" font-size="12">bottleneck/alert</text>
</g>
</svg>
