<?xml version="1.0" encoding="utf-8"?>
<!-- Generator: Adobe Illustrator 17.1.0, SVG Export Plug-In . SVG Version: 6.00 Build 0)  -->
<!DOCTYPE svg PUBLIC "-//W3C//DTD SVG 1.1//EN" "http://www.w3.org/Graphics/SVG/1.1/DTD/svg11.dtd">
<svg version="1.1" xmlns="http://www.w3.org/2000/svg" xmlns:xlink="http://www.w3.org/1999/xlink" x="0px" y="0px"
	 viewBox="0 0 99 99.1" enable-background="new 0 0 99 99.1" xml:space="preserve">
<g id="icons">
	<g>
		<circle cx="48.9" cy="44.9" r="20"/>
		<g>
			<path fill="#FFFFFF" d="M51.5,42.4v9.5c0,0.8,0.1,1.3,0.4,1.6c0.2,0.3,0.8,0.4,1.7,0.4v1.6h-9.5v-1.6h0.4c0.9,0,1.4-0.2,1.7-0.5
				c0.2-0.3,0.3-0.8,0.3-1.6v-4.6c0-0.8-0.1-1.3-0.4-1.6s-0.8-0.5-1.7-0.5h-0.4v-1.6L51.5,42.4z M46.3,37c0-0.8,0.3-1.4,0.8-2
				c0.5-0.6,1.2-0.8,2-0.8c0.8,0,1.4,0.3,2,0.8c0.5,0.5,0.8,1.2,0.8,2c0,0.8-0.3,1.4-0.8,2c-0.5,0.5-1.2,0.8-2,0.8
				c-0.8,0-1.5-0.3-2-0.8C46.6,38.4,46.3,37.8,46.3,37z"/>
		</g>
	</g>
</g>
<g id="Labels" display="none">
	<rect x="1" y="82" display="inline" fill="none" width="97" height="15"/>
	<text transform="matrix(1 0 0 1 38.6426 91.1201)" display="inline" font-family="'OpenSans'" font-size="12">info</text>
</g>
</svg>
