<?xml version="1.0" encoding="utf-8"?>
<!-- Generator: Adobe Illustrator 17.1.0, SVG Export Plug-In . SVG Version: 6.00 Build 0)  -->
<!DOCTYPE svg PUBLIC "-//W3C//DTD SVG 1.1//EN" "http://www.w3.org/Graphics/SVG/1.1/DTD/svg11.dtd">
<svg version="1.1" xmlns="http://www.w3.org/2000/svg" xmlns:xlink="http://www.w3.org/1999/xlink" x="0px" y="0px"
	 viewBox="0 0 99 99" enable-background="new 0 0 99 99" xml:space="preserve">
<g id="icons">
	<g>
		<path fill="#231F20" d="M50,59c-10.2,0-18.4-8.3-18.4-18.4c0-10.2,8.3-18.4,18.4-18.4s18.4,8.3,18.4,18.4C68.4,50.7,60.1,59,50,59
			z M50,24c-9.1,0-16.6,7.4-16.6,16.6S40.8,57.1,50,57.1c9.1,0,16.6-7.4,16.6-16.6S59.1,24,50,24z"/>
		<path fill="#231F20" d="M31.6,29.3L30,28.4c3.4-6.5,11.7-9.3,12.1-9.5l0.6,1.7C42.6,20.8,34.7,23.5,31.6,29.3z"/>
		<path fill="#231F20" d="M68.6,29.3c-3.1-5.8-11-8.5-11-8.6l0.6-1.7c0.4,0.1,8.7,3,12.1,9.5L68.6,29.3z"/>
		<polygon fill="#231F20" points="57.3,50.2 48.8,41.7 48.8,28.7 50.7,28.7 50.7,41 58.6,48.9 		"/>
	</g>
</g>
<g id="Labels" display="none">
	<rect x="2" y="83" display="inline" fill="none" width="97" height="15"/>
	<text transform="matrix(1 0 0 1 37.917 92.1201)" display="inline" font-family="'OpenSans'" font-size="12">time</text>
</g>
</svg>
