<?xml version="1.0" encoding="utf-8"?>
<!-- Generator: Adobe Illustrator 17.1.0, SVG Export Plug-In . SVG Version: 6.00 Build 0)  -->
<!DOCTYPE svg PUBLIC "-//W3C//DTD SVG 1.1//EN" "http://www.w3.org/Graphics/SVG/1.1/DTD/svg11.dtd">
<svg version="1.1" xmlns="http://www.w3.org/2000/svg" xmlns:xlink="http://www.w3.org/1999/xlink" x="0px" y="0px"
	 viewBox="0 0 99 99" enable-background="new 0 0 99 99" xml:space="preserve">
<g id="icons">
	<path d="M51.4,31l-19.9,8.7l-0.1,22.7L51.4,71l20-8.5V39.9L51.4,31z M51.4,33l16.6,7.4L61.9,43l-15.7-7.7L51.4,33z M50.7,68.7
		l-17.3-7.6l0.1-19.6L50.7,49V68.7z M35,40.2l6.6-2.9L57.2,45l-5.5,2.3L35,40.2z M69.5,61.2l-16.9,7.2V49l5.9-2.5v9.1l4.8-2.1v-9
		l6.2-2.6V61.2z"/>
</g>
<g id="Labels" display="none">
	<rect x="2" y="82.7" display="inline" fill="none" width="97" height="15"/>
	<text transform="matrix(1 0 0 1 26.1895 91.835)" display="inline" font-family="'OpenSans'" font-size="12">contents</text>
</g>
</svg>
