<?xml version="1.0" encoding="utf-8"?>
<!-- Generator: Adobe Illustrator 17.1.0, SVG Export Plug-In . SVG Version: 6.00 Build 0)  -->
<!DOCTYPE svg PUBLIC "-//W3C//DTD SVG 1.1//EN" "http://www.w3.org/Graphics/SVG/1.1/DTD/svg11.dtd">
<svg version="1.1" xmlns="http://www.w3.org/2000/svg" xmlns:xlink="http://www.w3.org/1999/xlink" x="0px" y="0px"
	 viewBox="0 0 99 99" enable-background="new 0 0 99 99" xml:space="preserve">
<g id="icons">
	<g>
		<path d="M50.7,53.5L70.3,39c-0.3-0.3-0.8-0.5-1.3-0.5H29.5c-0.5,0-1,0.2-1.4,0.5l19.6,14.6C48.6,54.1,49.9,54.1,50.7,53.5z"/>
		<path d="M50.8,57.1c-0.8,0.6-2.2,0.6-3.1,0l-20.2-15v20.2c0,1,0.9,1.8,2,1.8H69c1.1,0,2-0.8,2-1.8V42.1L50.8,57.1z"/>
	</g>
</g>
<g id="Labels" display="none">
	<rect x="2" y="82.9" display="inline" fill="none" width="97" height="15"/>
	<text transform="matrix(1 0 0 1 15.3496 91.9776)" display="inline" font-family="'OpenSans'" font-size="12">e-mail/share</text>
</g>
</svg>
