<?xml version="1.0" encoding="utf-8"?>
<!-- Generator: Adobe Illustrator 17.1.0, SVG Export Plug-In . SVG Version: 6.00 Build 0)  -->
<!DOCTYPE svg PUBLIC "-//W3C//DTD SVG 1.1//EN" "http://www.w3.org/Graphics/SVG/1.1/DTD/svg11.dtd">
<svg version="1.1" xmlns="http://www.w3.org/2000/svg" xmlns:xlink="http://www.w3.org/1999/xlink" x="0px" y="0px"
	 viewBox="0 0 99 99" enable-background="new 0 0 99 99" xml:space="preserve">
<g id="icons">
	<g>
		<path d="M38.8,31.4l-2.2,0c-0.4,0-0.7,0.3-0.7,0.7V67c0,0.4,0.3,0.7,0.7,0.7h2.2c0.4,0,0.7-0.3,0.7-0.7V32.2
			C39.5,31.8,39.2,31.4,38.8,31.4z"/>
		<path d="M41.7,34.8c0,5.6,0,11.3,0,16.9c8.2-9.3,16.5,5.9,24.7-3.4c0-5.6,0-11.3,0-16.9C58.2,40.7,49.9,25.5,41.7,34.8z"/>
	</g>
</g>
<g id="Labels" display="none">
	<rect y="82.7" display="inline" fill="none" width="97" height="15"/>
	<text transform="matrix(1 0 0 1 21.8311 91.835)" display="inline" font-family="'OpenSans'" font-size="12">flag/issue</text>
</g>
</svg>
