<?xml version="1.0" encoding="utf-8"?>
<!-- Generator: Adobe Illustrator 17.1.0, SVG Export Plug-In . SVG Version: 6.00 Build 0)  -->
<!DOCTYPE svg PUBLIC "-//W3C//DTD SVG 1.1//EN" "http://www.w3.org/Graphics/SVG/1.1/DTD/svg11.dtd">
<svg version="1.1" id="Layer_1" xmlns="http://www.w3.org/2000/svg" xmlns:xlink="http://www.w3.org/1999/xlink" x="0px" y="0px"
	 viewBox="0 0 99 99" enable-background="new 0 0 99 99" xml:space="preserve">
<linearGradient id="SVGID_1_" gradientUnits="userSpaceOnUse" x1="14.4982" y1="14.4982" x2="84.5017" y2="84.5018">
	<stop  offset="0" style="stop-color:#F98489"/>
	<stop  offset="1" style="stop-color:#E6383F"/>
</linearGradient>
<circle fill="url(#SVGID_1_)" cx="49.5" cy="49.5" r="49.5"/>
<path opacity="0.12" fill="#231F20" d="M49,75.8l19.5,19.5C84,88.8,95.5,74.7,98.3,57.6L70.2,29.5c0,0,0.3,5.2-1.7,14.8L62.2,38
	c0,0-1.6,5.1-6.4,12.5C48.4,61.9,49,65.4,49,65.4l5.2,5.2C51.2,73.8,49,75.8,49,75.8z"/>
<g>
	<linearGradient id="SVGID_2_" gradientUnits="userSpaceOnUse" x1="73.2901" y1="66.9311" x2="30.8846" y2="24.5256">
		<stop  offset="0.34" style="stop-color:#FFFFFF"/>
		<stop  offset="0.4244" style="stop-color:#FFF4F5"/>
		<stop  offset="0.5778" style="stop-color:#FFE5E7"/>
		<stop  offset="0.5799" style="stop-color:#FFFFFF"/>
	</linearGradient>
	<path fill="url(#SVGID_2_)" d="M70.7,30.5c0-0.4-0.2-0.8-0.6-1c-0.3-0.3-0.7-0.3-1.1-0.3c-6.5,1.3-13.4-0.3-18.8-4.3
		c-0.5-0.4-1.2-0.4-1.7,0c-5.4,4-12.3,5.6-18.8,4.3c-0.4-0.1-0.8,0-1.1,0.3c-0.3,0.3-0.5,0.6-0.6,1c-1.3,17.3,6.1,35.2,20.5,45
		c0.5,0.3,1.1,0.3,1.6,0C64.7,65.7,72.1,47.8,70.7,30.5z M50.3,69.3c-0.5,0.4-1.3,0.4-1.8,0C38.8,61.2,33.4,48.7,33,36.1
		c0-0.4,0.1-0.7,0.4-1c0.3-0.3,0.6-0.4,1-0.4c5,0,10-1.4,14.4-3.9c0.4-0.3,1-0.3,1.4,0c4.4,2.5,9.3,3.9,14.4,3.9
		c0.4,0,0.7,0.1,1,0.4c0.3,0.3,0.4,0.6,0.4,1C65.5,48.7,60.1,61.2,50.3,69.3z"/>
	<linearGradient id="SVGID_3_" gradientUnits="userSpaceOnUse" x1="71.9883" y1="68.2328" x2="29.5829" y2="25.8274">
		<stop  offset="0.34" style="stop-color:#FFFFFF"/>
		<stop  offset="0.4244" style="stop-color:#FFF4F5"/>
		<stop  offset="0.5778" style="stop-color:#FFE5E7"/>
		<stop  offset="0.5799" style="stop-color:#FFFFFF"/>
	</linearGradient>
	<path fill="url(#SVGID_3_)" d="M36.3,39.1c0.8,9.8,5,19.4,12.3,26.1c0.5,0.5,1.3,0.5,1.8,0c7.3-6.7,11.5-16.3,12.3-26.1
		c0-0.4-0.1-0.7-0.3-1c-0.2-0.3-0.5-0.4-0.9-0.5c-4-0.3-7.8-1.4-11.3-3.3c-0.4-0.2-0.8-0.2-1.2,0c-3.5,1.8-7.4,3-11.3,3.3
		c-0.4,0-0.7,0.2-0.9,0.5C36.3,38.4,36.2,38.7,36.3,39.1L36.3,39.1z"/>
</g>
</svg>
