<?xml version="1.0" encoding="utf-8"?>
<!-- Generator: Adobe Illustrator 17.1.0, SVG Export Plug-In . SVG Version: 6.00 Build 0)  -->
<!DOCTYPE svg PUBLIC "-//W3C//DTD SVG 1.1//EN" "http://www.w3.org/Graphics/SVG/1.1/DTD/svg11.dtd">
<svg version="1.1" id="Layer_1" xmlns="http://www.w3.org/2000/svg" xmlns:xlink="http://www.w3.org/1999/xlink" x="0px" y="0px"
	 viewBox="0 0 99 99" enable-background="new 0 0 99 99" xml:space="preserve">
<linearGradient id="SVGID_1_" gradientUnits="userSpaceOnUse" x1="14.4982" y1="14.4982" x2="84.5018" y2="84.5018">
	<stop  offset="0" style="stop-color:#F98489"/>
	<stop  offset="1" style="stop-color:#E6383F"/>
</linearGradient>
<circle fill="url(#SVGID_1_)" cx="49.5" cy="49.5" r="49.5"/>
<path opacity="0.12" fill="#231F20" d="M32.2,57.4l-8.5,4.3l4.9,4.9l-2.3,2.6l29.4,29.4c21.8-2.7,39.1-19.5,42.6-41L73.6,32.9
	l-5.1,4.3L57.5,26.1l-0.6,0.8l-0.8,20.4L41.9,33.1l8.2,24.6L42.4,57l-1.7-6.3l5.4-0.3L30.8,35.3l-2.4,16.1l7.7-0.4l-2.4,7.3
	L32.2,57.4z"/>
<g>
	<linearGradient id="SVGID_2_" gradientUnits="userSpaceOnUse" x1="75.336" y1="64.9783" x2="37.0859" y2="26.7282">
		<stop  offset="0.34" style="stop-color:#FFFFFF"/>
		<stop  offset="0.4244" style="stop-color:#FFF4F5"/>
		<stop  offset="0.5778" style="stop-color:#FFE5E7"/>
		<stop  offset="0.5799" style="stop-color:#FFFFFF"/>
	</linearGradient>
	<rect x="59.2" y="48.8" fill="url(#SVGID_2_)" width="14.4" height="14.4"/>
	<linearGradient id="SVGID_3_" gradientUnits="userSpaceOnUse" x1="83.3119" y1="57.0023" x2="45.0618" y2="18.7522">
		<stop  offset="0.34" style="stop-color:#FFFFFF"/>
		<stop  offset="0.4244" style="stop-color:#FFF4F5"/>
		<stop  offset="0.5778" style="stop-color:#FFE5E7"/>
		<stop  offset="0.5799" style="stop-color:#FFFFFF"/>
	</linearGradient>
	<rect x="59.2" y="32.9" fill="url(#SVGID_3_)" width="14.4" height="14.4"/>
	<linearGradient id="SVGID_4_" gradientUnits="userSpaceOnUse" x1="50.7631" y1="89.5511" x2="12.513" y2="51.301">
		<stop  offset="0.34" style="stop-color:#FFFFFF"/>
		<stop  offset="0.4244" style="stop-color:#FFF4F5"/>
		<stop  offset="0.5778" style="stop-color:#FFE5E7"/>
		<stop  offset="0.5799" style="stop-color:#FFFFFF"/>
	</linearGradient>
	<path fill="url(#SVGID_4_)" d="M30.8,66.6c0,1.7-1.3,3-3,3c-1.7,0-3-1.3-3-3c0-1.7,1.3-3,3-3C29.4,63.6,30.8,64.9,30.8,66.6"/>
	<linearGradient id="SVGID_5_" gradientUnits="userSpaceOnUse" x1="62.1968" y1="78.1174" x2="23.9467" y2="39.8674">
		<stop  offset="0.34" style="stop-color:#FFFFFF"/>
		<stop  offset="0.4244" style="stop-color:#FFF4F5"/>
		<stop  offset="0.5778" style="stop-color:#FFE5E7"/>
		<stop  offset="0.5799" style="stop-color:#FFFFFF"/>
	</linearGradient>
	<path fill="url(#SVGID_5_)" d="M53.6,66.6c0,1.7-1.3,3-3,3c-1.7,0-3-1.3-3-3c0-1.7,1.3-3,3-3C52.3,63.6,53.6,64.9,53.6,66.6"/>
	<linearGradient id="SVGID_6_" gradientUnits="userSpaceOnUse" x1="68.4907" y1="71.8235" x2="30.2406" y2="33.5734">
		<stop  offset="0.34" style="stop-color:#FFFFFF"/>
		<stop  offset="0.4244" style="stop-color:#FFF4F5"/>
		<stop  offset="0.5778" style="stop-color:#FFE5E7"/>
		<stop  offset="0.5799" style="stop-color:#FFFFFF"/>
	</linearGradient>
	<path fill="url(#SVGID_6_)" d="M57.5,65.1v-39h-2v29.4h-4.6l-8.9-22.4H26.3v22.4h-2.6v6.3h7.7l2.1,5.7h11.5l2.1-5.7h8.4v3.4v2h2
		h17.9v-2H57.5z M30.8,49.1V35.3h9.6L46,49.1H30.8z"/>
</g>
</svg>
