<?xml version="1.0" encoding="utf-8"?>
<!-- Generator: Adobe Illustrator 17.1.0, SVG Export Plug-In . SVG Version: 6.00 Build 0)  -->
<!DOCTYPE svg PUBLIC "-//W3C//DTD SVG 1.1//EN" "http://www.w3.org/Graphics/SVG/1.1/DTD/svg11.dtd">
<svg version="1.1" id="Layer_1" xmlns="http://www.w3.org/2000/svg" xmlns:xlink="http://www.w3.org/1999/xlink" x="0px" y="0px"
	 viewBox="0 0 99 99" enable-background="new 0 0 99 99" xml:space="preserve">
<linearGradient id="SVGID_1_" gradientUnits="userSpaceOnUse" x1="14.4982" y1="14.4982" x2="84.5018" y2="84.5018">
	<stop  offset="0" style="stop-color:#F98489"/>
	<stop  offset="1" style="stop-color:#E6383F"/>
</linearGradient>
<circle fill="url(#SVGID_1_)" cx="49.5" cy="49.5" r="49.5"/>
<path opacity="0.12" fill="#231F20" d="M32.5,57.5l8.3,8.3l-1.4,1.3l7.8,7.8l-4.5,6.2L59.6,98c18.1-3.7,32.6-17.4,37.5-35L73.5,39.4
	l-2.1,2.8c-2-4.3-8.9-4.5-8.9-4.5s-0.2-5.6-10.6-9.1c-7.2-2.4-12.8,4.3-15.6,8.6l-4.9,3.7c0,0-7.4,1.9-6.9,7S32.5,57.5,32.5,57.5z"
	/>
<g>
	<linearGradient id="SVGID_2_" gradientUnits="userSpaceOnUse" x1="68.0757" y1="84.4215" x2="17.5559" y2="33.9016">
		<stop  offset="0.34" style="stop-color:#FFFFFF"/>
		<stop  offset="0.4244" style="stop-color:#FFF4F5"/>
		<stop  offset="0.5778" style="stop-color:#FFE5E7"/>
		<stop  offset="0.5799" style="stop-color:#FFFFFF"/>
	</linearGradient>
	<polygon fill-rule="evenodd" clip-rule="evenodd" fill="url(#SVGID_2_)" points="45.1,51.3 56.4,51.3 49.6,62.6 57.6,62.6 
		42.8,80.7 46.9,67.1 39.4,67.1 	"/>
	<linearGradient id="SVGID_3_" gradientUnits="userSpaceOnUse" x1="77.5368" y1="74.9604" x2="27.017" y2="24.4405">
		<stop  offset="0.34" style="stop-color:#FFFFFF"/>
		<stop  offset="0.4244" style="stop-color:#FFF4F5"/>
		<stop  offset="0.5778" style="stop-color:#FFE5E7"/>
		<stop  offset="0.5799" style="stop-color:#FFFFFF"/>
	</linearGradient>
	<path fill="url(#SVGID_3_)" d="M64.6,35c-0.4,0-0.9,0-1.3,0.1c-2.5-5.7-8.1-9.7-14.7-9.7c-7.8,0-14.3,5.5-15.7,12.9
		c-0.1,0-0.2,0-0.3,0c-5.3,0-9.6,4.3-9.6,9.6c0,5.3,4.3,9.6,9.6,9.6v-4.2c-3,0-5.5-2.4-5.5-5.5c0-3,2.4-5.4,5.4-5.5
		c0.1,0,0.2,0,0.3,0l3.5,0.1l0.7-3.5c1.1-5.5,6-9.5,11.6-9.5c4.7,0,9,2.8,10.9,7.2l1.2,2.9l3.1-0.4c0.3,0,0.6-0.1,0.8-0.1
		c3.9,0,7.1,3.2,7.1,7.1c0,3.9-3.2,7.1-7.1,7.1v4.2c6.2,0,11.2-5,11.2-11.2C75.8,40.1,70.8,35,64.6,35z"/>
</g>
</svg>
