<?xml version="1.0" encoding="utf-8"?>
<!-- Generator: Adobe Illustrator 17.1.0, SVG Export Plug-In . SVG Version: 6.00 Build 0)  -->
<!DOCTYPE svg PUBLIC "-//W3C//DTD SVG 1.1//EN" "http://www.w3.org/Graphics/SVG/1.1/DTD/svg11.dtd">
<svg version="1.1" id="Layer_1" xmlns="http://www.w3.org/2000/svg" xmlns:xlink="http://www.w3.org/1999/xlink" x="0px" y="0px"
	 viewBox="0 0 99 99.1" enable-background="new 0 0 99 99.1" xml:space="preserve">
<linearGradient id="SVGID_1_" gradientUnits="userSpaceOnUse" x1="-2.797446e-05" y1="49.5713" x2="99" y2="49.5713">
	<stop  offset="0" style="stop-color:#484949"/>
	<stop  offset="1" style="stop-color:#2A2724"/>
</linearGradient>
<rect x="0" fill="url(#SVGID_1_)" width="99" height="99.1"/>
<polygon opacity="0.2" fill="#231F20" points="50.8,99.1 99,99.1 99,46.5 86.4,34 33.8,52.1 24.3,42.7 22,48.5 16.4,43.9 13.2,49.8 
	18.4,53 13.9,56.8 14.5,58.8 11.5,59.8 "/>
<g>
	<linearGradient id="SVGID_2_" gradientUnits="userSpaceOnUse" x1="65.4129" y1="105.9586" x2="-7.3582" y2="33.1875">
		<stop  offset="0.34" style="stop-color:#FFFFFF"/>
		<stop  offset="0.4244" style="stop-color:#FFF4F5"/>
		<stop  offset="0.5778" style="stop-color:#FFE5E7"/>
		<stop  offset="0.5799" style="stop-color:#FFFFFF"/>
	</linearGradient>
	<circle fill="url(#SVGID_2_)" cx="19.2" cy="59.7" r="2.8"/>
	<linearGradient id="SVGID_3_" gradientUnits="userSpaceOnUse" x1="72.1969" y1="99.1745" x2="-0.5741" y2="26.4034">
		<stop  offset="0.34" style="stop-color:#FFFFFF"/>
		<stop  offset="0.4244" style="stop-color:#FFF4F5"/>
		<stop  offset="0.5778" style="stop-color:#FFE5E7"/>
		<stop  offset="0.5799" style="stop-color:#FFFFFF"/>
	</linearGradient>
	<circle fill="url(#SVGID_3_)" cx="32.7" cy="59.7" r="2.8"/>
	<linearGradient id="SVGID_4_" gradientUnits="userSpaceOnUse" x1="76.3596" y1="95.0118" x2="3.5886" y2="22.2407">
		<stop  offset="0.34" style="stop-color:#FFFFFF"/>
		<stop  offset="0.4244" style="stop-color:#FFF4F5"/>
		<stop  offset="0.5778" style="stop-color:#FFE5E7"/>
		<stop  offset="0.5799" style="stop-color:#FFFFFF"/>
	</linearGradient>
	<circle fill="url(#SVGID_4_)" cx="41.1" cy="59.7" r="2.8"/>
	<linearGradient id="SVGID_5_" gradientUnits="userSpaceOnUse" x1="88.8489" y1="82.5225" x2="16.0779" y2="9.7515">
		<stop  offset="0.34" style="stop-color:#FFFFFF"/>
		<stop  offset="0.4244" style="stop-color:#FFF4F5"/>
		<stop  offset="0.5778" style="stop-color:#FFE5E7"/>
		<stop  offset="0.5799" style="stop-color:#FFFFFF"/>
	</linearGradient>
	<circle fill="url(#SVGID_5_)" cx="66" cy="59.7" r="2.8"/>
	<linearGradient id="SVGID_6_" gradientUnits="userSpaceOnUse" x1="93.0116" y1="78.3598" x2="20.2406" y2="5.5888">
		<stop  offset="0.34" style="stop-color:#FFFFFF"/>
		<stop  offset="0.4244" style="stop-color:#FFF4F5"/>
		<stop  offset="0.5778" style="stop-color:#FFE5E7"/>
		<stop  offset="0.5799" style="stop-color:#FFFFFF"/>
	</linearGradient>
	<circle fill="url(#SVGID_6_)" cx="74.4" cy="59.7" r="2.8"/>
	<linearGradient id="SVGID_7_" gradientUnits="userSpaceOnUse" x1="80.1704" y1="91.2011" x2="7.3993" y2="18.43">
		<stop  offset="0.34" style="stop-color:#FFFFFF"/>
		<stop  offset="0.4244" style="stop-color:#FFF4F5"/>
		<stop  offset="0.5778" style="stop-color:#FFE5E7"/>
		<stop  offset="0.5799" style="stop-color:#FFFFFF"/>
	</linearGradient>
	<path fill="url(#SVGID_7_)" d="M25.3,55.1h-1V42.7H17h-1.6l-3.9,8v9.1h4c0-2,1.6-3.6,3.6-3.6s3.6,1.6,3.6,3.6h1h3h2.4
		c0-2,1.6-3.6,3.6-3.6s3.6,1.6,3.6,3.6h1.1c0-2,1.6-3.6,3.6-3.6c2,0,3.6,1.6,3.6,3.6h17.8c0-2,1.6-3.6,3.6-3.6s3.6,1.6,3.6,3.6h1.1
		c0-2,1.6-3.6,3.6-3.6s3.6,1.6,3.6,3.6h3.2v-4.6H25.3 M25.3,54.5L25.3,54.5 M19.2,48.5h-4.7l1.9-4.6h2.8V48.5z"/>
	<linearGradient id="SVGID_8_" gradientUnits="userSpaceOnUse" x1="91.745" y1="79.6264" x2="18.974" y2="6.8554">
		<stop  offset="0.34" style="stop-color:#FFFFFF"/>
		<stop  offset="0.4244" style="stop-color:#FFF4F5"/>
		<stop  offset="0.5778" style="stop-color:#FFE5E7"/>
		<stop  offset="0.5799" style="stop-color:#FFFFFF"/>
	</linearGradient>
	<rect x="25.5" y="34" fill="url(#SVGID_8_)" width="60.9" height="19.8"/>
</g>
</svg>
