<?xml version="1.0" encoding="utf-8"?>
<!-- Generator: Adobe Illustrator 17.1.0, SVG Export Plug-In . SVG Version: 6.00 Build 0)  -->
<!DOCTYPE svg PUBLIC "-//W3C//DTD SVG 1.1//EN" "http://www.w3.org/Graphics/SVG/1.1/DTD/svg11.dtd">
<svg version="1.1" id="Layer_1" xmlns="http://www.w3.org/2000/svg" xmlns:xlink="http://www.w3.org/1999/xlink" x="0px" y="0px"
	 viewBox="0 0 99 99.1" enable-background="new 0 0 99 99.1" xml:space="preserve">
<linearGradient id="SVGID_1_" gradientUnits="userSpaceOnUse" x1="-3.000101e-05" y1="49.5713" x2="99" y2="49.5713">
	<stop  offset="0" style="stop-color:#CCCCCC"/>
	<stop  offset="1" style="stop-color:#777777"/>
</linearGradient>
<rect x="0" y="0" fill="url(#SVGID_1_)" width="99" height="99.1"/>
<polygon opacity="0.12" fill="#231F20" points="52.6,99.1 99,99.1 99,52.2 86.5,39.7 50.2,39.8 49.7,39.2 49.1,39.8 43.9,39.8 
	43.3,39.2 42.7,39.8 20.8,39.8 20.4,41.4 31.5,52.5 14.2,57.3 16.3,59.4 13.6,60.1 "/>
<g>
	<linearGradient id="SVGID_2_" gradientUnits="userSpaceOnUse" x1="98.6626" y1="69.8564" x2="27.8145" y2="-0.9918">
		<stop  offset="0.34" style="stop-color:#FFFFFF"/>
		<stop  offset="0.4244" style="stop-color:#FFF4F5"/>
		<stop  offset="0.5778" style="stop-color:#FFE5E7"/>
		<stop  offset="0.5799" style="stop-color:#FFFFFF"/>
	</linearGradient>
	<rect x="52.5" y="39.7" fill="url(#SVGID_2_)" width="34" height="1.9"/>
	<g>
		<linearGradient id="SVGID_3_" gradientUnits="userSpaceOnUse" x1="79.6316" y1="88.8874" x2="8.7835" y2="18.0392">
			<stop  offset="0.34" style="stop-color:#FFFFFF"/>
			<stop  offset="0.4244" style="stop-color:#FFF4F5"/>
			<stop  offset="0.5778" style="stop-color:#FFE5E7"/>
			<stop  offset="0.5799" style="stop-color:#FFFFFF"/>
		</linearGradient>
		<rect x="13.7" y="59.1" fill="url(#SVGID_3_)" width="73.2" height="0.9"/>
		<linearGradient id="SVGID_4_" gradientUnits="userSpaceOnUse" x1="84.4155" y1="84.1036" x2="13.5673" y2="13.2554">
			<stop  offset="0.34" style="stop-color:#FFFFFF"/>
			<stop  offset="0.4244" style="stop-color:#FFF4F5"/>
			<stop  offset="0.5778" style="stop-color:#FFE5E7"/>
			<stop  offset="0.5799" style="stop-color:#FFFFFF"/>
		</linearGradient>
		<path fill="url(#SVGID_4_)" d="M19.3,59.1c1,0,1.8-0.8,1.8-1.8h1.2c0,1,0.8,1.8,1.8,1.8c1,0,1.8-0.8,1.8-1.8h0.4h15.4
			c0,1,0.8,1.8,1.8,1.8c1,0,1.8-0.8,1.8-1.8h1.2c0,1,0.8,1.8,1.8,1.8s1.8-0.8,1.8-1.8h1.3v-0.9h1.1v0.9h4c0,1,0.8,1.8,1.8,1.8
			c1,0,1.8-0.8,1.8-1.8h1.2c0,1,0.8,1.8,1.8,1.8c1,0,1.8-0.8,1.8-1.8h9.3c0,1,0.8,1.8,1.8,1.8s1.8-0.8,1.8-1.8h1.2
			c0,1,0.8,1.8,1.8,1.8s1.8-0.8,1.8-1.8h4V42.8H52.5v10.7h-1.1V42.8H29.8v-1.2h21.6v-1.9h-1.8v-0.5h-5.2v0.5h-1.1v-0.5h-3.9v0.5h-13
			h-0.4H20l-1.9,4.5l-4,2v11h3.4C17.6,58.3,18.4,59.1,19.3,59.1z M24.3,41.4h3.3v1.5h-3.3V41.4z M20.4,41.4h3.3v1.5h-3.8L20.4,41.4z
			"/>
	</g>
</g>
</svg>
