<?xml version="1.0" encoding="utf-8"?>
<!-- Generator: Adobe Illustrator 17.1.0, SVG Export Plug-In . SVG Version: 6.00 Build 0)  -->
<!DOCTYPE svg PUBLIC "-//W3C//DTD SVG 1.1//EN" "http://www.w3.org/Graphics/SVG/1.1/DTD/svg11.dtd">
<svg version="1.1" id="Layer_1" xmlns="http://www.w3.org/2000/svg" xmlns:xlink="http://www.w3.org/1999/xlink" x="0px" y="0px"
	 viewBox="0 0 99 99.1" enable-background="new 0 0 99 99.1" xml:space="preserve">
<linearGradient id="SVGID_1_" gradientUnits="userSpaceOnUse" x1="-3.453096e-05" y1="49.5713" x2="99" y2="49.5713">
	<stop  offset="0" style="stop-color:#484949"/>
	<stop  offset="1" style="stop-color:#2A2724"/>
</linearGradient>
<rect x="0" y="0" fill="url(#SVGID_1_)" width="99" height="99.1"/>
<polygon opacity="0.2" fill="#231F20" points="61.1,99.1 99,99.1 99,56.8 77,34.7 74,49.1 61.5,36.6 62.2,53.5 61.8,53.6 50.8,42.6 
	46.7,43.2 41.8,38.3 24,38.2 31.1,45.4 24.1,46.3 33.1,55.4 18.1,56.1 "/>
<g>
	<linearGradient id="SVGID_2_" gradientUnits="userSpaceOnUse" x1="68.2975" y1="84.4293" x2="17.5469" y2="33.6787">
		<stop  offset="0.34" style="stop-color:#FFFFFF"/>
		<stop  offset="0.4244" style="stop-color:#FFF4F5"/>
		<stop  offset="0.5778" style="stop-color:#FFE5E7"/>
		<stop  offset="0.5799" style="stop-color:#FFFFFF"/>
	</linearGradient>
	<rect x="24.1" y="42.6" fill="url(#SVGID_2_)" width="8.6" height="3.8"/>
	<linearGradient id="SVGID_3_" gradientUnits="userSpaceOnUse" x1="72.8306" y1="79.8963" x2="22.08" y2="29.1457">
		<stop  offset="0.34" style="stop-color:#FFFFFF"/>
		<stop  offset="0.4244" style="stop-color:#FFF4F5"/>
		<stop  offset="0.5778" style="stop-color:#FFE5E7"/>
		<stop  offset="0.5799" style="stop-color:#FFFFFF"/>
	</linearGradient>
	<rect x="33.1" y="42.6" fill="url(#SVGID_3_)" width="8.6" height="3.8"/>
	<linearGradient id="SVGID_4_" gradientUnits="userSpaceOnUse" x1="70.4686" y1="82.2583" x2="19.718" y2="31.5076">
		<stop  offset="0.34" style="stop-color:#FFFFFF"/>
		<stop  offset="0.4244" style="stop-color:#FFF4F5"/>
		<stop  offset="0.5778" style="stop-color:#FFE5E7"/>
		<stop  offset="0.5799" style="stop-color:#FFFFFF"/>
	</linearGradient>
	<rect x="24.1" y="38.3" fill="url(#SVGID_4_)" width="8.6" height="3.8"/>
	<linearGradient id="SVGID_5_" gradientUnits="userSpaceOnUse" x1="75.0017" y1="77.7252" x2="24.2511" y2="26.9746">
		<stop  offset="0.34" style="stop-color:#FFFFFF"/>
		<stop  offset="0.4244" style="stop-color:#FFF4F5"/>
		<stop  offset="0.5778" style="stop-color:#FFE5E7"/>
		<stop  offset="0.5799" style="stop-color:#FFFFFF"/>
	</linearGradient>
	<rect x="33.1" y="38.3" fill="url(#SVGID_5_)" width="8.6" height="3.8"/>
	<linearGradient id="SVGID_6_" gradientUnits="userSpaceOnUse" x1="77.3637" y1="75.3632" x2="26.613" y2="24.6126">
		<stop  offset="0.34" style="stop-color:#FFFFFF"/>
		<stop  offset="0.4244" style="stop-color:#FFF4F5"/>
		<stop  offset="0.5778" style="stop-color:#FFE5E7"/>
		<stop  offset="0.5799" style="stop-color:#FFFFFF"/>
	</linearGradient>
	<rect x="42.2" y="42.6" fill="url(#SVGID_6_)" width="8.6" height="3.8"/>
	<linearGradient id="SVGID_7_" gradientUnits="userSpaceOnUse" x1="77.4471" y1="75.2797" x2="26.6965" y2="24.5291">
		<stop  offset="0.34" style="stop-color:#FFFFFF"/>
		<stop  offset="0.4244" style="stop-color:#FFF4F5"/>
		<stop  offset="0.5778" style="stop-color:#FFE5E7"/>
		<stop  offset="0.5799" style="stop-color:#FFFFFF"/>
	</linearGradient>
	<path fill="url(#SVGID_7_)" d="M84.8,45.1h-3.1l0-4.8l-2.9,0L77,34.7h-3.1v5.4l-1.5,0l-1.1-4.1H61v9h-2.6l-1,1.9H24l-2.6-2L14,45
		l0.2,2.8l4,8.3l57.3,0h2.9h2.8c0,0-0.7-2.3,1.8-4.1c1.9-1.3,1.8-3.6,1.8-3.6L84.8,45.1z M67.9,39.4H62v-2.3h5.9V39.4z"/>
</g>
</svg>
