<?xml version="1.0" encoding="utf-8"?>
<!-- Generator: Adobe Illustrator 17.1.0, SVG Export Plug-In . SVG Version: 6.00 Build 0)  -->
<!DOCTYPE svg PUBLIC "-//W3C//DTD SVG 1.1//EN" "http://www.w3.org/Graphics/SVG/1.1/DTD/svg11.dtd">
<svg version="1.1" id="Layer_1" xmlns="http://www.w3.org/2000/svg" xmlns:xlink="http://www.w3.org/1999/xlink" x="0px" y="0px"
	 viewBox="0 0 99 99" enable-background="new 0 0 99 99" xml:space="preserve">
<linearGradient id="SVGID_1_" gradientUnits="userSpaceOnUse" x1="14.4982" y1="14.4982" x2="84.5017" y2="84.5018">
	<stop  offset="0" style="stop-color:#CCCCCC"/>
	<stop  offset="1" style="stop-color:#777777"/>
</linearGradient>
<circle fill="url(#SVGID_1_)" cx="49.5" cy="49.5" r="49.5"/>
<path opacity="0.12" fill="#231F20" d="M96.6,64.8L70.6,38.9l-3.8,7.7l-6.1,15.6l-4.6,3.8L33,66.3l-1.7,1l30.2,30.2
	C78.1,93.4,91.3,80.9,96.6,64.8z"/>
<g>
	<linearGradient id="SVGID_2_" gradientUnits="userSpaceOnUse" x1="72.7201" y1="74.1865" x2="31.18" y2="32.6464">
		<stop  offset="0.34" style="stop-color:#FFFFFF"/>
		<stop  offset="0.4244" style="stop-color:#FFF4F5"/>
		<stop  offset="0.5778" style="stop-color:#FFE5E7"/>
		<stop  offset="0.5799" style="stop-color:#FFFFFF"/>
	</linearGradient>
	<path fill="url(#SVGID_2_)" d="M48.7,34.4c-4.2,0-8.2,1.6-11.1,4.6c-3,3-4.6,6.9-4.6,11.1c0,4.2,1.6,8.2,4.6,11.1
		c3,3,6.9,4.6,11.1,4.6c4.2,0,8.2-1.6,11.1-4.6c3-3,4.6-6.9,4.6-11.1c0-4.2-1.6-8.2-4.6-11.1C56.9,36,52.9,34.4,48.7,34.4z
		 M49.4,35.4c2.7,0.1,5.2,1,7.3,2.4c-1,2-4.9,6-6,7.2c-0.2-0.1-0.5-0.2-0.8-0.2C49.8,43.2,49.1,37.6,49.4,35.4z M51.2,50.4
		c0.3-0.5,0.9-0.7,1.4-0.4c0.5,0.3,0.7,0.9,0.4,1.4c-0.3,0.5-0.9,0.7-1.4,0.4C51,51.5,50.9,50.9,51.2,50.4z M50.1,48.1
		c-0.3-0.5-0.1-1.1,0.4-1.4c0.5-0.3,1.1-0.1,1.4,0.4c0.3,0.5,0.1,1.1-0.4,1.4C51,48.8,50.4,48.6,50.1,48.1z M48.7,46.9
		c0,0.6-0.5,1-1,1c-0.6,0-1-0.5-1-1c0-0.6,0.5-1,1-1C48.2,45.8,48.7,46.3,48.7,46.9z M45.8,51.8c0.5-0.3,1.1-0.1,1.4,0.4
		c0.3,0.5,0.1,1.1-0.4,1.4c-0.5,0.3-1.1,0.1-1.4-0.4C45.2,52.7,45.3,52.1,45.8,51.8z M44.8,50.3c-0.5-0.3-0.7-0.9-0.4-1.4
		c0.3-0.5,0.9-0.7,1.4-0.4c0.5,0.3,0.7,0.9,0.4,1.4C45.9,50.4,45.3,50.6,44.8,50.3z M48,35.4c0.4,2.2-0.4,7.7-0.6,9.3
		c-0.3,0.1-0.5,0.1-0.8,0.2c-1.1-1.2-5-5.2-6-7.2C42.8,36.4,45.3,35.6,48,35.4z M39.4,38.7c1.6,1.6,4.3,6.5,5,7.9
		c-0.2,0.2-0.3,0.4-0.5,0.6c-1.6-0.3-7.1-1.3-9.1-2.3C35.8,42.4,37.4,40.3,39.4,38.7z M33.9,50.2c0-1.3,0.2-2.6,0.5-3.9
		c2.2,0.3,7.3,2.7,8.7,3.5c0,0.1,0,0.3,0,0.4c0,0.1,0,0.3,0,0.4c-1.4,0.7-6.5,3.1-8.7,3.5C34.1,52.8,33.9,51.5,33.9,50.2z
		 M34.9,55.4c2-1,7.5-2,9.1-2.3c0.1,0.2,0.3,0.4,0.5,0.6c-0.8,1.4-3.4,6.3-5,7.9C37.4,60,35.8,57.9,34.9,55.4z M48,64.9
		c-2.7-0.1-5.2-1-7.3-2.4c1-2,4.9-6,6-7.2c0.2,0.1,0.5,0.2,0.8,0.2C47.6,57.1,48.3,62.7,48,64.9z M46.9,50.2c0-1,0.8-1.8,1.8-1.8
		c1,0,1.8,0.8,1.8,1.8c0,1-0.8,1.8-1.8,1.8C47.7,51.9,46.9,51.1,46.9,50.2z M48.7,53.4c0-0.6,0.5-1,1-1c0.6,0,1,0.5,1,1
		c0,0.6-0.5,1-1,1C49.1,54.5,48.7,54,48.7,53.4z M49.4,64.9c-0.4-2.2,0.4-7.7,0.6-9.3c0.3-0.1,0.5-0.1,0.8-0.2c1.1,1.2,5,5.2,6,7.2
		C54.6,63.9,52.1,64.8,49.4,64.9z M57.9,61.6c-1.6-1.6-4.3-6.5-5-7.9c0.2-0.2,0.3-0.4,0.5-0.6c1.6,0.3,7.1,1.3,9.1,2.3
		C61.5,57.9,60,60,57.9,61.6z M63.4,50.2c0,1.3-0.2,2.6-0.5,3.9c-2.2-0.3-7.3-2.7-8.7-3.5c0-0.1,0-0.3,0-0.4c0-0.1,0-0.3,0-0.4
		c1.4-0.7,6.5-3.1,8.7-3.5C63.3,47.5,63.4,48.8,63.4,50.2z M53.4,47.2c-0.1-0.2-0.3-0.4-0.5-0.6c0.8-1.4,3.4-6.3,5-7.9
		c2,1.6,3.6,3.8,4.5,6.2C60.5,45.9,55,46.9,53.4,47.2z"/>
	<linearGradient id="SVGID_3_" gradientUnits="userSpaceOnUse" x1="72.9352" y1="74.5046" x2="31.1288" y2="32.6981">
		<stop  offset="0.34" style="stop-color:#FFFFFF"/>
		<stop  offset="0.4244" style="stop-color:#FFF4F5"/>
		<stop  offset="0.5778" style="stop-color:#FFE5E7"/>
		<stop  offset="0.5799" style="stop-color:#FFFFFF"/>
	</linearGradient>
	<path fill="url(#SVGID_3_)" d="M71.5,40.5c-1.3-3-3-5.6-5.3-7.9c-2.3-2.3-4.9-4.1-7.9-5.3c-3.1-1.3-6.3-2-9.7-2
		c-3.3,0-6.6,0.7-9.7,2c-3,1.3-5.6,3-7.9,5.3c-2.3,2.3-4.1,4.9-5.3,7.9c-1.3,3.1-2,6.3-2,9.7c0,3.3,0.7,6.6,2,9.7
		c1.2,3,3,5.8,5.3,8.1c1.3,1.3,2.8,2.7,4.3,3.7h26.4c1.6-1,3-2.3,4.3-3.7c2.3-2.3,4.1-5,5.3-8c1.3-3.1,2-6.4,2-9.7
		C73.5,46.9,72.8,43.6,71.5,40.5z M48.7,66.4c-9,0-16.3-7.3-16.3-16.3c0-9,7.3-16.3,16.3-16.3c9,0,16.3,7.3,16.3,16.3
		C65,59.1,57.7,66.4,48.7,66.4z"/>
</g>
</svg>
