<?xml version="1.0" encoding="utf-8"?>
<!-- Generator: Adobe Illustrator 17.1.0, SVG Export Plug-In . SVG Version: 6.00 Build 0)  -->
<!DOCTYPE svg PUBLIC "-//W3C//DTD SVG 1.1//EN" "http://www.w3.org/Graphics/SVG/1.1/DTD/svg11.dtd">
<svg version="1.1" id="Layer_1" xmlns="http://www.w3.org/2000/svg" xmlns:xlink="http://www.w3.org/1999/xlink" x="0px" y="0px"
	 viewBox="0 0 99 99.1" enable-background="new 0 0 99 99.1" xml:space="preserve">
<linearGradient id="SVGID_1_" gradientUnits="userSpaceOnUse" x1="-3.000101e-05" y1="49.5712" x2="99" y2="49.5712">
	<stop  offset="0" style="stop-color:#484949"/>
	<stop  offset="1" style="stop-color:#2A2724"/>
</linearGradient>
<rect x="0" y="0" fill="url(#SVGID_1_)" width="99" height="99.1"/>
<polygon opacity="0.2" fill="#231F20" points="99,99.1 99,60.5 80,41.5 79.8,41.7 74.2,36 72.5,41.9 69.1,38.4 68.6,38.8 68.7,41.5 
	69.1,41.6 68.7,42 65.1,38.4 64.5,40.5 65.2,45.5 70.7,47.9 69,53.7 60.2,54 23.9,57.5 65.5,99.1 "/>
<linearGradient id="SVGID_2_" gradientUnits="userSpaceOnUse" x1="75.4012" y1="72.8693" x2="34.1331" y2="31.6013">
	<stop  offset="0.34" style="stop-color:#FFFFFF"/>
	<stop  offset="0.4244" style="stop-color:#FFF4F5"/>
	<stop  offset="0.5778" style="stop-color:#FFE5E7"/>
	<stop  offset="0.5799" style="stop-color:#FFFFFF"/>
</linearGradient>
<path fill="url(#SVGID_2_)" d="M83.1,46.3H80l0-4.8l-2.9,0L74.2,36H64.1v10.2h-7.3l-1,1.9H41.6v-1.5H17.4v1.5h0l6.5,9.1l49.9,0h2.9
	h2.8c0,0-0.7-2.3,1.8-4.1c1.9-1.3,1.8-3.6,1.8-3.6L83.1,46.3z M68.2,40.5h-3.1v-2.1h3.1V40.5z M71.2,40.5h-2.1v-2.1h2.1V40.5z"/>
</svg>
