<?xml version="1.0" encoding="utf-8"?>
<!-- Generator: Adobe Illustrator 17.1.0, SVG Export Plug-In . SVG Version: 6.00 Build 0)  -->
<!DOCTYPE svg PUBLIC "-//W3C//DTD SVG 1.1//EN" "http://www.w3.org/Graphics/SVG/1.1/DTD/svg11.dtd">
<svg version="1.1" id="Layer_1" xmlns="http://www.w3.org/2000/svg" xmlns:xlink="http://www.w3.org/1999/xlink" x="0px" y="0px"
	 viewBox="0 0 99 99.1" enable-background="new 0 0 99 99.1" xml:space="preserve">
<linearGradient id="SVGID_1_" gradientUnits="userSpaceOnUse" x1="1.970927e-05" y1="49.5713" x2="99" y2="49.5713">
	<stop  offset="0" style="stop-color:#3D9EBC"/>
	<stop  offset="1" style="stop-color:#1B9EBC"/>
</linearGradient>
<rect x="0" fill="url(#SVGID_1_)" width="99" height="99.1"/>
<polygon opacity="0.2" fill="#231F20" points="51.9,47.4 44.4,58.6 51.2,65.3 44.7,73.5 70.4,99.1 99,99.1 99,66.4 62.4,29.8 
	60.5,33.8 59.4,32.2 49.8,28 40.2,28.4 38.3,33.7 52.3,47.7 "/>
<g>
	<linearGradient id="SVGID_2_" gradientUnits="userSpaceOnUse" x1="74.2742" y1="72.06" x2="24.1632" y2="21.949">
		<stop  offset="0.34" style="stop-color:#FFFFFF"/>
		<stop  offset="0.4244" style="stop-color:#FFF4F5"/>
		<stop  offset="0.5778" style="stop-color:#FFE5E7"/>
		<stop  offset="0.5799" style="stop-color:#FFFFFF"/>
	</linearGradient>
	<path fill="url(#SVGID_2_)" d="M44.4,58.6v-2.1c0-2.4,0.4-4.5,1.3-6.1c0.9-1.6,2.4-3.3,4.6-5c2.6-2.1,4.3-3.7,5.1-4.8
		c0.8-1.2,1.1-2.5,1.1-4.1c0-1.9-0.6-3.3-1.9-4.3c-1.2-1-3-1.5-5.3-1.5c-2.1,0-4.1,0.3-5.8,0.9s-3.5,1.3-5.2,2.2l-2.8-5.8
		c4.5-2.5,9.3-3.8,14.4-3.8c4.3,0,7.8,1.1,10.3,3.2c2.5,2.1,3.8,5.1,3.8,8.8c0,1.7-0.2,3.1-0.7,4.4c-0.5,1.3-1.2,2.5-2.2,3.7
		c-1,1.2-2.7,2.7-5.1,4.6c-2.1,1.6-3.4,3-4.1,4s-1,2.5-1,4.3v1.5H44.4z M43,69.2c0-3.3,1.6-5,4.9-5c1.6,0,2.8,0.4,3.7,1.3
		c0.8,0.9,1.3,2.1,1.3,3.7c0,1.6-0.4,2.8-1.3,3.7c-0.9,0.9-2.1,1.4-3.6,1.4c-1.6,0-2.8-0.4-3.6-1.3C43.5,72.1,43,70.8,43,69.2z"/>
</g>
</svg>
