<?xml version="1.0" encoding="utf-8"?>
<!-- Generator: Adobe Illustrator 17.1.0, SVG Export Plug-In . SVG Version: 6.00 Build 0)  -->
<!DOCTYPE svg PUBLIC "-//W3C//DTD SVG 1.1//EN" "http://www.w3.org/Graphics/SVG/1.1/DTD/svg11.dtd">
<svg version="1.1" id="Layer_1" xmlns="http://www.w3.org/2000/svg" xmlns:xlink="http://www.w3.org/1999/xlink" x="0px" y="0px"
	 viewBox="0 0 99 99" enable-background="new 0 0 99 99" xml:space="preserve">
<linearGradient id="SVGID_1_" gradientUnits="userSpaceOnUse" x1="14.4983" y1="14.4982" x2="84.5018" y2="84.5018">
	<stop  offset="0" style="stop-color:#3D9EBC"/>
	<stop  offset="1" style="stop-color:#1B9EBC"/>
</linearGradient>
<circle fill="url(#SVGID_1_)" cx="49.5" cy="49.5" r="49.5"/>
<g>
	<path opacity="0.12" d="M96.2,65.9L76.1,45.8l-6.7,3.4l-5.3,7.2L46,61.8l-5.5-3.2l-12.3-4.3L69,95C81.7,89.6,91.6,79,96.2,65.9z"/>
	<polygon opacity="0.12" points="24.7,34.8 34,44.1 27.2,45.8 	"/>
</g>
<g opacity="0.66">
	<path opacity="0.12" d="M96.2,65.9L76.1,45.8l-6.7,3.4l-5.3,7.2L46,61.8l-5.5-3.2l-12.3-4.3L69,95C81.7,89.6,91.6,79,96.2,65.9z"/>
	<polygon opacity="0.12" points="24.7,34.8 34,44.1 27.2,45.8 	"/>
</g>
<g>
	<path fill="#FFFFFF" d="M51.4,52c-0.1-0.4-0.5-0.9-1-1.5l-2.6,4.7c0.7,0.3,1.2,0.4,1.6,0.3c0.7-0.1,1.3-0.6,1.8-1.5
		C51.6,53.4,51.7,52.7,51.4,52"/>
	<path fill="#FFFFFF" d="M50.4,42.9c-0.4,0.7-0.4,1.3-0.1,2c0.2,0.4,0.5,0.8,1,1.3l2.3-4.2c-0.7-0.4-1.3-0.5-1.9-0.3
		C51.2,41.9,50.8,42.3,50.4,42.9"/>
	<linearGradient id="SVGID_2_" gradientUnits="userSpaceOnUse" x1="51.205" y1="49.042" x2="43.5708" y2="41.4078">
		<stop  offset="0.34" style="stop-color:#FFFFFF"/>
		<stop  offset="0.4244" style="stop-color:#FFF4F5"/>
		<stop  offset="0.5778" style="stop-color:#FFE5E7"/>
		<stop  offset="0.5799" style="stop-color:#FFFFFF"/>
	</linearGradient>
	<path fill="url(#SVGID_2_)" d="M42.9,27.5l-18.2,7.3l3.5,19.3l33.2,18.4l14.8-26.6L42.9,27.5z M27.9,38.9c-1-0.6-1.4-1.8-0.8-2.8
		c0.6-1,1.8-1.4,2.8-0.8c1,0.6,1.4,1.8,0.8,2.8C30.2,39.1,28.9,39.5,27.9,38.9 M50.1,58.7c-1.2,0.1-2.5-0.2-3.8-0.8L45,60.3
		l-1.2-0.6l1.3-2.4c-1.5-1-2.5-2-3-3c-0.9-1.7-0.7-3.6,0.6-5.8l3.2,1.8c-0.4,1.1-0.7,1.8-0.7,2.3c0,0.7,0.4,1.4,1.3,2.1l2.8-5.1
		l-0.8-0.8c-1.3-1.3-2-2.5-2.2-3.7c-0.2-1.1,0-2.3,0.7-3.4c0.4-0.7,0.9-1.4,1.5-1.8c0.6-0.5,1.2-0.8,1.9-1c0.9-0.3,1.7-0.3,2.5-0.1
		c0.5,0.1,1.2,0.3,2,0.7l0.9-1.6l1.2,0.6L56.2,40c1.2,0.8,2.1,1.7,2.5,2.7c0.9,1.6,0.8,3.4-0.2,5.3l-3.2-1.7
		c0.3-0.7,0.5-1.3,0.5-1.8c0-0.7-0.4-1.3-1.1-1.8l-2.5,4.6c1.5,1.7,2.5,3,2.9,3.9c0.6,1.4,0.5,2.9-0.4,4.4
		C53.6,57.6,52.1,58.6,50.1,58.7"/>
</g>
</svg>
