<?xml version="1.0" encoding="utf-8"?>
<!-- Generator: Adobe Illustrator 17.1.0, SVG Export Plug-In . SVG Version: 6.00 Build 0)  -->
<!DOCTYPE svg PUBLIC "-//W3C//DTD SVG 1.1//EN" "http://www.w3.org/Graphics/SVG/1.1/DTD/svg11.dtd">
<svg version="1.1" id="Layer_1" xmlns="http://www.w3.org/2000/svg" xmlns:xlink="http://www.w3.org/1999/xlink" x="0px" y="0px"
	 viewBox="0 0 99 99" enable-background="new 0 0 99 99" xml:space="preserve">
<linearGradient id="SVGID_1_" gradientUnits="userSpaceOnUse" x1="14.4982" y1="14.4982" x2="84.5017" y2="84.5018">
	<stop  offset="0" style="stop-color:#F7D823"/>
	<stop  offset="1" style="stop-color:#F1AB23"/>
</linearGradient>
<circle fill="url(#SVGID_1_)" cx="49.5" cy="49.5" r="49.5"/>
<path opacity="0.12" fill="#231F20" d="M27.8,70.5l0.9,0.7l-2.2,2.5l25.3,25.3c24.6-1.1,44.5-20.1,47-44.2l-29-29l-7.7,8.5h13.4v9.8
	h-50v-9l-1.2,0.1l-0.6,8.7l4.9,0.7L27.8,70.5z"/>
<g>
	<linearGradient id="SVGID_2_" gradientUnits="userSpaceOnUse" x1="75.0112" y1="71.5741" x2="23.2471" y2="19.81">
		<stop  offset="0.34" style="stop-color:#FFFFFF"/>
		<stop  offset="0.4244" style="stop-color:#FFF4F5"/>
		<stop  offset="0.5778" style="stop-color:#FFE5E7"/>
		<stop  offset="0.5799" style="stop-color:#FFFFFF"/>
	</linearGradient>
	<polygon fill="url(#SVGID_2_)" points="35.9,25.7 31,25.7 29.4,32.7 37.5,32.7 	"/>
	<linearGradient id="SVGID_3_" gradientUnits="userSpaceOnUse" x1="91.9255" y1="54.6598" x2="40.1614" y2="2.8957">
		<stop  offset="0.34" style="stop-color:#FFFFFF"/>
		<stop  offset="0.4244" style="stop-color:#FFF4F5"/>
		<stop  offset="0.5778" style="stop-color:#FFE5E7"/>
		<stop  offset="0.5799" style="stop-color:#FFFFFF"/>
	</linearGradient>
	<polygon fill="url(#SVGID_3_)" points="69.8,25.7 64.8,25.7 63.2,32.7 71.4,32.7 	"/>
	<linearGradient id="SVGID_4_" gradientUnits="userSpaceOnUse" x1="72.2213" y1="74.364" x2="20.4572" y2="22.5999">
		<stop  offset="0.34" style="stop-color:#FFFFFF"/>
		<stop  offset="0.4244" style="stop-color:#FFF4F5"/>
		<stop  offset="0.5778" style="stop-color:#FFE5E7"/>
		<stop  offset="0.5799" style="stop-color:#FFFFFF"/>
	</linearGradient>
	<path fill="url(#SVGID_4_)" d="M68.5,44.8v28.8h4.2V44.8h4v-11H22.6v11h3.9v28.8h4.2V44.8H68.5z M67.9,34.9h3.5l-5.3,8.8h-3.5
		L67.9,34.9z M55.7,34.9h3.5l-5.3,8.8h-3.5L55.7,34.9z M43.4,34.9H47l-5.3,8.8h-3.5L43.4,34.9z M25.9,43.7l5.3-8.8h3.5l-5.3,8.8
		H25.9z"/>
</g>
</svg>
