<?xml version="1.0" encoding="utf-8"?>
<!-- Generator: Adobe Illustrator 17.1.0, SVG Export Plug-In . SVG Version: 6.00 Build 0)  -->
<!DOCTYPE svg PUBLIC "-//W3C//DTD SVG 1.1//EN" "http://www.w3.org/Graphics/SVG/1.1/DTD/svg11.dtd">
<svg version="1.1" id="Layer_1" xmlns="http://www.w3.org/2000/svg" xmlns:xlink="http://www.w3.org/1999/xlink" x="0px" y="0px"
	 viewBox="0 0 99 99" enable-background="new 0 0 99 99" xml:space="preserve">
<linearGradient id="SVGID_1_" gradientUnits="userSpaceOnUse" x1="14.4982" y1="14.4982" x2="84.5018" y2="84.5018">
	<stop  offset="0" style="stop-color:#3D9EBC"/>
	<stop  offset="1" style="stop-color:#1B9EBC"/>
</linearGradient>
<circle fill="url(#SVGID_1_)" cx="49.5" cy="49.5" r="49.5"/>
<g opacity="0.2">
	<path fill="#231F20" d="M42.3,77.4l19.9,19.9c19.4-5.1,34-21.7,36.4-42L72.3,28.9l-5.4,3.1l0.7,4.8l-0.8,9.2l-6.5,9.1L50.1,56
		L50,57.4l-22.7,0.1l-0.5,0.7L44,75.4L42.3,77.4z"/>
	<polygon fill="#231F20" points="26.7,31.5 31.7,36.5 33.6,30.3 28.8,30.2 	"/>
</g>
<g>
	<linearGradient id="SVGID_2_" gradientUnits="userSpaceOnUse" x1="92.7224" y1="88.6095" x2="16.5512" y2="12.4383">
		<stop  offset="0.34" style="stop-color:#FFFFFF"/>
		<stop  offset="0.4244" style="stop-color:#FFF4F5"/>
		<stop  offset="0.5778" style="stop-color:#FFE5E7"/>
		<stop  offset="0.5799" style="stop-color:#FFFFFF"/>
	</linearGradient>
	<path fill="url(#SVGID_2_)" d="M72.3,31.5v-2.6H26.7v2.6h2.4v24.1h-2.4v2.6h21.5V69L41,76.2l1.3,1.3l6.9-6.9h0.4l6.9,6.9l1.3-1.3
		l-7-7v-11h21.5v-2.6h-2.4V31.5H72.3z M58.6,45.8l-2.8-3.2l-8.4,8.8l-5.8-5.9l-8,7.6l-1.5-1.5l9.5-9.1l5.7,5.8l8.5-8.9l2.9,3.3
		l6.5-6.1l1.4,1.5L58.6,45.8z"/>
</g>
</svg>
