<?xml version="1.0" encoding="utf-8"?>
<!-- Generator: Adobe Illustrator 17.1.0, SVG Export Plug-In . SVG Version: 6.00 Build 0)  -->
<!DOCTYPE svg PUBLIC "-//W3C//DTD SVG 1.1//EN" "http://www.w3.org/Graphics/SVG/1.1/DTD/svg11.dtd">
<svg version="1.1" id="Layer_1" xmlns="http://www.w3.org/2000/svg" xmlns:xlink="http://www.w3.org/1999/xlink" x="0px" y="0px"
	 viewBox="0 0 99 99" enable-background="new 0 0 99 99" xml:space="preserve">
<linearGradient id="SVGID_1_" gradientUnits="userSpaceOnUse" x1="14.4982" y1="14.4982" x2="84.5017" y2="84.5018">
	<stop  offset="0" style="stop-color:#CCCCCC"/>
	<stop  offset="1" style="stop-color:#777777"/>
</linearGradient>
<circle fill="url(#SVGID_1_)" cx="49.5" cy="49.5" r="49.5"/>
<path opacity="0.12" fill="#231F20" d="M53.3,98.8C75.5,97.1,93.7,80.8,98,59.4l-16-16l-3,1.9c0,0-1.5-1.2-3.4-1.6
	c-0.5-0.1-2.3,0.5-4.7,1.5l-15-15L33.6,45.2l8.2,8.2c-6.4-0.1-19.5-0.3-21.4,0.2c-2.6,0.6-1.4,6.4-1.4,6.4l-2.7,1.8L53.3,98.8z"/>
<g>
	<g>
		<linearGradient id="SVGID_2_" gradientUnits="userSpaceOnUse" x1="50.0791" y1="71.9621" x2="17.1089" y2="38.9918">
			<stop  offset="0.34" style="stop-color:#FFFFFF"/>
			<stop  offset="0.4244" style="stop-color:#FFF4F5"/>
			<stop  offset="0.5778" style="stop-color:#FFE5E7"/>
			<stop  offset="0.5799" style="stop-color:#FFFFFF"/>
		</linearGradient>
		<path fill="url(#SVGID_2_)" d="M47.1,61L47.1,61l-1.6-3.6l3-3.3l0,0l2.1-2.3l-27.6-0.5c-3.2-0.1-5.9,2.5-5.9,5.7
			c-0.1,3.2,2.5,5.9,5.7,5.9l25.4,0.4L47.1,61z M42.7,57L42.7,57L42.7,57l1.8,4l-21.7-0.4c-1.9,0-3.5-1.6-3.4-3.6
			c0-1.9,1.6-3.5,3.6-3.4L45.3,54l-2.6,2.9L42.7,57L42.7,57z"/>
		<linearGradient id="SVGID_3_" gradientUnits="userSpaceOnUse" x1="43.9816" y1="78.0596" x2="11.0113" y2="45.0893">
			<stop  offset="0.34" style="stop-color:#FFFFFF"/>
			<stop  offset="0.4244" style="stop-color:#FFF4F5"/>
			<stop  offset="0.5778" style="stop-color:#FFE5E7"/>
			<stop  offset="0.5799" style="stop-color:#FFFFFF"/>
		</linearGradient>
		<circle fill="url(#SVGID_3_)" cx="23" cy="57.1" r="2.8"/>
		<linearGradient id="SVGID_4_" gradientUnits="userSpaceOnUse" x1="52.4666" y1="69.5746" x2="19.4963" y2="36.6044">
			<stop  offset="0.34" style="stop-color:#FFFFFF"/>
			<stop  offset="0.4244" style="stop-color:#FFF4F5"/>
			<stop  offset="0.5778" style="stop-color:#FFE5E7"/>
			<stop  offset="0.5799" style="stop-color:#FFFFFF"/>
		</linearGradient>
		<polygon fill-rule="evenodd" clip-rule="evenodd" fill="url(#SVGID_4_)" points="48.3,65.2 48.4,64.3 46.9,64.3 46.9,65.1 		"/>
		<linearGradient id="SVGID_5_" gradientUnits="userSpaceOnUse" x1="48.5475" y1="73.4937" x2="15.5772" y2="40.5235">
			<stop  offset="0.34" style="stop-color:#FFFFFF"/>
			<stop  offset="0.4244" style="stop-color:#FFF4F5"/>
			<stop  offset="0.5778" style="stop-color:#FFE5E7"/>
			<stop  offset="0.5799" style="stop-color:#FFFFFF"/>
		</linearGradient>
		<polygon fill-rule="evenodd" clip-rule="evenodd" fill="url(#SVGID_5_)" points="40.4,65 40.4,64.2 38.9,64.1 38.9,65 		"/>
		<linearGradient id="SVGID_6_" gradientUnits="userSpaceOnUse" x1="49.8522" y1="72.189" x2="16.8819" y2="39.2187">
			<stop  offset="0.34" style="stop-color:#FFFFFF"/>
			<stop  offset="0.4244" style="stop-color:#FFF4F5"/>
			<stop  offset="0.5778" style="stop-color:#FFE5E7"/>
			<stop  offset="0.5799" style="stop-color:#FFFFFF"/>
		</linearGradient>
		<polygon fill-rule="evenodd" clip-rule="evenodd" fill="url(#SVGID_6_)" points="43,65.1 43,64.2 41.6,64.2 41.5,65.1 		"/>
		<linearGradient id="SVGID_7_" gradientUnits="userSpaceOnUse" x1="51.1527" y1="70.8886" x2="18.1824" y2="37.9183">
			<stop  offset="0.34" style="stop-color:#FFFFFF"/>
			<stop  offset="0.4244" style="stop-color:#FFF4F5"/>
			<stop  offset="0.5778" style="stop-color:#FFE5E7"/>
			<stop  offset="0.5799" style="stop-color:#FFFFFF"/>
		</linearGradient>
		<polygon fill-rule="evenodd" clip-rule="evenodd" fill="url(#SVGID_7_)" points="45.7,65.1 45.7,64.3 44.2,64.2 44.2,65.1 		"/>
		<linearGradient id="SVGID_8_" gradientUnits="userSpaceOnUse" x1="44.6284" y1="77.4128" x2="11.6581" y2="44.4425">
			<stop  offset="0.34" style="stop-color:#FFFFFF"/>
			<stop  offset="0.4244" style="stop-color:#FFF4F5"/>
			<stop  offset="0.5778" style="stop-color:#FFE5E7"/>
			<stop  offset="0.5799" style="stop-color:#FFFFFF"/>
		</linearGradient>
		<polygon fill-rule="evenodd" clip-rule="evenodd" fill="url(#SVGID_8_)" points="32.4,64.9 32.4,64 30.9,64 30.9,64.9 		"/>
		<linearGradient id="SVGID_9_" gradientUnits="userSpaceOnUse" x1="45.9331" y1="76.1081" x2="12.9629" y2="43.1378">
			<stop  offset="0.34" style="stop-color:#FFFFFF"/>
			<stop  offset="0.4244" style="stop-color:#FFF4F5"/>
			<stop  offset="0.5778" style="stop-color:#FFE5E7"/>
			<stop  offset="0.5799" style="stop-color:#FFFFFF"/>
		</linearGradient>
		<polygon fill-rule="evenodd" clip-rule="evenodd" fill="url(#SVGID_9_)" points="35.1,64.9 35.1,64.1 33.6,64 33.6,64.9 		"/>
		<linearGradient id="SVGID_10_" gradientUnits="userSpaceOnUse" x1="47.2336" y1="74.8077" x2="14.2633" y2="41.8374">
			<stop  offset="0.34" style="stop-color:#FFFFFF"/>
			<stop  offset="0.4244" style="stop-color:#FFF4F5"/>
			<stop  offset="0.5778" style="stop-color:#FFE5E7"/>
			<stop  offset="0.5799" style="stop-color:#FFFFFF"/>
		</linearGradient>
		<polygon fill-rule="evenodd" clip-rule="evenodd" fill="url(#SVGID_10_)" points="37.7,65 37.7,64.1 36.2,64.1 36.2,65 		"/>
		<linearGradient id="SVGID_11_" gradientUnits="userSpaceOnUse" x1="40.7093" y1="81.3319" x2="7.739" y2="48.3616">
			<stop  offset="0.34" style="stop-color:#FFFFFF"/>
			<stop  offset="0.4244" style="stop-color:#FFF4F5"/>
			<stop  offset="0.5778" style="stop-color:#FFE5E7"/>
			<stop  offset="0.5799" style="stop-color:#FFFFFF"/>
		</linearGradient>
		<polygon fill-rule="evenodd" clip-rule="evenodd" fill="url(#SVGID_11_)" points="24.4,64.8 24.4,63.9 23,63.9 22.9,64.7 		"/>
		<linearGradient id="SVGID_12_" gradientUnits="userSpaceOnUse" x1="42.014" y1="80.0272" x2="9.0438" y2="47.0569">
			<stop  offset="0.34" style="stop-color:#FFFFFF"/>
			<stop  offset="0.4244" style="stop-color:#FFF4F5"/>
			<stop  offset="0.5778" style="stop-color:#FFE5E7"/>
			<stop  offset="0.5799" style="stop-color:#FFFFFF"/>
		</linearGradient>
		<polygon fill-rule="evenodd" clip-rule="evenodd" fill="url(#SVGID_12_)" points="27.1,64.8 27.1,63.9 25.6,63.9 25.6,64.8 		"/>
		<linearGradient id="SVGID_13_" gradientUnits="userSpaceOnUse" x1="43.3145" y1="78.7268" x2="10.3442" y2="45.7565">
			<stop  offset="0.34" style="stop-color:#FFFFFF"/>
			<stop  offset="0.4244" style="stop-color:#FFF4F5"/>
			<stop  offset="0.5778" style="stop-color:#FFE5E7"/>
			<stop  offset="0.5799" style="stop-color:#FFFFFF"/>
		</linearGradient>
		<polygon fill-rule="evenodd" clip-rule="evenodd" fill="url(#SVGID_13_)" points="29.7,64.9 29.7,64 28.3,64 28.2,64.8 		"/>
		<linearGradient id="SVGID_14_" gradientUnits="userSpaceOnUse" x1="38.8354" y1="83.2058" x2="5.8651" y2="50.2356">
			<stop  offset="0.34" style="stop-color:#FFFFFF"/>
			<stop  offset="0.4244" style="stop-color:#FFF4F5"/>
			<stop  offset="0.5778" style="stop-color:#FFE5E7"/>
			<stop  offset="0.5799" style="stop-color:#FFFFFF"/>
		</linearGradient>
		<path fill-rule="evenodd" clip-rule="evenodd" fill="url(#SVGID_14_)" d="M17,62.1l0.7-0.6c0,0-0.2-0.3-0.4-0.5
			c-0.1-0.1-0.2-0.3-0.2-0.4c-0.1-0.1-0.1-0.2-0.1-0.2l-0.8,0.4c0,0,0,0.1,0.1,0.2c0.1,0.1,0.2,0.3,0.3,0.5
			C16.7,61.8,17,62.1,17,62.1z"/>
		<linearGradient id="SVGID_15_" gradientUnits="userSpaceOnUse" x1="38.8274" y1="83.2138" x2="5.8571" y2="50.2435">
			<stop  offset="0.34" style="stop-color:#FFFFFF"/>
			<stop  offset="0.4244" style="stop-color:#FFF4F5"/>
			<stop  offset="0.5778" style="stop-color:#FFE5E7"/>
			<stop  offset="0.5799" style="stop-color:#FFFFFF"/>
		</linearGradient>
		<path fill-rule="evenodd" clip-rule="evenodd" fill="url(#SVGID_15_)" d="M19.1,63.9l0.4-0.8c0,0-0.1,0-0.2-0.1
			c-0.1-0.1-0.3-0.2-0.4-0.2c-0.1-0.1-0.3-0.2-0.4-0.3c-0.1-0.1-0.2-0.1-0.2-0.1L17.8,63c0,0,0.1,0.1,0.2,0.2
			c0.1,0.1,0.3,0.2,0.4,0.3c0.2,0.1,0.3,0.2,0.5,0.3C19,63.8,19.1,63.9,19.1,63.9z"/>
		<linearGradient id="SVGID_16_" gradientUnits="userSpaceOnUse" x1="39.4897" y1="82.5515" x2="6.5195" y2="49.5812">
			<stop  offset="0.34" style="stop-color:#FFFFFF"/>
			<stop  offset="0.4244" style="stop-color:#FFF4F5"/>
			<stop  offset="0.5778" style="stop-color:#FFE5E7"/>
			<stop  offset="0.5799" style="stop-color:#FFFFFF"/>
		</linearGradient>
		<path fill-rule="evenodd" clip-rule="evenodd" fill="url(#SVGID_16_)" d="M21.7,64.7l0.1-0.9c0,0-0.3-0.1-0.7-0.1
			c-0.2,0-0.3-0.1-0.5-0.1c-0.1,0-0.2-0.1-0.2-0.1l-0.3,0.8c0,0,0.1,0,0.2,0.1c0.1,0,0.3,0.1,0.5,0.1C21.3,64.6,21.7,64.7,21.7,64.7
			z"/>
		<linearGradient id="SVGID_17_" gradientUnits="userSpaceOnUse" x1="42.3545" y1="79.6868" x2="9.3842" y2="46.7165">
			<stop  offset="0.34" style="stop-color:#FFFFFF"/>
			<stop  offset="0.4244" style="stop-color:#FFF4F5"/>
			<stop  offset="0.5778" style="stop-color:#FFE5E7"/>
			<stop  offset="0.5799" style="stop-color:#FFFFFF"/>
		</linearGradient>
		<path fill-rule="evenodd" clip-rule="evenodd" fill="url(#SVGID_17_)" d="M15.7,54.3l0.8,0.3c0,0,0-0.1,0.1-0.2
			c0-0.1,0.1-0.3,0.2-0.4c0.1-0.1,0.2-0.3,0.2-0.4c0.1-0.1,0.1-0.2,0.1-0.2l-0.7-0.5c0,0-0.1,0.1-0.1,0.2c-0.1,0.1-0.2,0.3-0.2,0.5
			c-0.1,0.2-0.1,0.4-0.2,0.5C15.8,54.2,15.7,54.3,15.7,54.3z"/>
		<linearGradient id="SVGID_18_" gradientUnits="userSpaceOnUse" x1="40.8205" y1="81.2208" x2="7.8502" y2="48.2505">
			<stop  offset="0.34" style="stop-color:#FFFFFF"/>
			<stop  offset="0.4244" style="stop-color:#FFF4F5"/>
			<stop  offset="0.5778" style="stop-color:#FFE5E7"/>
			<stop  offset="0.5799" style="stop-color:#FFFFFF"/>
		</linearGradient>
		<path fill-rule="evenodd" clip-rule="evenodd" fill="url(#SVGID_18_)" d="M15.4,57l0.9,0c0,0,0-0.4,0-0.7c0-0.2,0-0.3,0-0.5
			c0-0.1,0-0.2,0-0.2l-0.9-0.1c0,0,0,0.1,0,0.2c0,0.1,0,0.3,0,0.5C15.4,56.6,15.4,57,15.4,57z"/>
		<linearGradient id="SVGID_19_" gradientUnits="userSpaceOnUse" x1="39.5529" y1="82.4883" x2="6.5826" y2="49.5181">
			<stop  offset="0.34" style="stop-color:#FFFFFF"/>
			<stop  offset="0.4244" style="stop-color:#FFF4F5"/>
			<stop  offset="0.5778" style="stop-color:#FFE5E7"/>
			<stop  offset="0.5799" style="stop-color:#FFFFFF"/>
		</linearGradient>
		<path fill-rule="evenodd" clip-rule="evenodd" fill="url(#SVGID_19_)" d="M15.6,59.7l0.8-0.2c0,0,0-0.1-0.1-0.2
			c0-0.1-0.1-0.3-0.1-0.5c0-0.2-0.1-0.3-0.1-0.5c0-0.1,0-0.2,0-0.2l-0.9,0c0,0,0,0.1,0,0.2c0,0.1,0,0.3,0.1,0.5
			c0,0.2,0.1,0.4,0.1,0.5C15.6,59.6,15.6,59.7,15.6,59.7z"/>
		<linearGradient id="SVGID_20_" gradientUnits="userSpaceOnUse" x1="47.46" y1="74.5812" x2="14.4897" y2="41.611">
			<stop  offset="0.34" style="stop-color:#FFFFFF"/>
			<stop  offset="0.4244" style="stop-color:#FFF4F5"/>
			<stop  offset="0.5778" style="stop-color:#FFE5E7"/>
			<stop  offset="0.5799" style="stop-color:#FFFFFF"/>
		</linearGradient>
		<path fill-rule="evenodd" clip-rule="evenodd" fill="url(#SVGID_20_)" d="M22,49.5l0.1,0.9c0,0,0.3,0,0.7,0c0.4,0,0.7,0,0.7,0
			l0-0.9c0,0-0.4,0-0.7,0C22.4,49.5,22,49.5,22,49.5z"/>
		<linearGradient id="SVGID_21_" gradientUnits="userSpaceOnUse" x1="45.9859" y1="76.0553" x2="13.0156" y2="43.085">
			<stop  offset="0.34" style="stop-color:#FFFFFF"/>
			<stop  offset="0.4244" style="stop-color:#FFF4F5"/>
			<stop  offset="0.5778" style="stop-color:#FFE5E7"/>
			<stop  offset="0.5799" style="stop-color:#FFFFFF"/>
		</linearGradient>
		<path fill-rule="evenodd" clip-rule="evenodd" fill="url(#SVGID_21_)" d="M19.4,50.2l0.4,0.8c0,0,0.1,0,0.2-0.1
			c0.1,0,0.3-0.1,0.4-0.2c0.2-0.1,0.3-0.1,0.4-0.1c0.1,0,0.2,0,0.2,0l-0.2-0.8c0,0-0.1,0-0.2,0.1c-0.1,0-0.3,0.1-0.5,0.2
			c-0.2,0.1-0.4,0.1-0.5,0.2C19.4,50.2,19.4,50.2,19.4,50.2z"/>
		<linearGradient id="SVGID_22_" gradientUnits="userSpaceOnUse" x1="44.2157" y1="77.8255" x2="11.2454" y2="44.8552">
			<stop  offset="0.34" style="stop-color:#FFFFFF"/>
			<stop  offset="0.4244" style="stop-color:#FFF4F5"/>
			<stop  offset="0.5778" style="stop-color:#FFE5E7"/>
			<stop  offset="0.5799" style="stop-color:#FFFFFF"/>
		</linearGradient>
		<path fill-rule="evenodd" clip-rule="evenodd" fill="url(#SVGID_22_)" d="M17.2,51.8l0.6,0.6c0,0,0.1-0.1,0.1-0.2
			c0.1-0.1,0.2-0.2,0.3-0.3c0.1-0.1,0.3-0.2,0.4-0.3c0.1-0.1,0.2-0.1,0.2-0.1l-0.5-0.7c0,0-0.1,0.1-0.2,0.1
			c-0.1,0.1-0.3,0.2-0.4,0.3c-0.2,0.1-0.3,0.3-0.4,0.4C17.2,51.8,17.2,51.8,17.2,51.8z"/>
		<linearGradient id="SVGID_23_" gradientUnits="userSpaceOnUse" x1="51.3738" y1="70.6674" x2="18.4035" y2="37.6972">
			<stop  offset="0.34" style="stop-color:#FFFFFF"/>
			<stop  offset="0.4244" style="stop-color:#FFF4F5"/>
			<stop  offset="0.5778" style="stop-color:#FFE5E7"/>
			<stop  offset="0.5799" style="stop-color:#FFFFFF"/>
		</linearGradient>
		<polygon fill-rule="evenodd" clip-rule="evenodd" fill="url(#SVGID_23_)" points="30,49.6 30,50.5 31.5,50.5 31.5,49.6 		"/>
		<linearGradient id="SVGID_24_" gradientUnits="userSpaceOnUse" x1="50.0691" y1="71.9722" x2="17.0988" y2="39.0019">
			<stop  offset="0.34" style="stop-color:#FFFFFF"/>
			<stop  offset="0.4244" style="stop-color:#FFF4F5"/>
			<stop  offset="0.5778" style="stop-color:#FFE5E7"/>
			<stop  offset="0.5799" style="stop-color:#FFFFFF"/>
		</linearGradient>
		<polygon fill-rule="evenodd" clip-rule="evenodd" fill="url(#SVGID_24_)" points="27.4,49.5 27.3,50.4 28.8,50.4 28.8,49.6 		"/>
		<linearGradient id="SVGID_25_" gradientUnits="userSpaceOnUse" x1="48.7686" y1="73.2726" x2="15.7984" y2="40.3023">
			<stop  offset="0.34" style="stop-color:#FFFFFF"/>
			<stop  offset="0.4244" style="stop-color:#FFF4F5"/>
			<stop  offset="0.5778" style="stop-color:#FFE5E7"/>
			<stop  offset="0.5799" style="stop-color:#FFFFFF"/>
		</linearGradient>
		<polygon fill-rule="evenodd" clip-rule="evenodd" fill="url(#SVGID_25_)" points="24.7,49.5 24.7,50.4 26.2,50.4 26.2,49.5 		"/>
		<linearGradient id="SVGID_26_" gradientUnits="userSpaceOnUse" x1="55.2929" y1="66.7484" x2="22.3226" y2="33.7781">
			<stop  offset="0.34" style="stop-color:#FFFFFF"/>
			<stop  offset="0.4244" style="stop-color:#FFF4F5"/>
			<stop  offset="0.5778" style="stop-color:#FFE5E7"/>
			<stop  offset="0.5799" style="stop-color:#FFFFFF"/>
		</linearGradient>
		<polygon fill-rule="evenodd" clip-rule="evenodd" fill="url(#SVGID_26_)" points="38,49.7 38,50.6 39.5,50.6 39.5,49.8 		"/>
		<linearGradient id="SVGID_27_" gradientUnits="userSpaceOnUse" x1="53.9882" y1="68.0531" x2="21.0179" y2="35.0828">
			<stop  offset="0.34" style="stop-color:#FFFFFF"/>
			<stop  offset="0.4244" style="stop-color:#FFF4F5"/>
			<stop  offset="0.5778" style="stop-color:#FFE5E7"/>
			<stop  offset="0.5799" style="stop-color:#FFFFFF"/>
		</linearGradient>
		<polygon fill-rule="evenodd" clip-rule="evenodd" fill="url(#SVGID_27_)" points="35.3,49.7 35.3,50.6 36.8,50.6 36.8,49.7 		"/>
		<linearGradient id="SVGID_28_" gradientUnits="userSpaceOnUse" x1="52.6877" y1="69.3535" x2="19.7174" y2="36.3832">
			<stop  offset="0.34" style="stop-color:#FFFFFF"/>
			<stop  offset="0.4244" style="stop-color:#FFF4F5"/>
			<stop  offset="0.5778" style="stop-color:#FFE5E7"/>
			<stop  offset="0.5799" style="stop-color:#FFFFFF"/>
		</linearGradient>
		<polygon fill-rule="evenodd" clip-rule="evenodd" fill="url(#SVGID_28_)" points="32.7,49.6 32.7,50.5 34.2,50.5 34.2,49.7 		"/>
		<linearGradient id="SVGID_29_" gradientUnits="userSpaceOnUse" x1="59.212" y1="62.8293" x2="26.2417" y2="29.859">
			<stop  offset="0.34" style="stop-color:#FFFFFF"/>
			<stop  offset="0.4244" style="stop-color:#FFF4F5"/>
			<stop  offset="0.5778" style="stop-color:#FFE5E7"/>
			<stop  offset="0.5799" style="stop-color:#FFFFFF"/>
		</linearGradient>
		<polygon fill-rule="evenodd" clip-rule="evenodd" fill="url(#SVGID_29_)" points="46,49.9 45.9,50.7 47.4,50.8 47.4,49.9 		"/>
		<linearGradient id="SVGID_30_" gradientUnits="userSpaceOnUse" x1="57.9073" y1="64.134" x2="24.937" y2="31.1637">
			<stop  offset="0.34" style="stop-color:#FFFFFF"/>
			<stop  offset="0.4244" style="stop-color:#FFF4F5"/>
			<stop  offset="0.5778" style="stop-color:#FFE5E7"/>
			<stop  offset="0.5799" style="stop-color:#FFFFFF"/>
		</linearGradient>
		<polygon fill-rule="evenodd" clip-rule="evenodd" fill="url(#SVGID_30_)" points="43.3,49.8 43.3,50.7 44.8,50.7 44.8,49.8 		"/>
		<linearGradient id="SVGID_31_" gradientUnits="userSpaceOnUse" x1="56.6068" y1="65.4344" x2="23.6365" y2="32.4641">
			<stop  offset="0.34" style="stop-color:#FFFFFF"/>
			<stop  offset="0.4244" style="stop-color:#FFF4F5"/>
			<stop  offset="0.5778" style="stop-color:#FFE5E7"/>
			<stop  offset="0.5799" style="stop-color:#FFFFFF"/>
		</linearGradient>
		<polygon fill-rule="evenodd" clip-rule="evenodd" fill="url(#SVGID_31_)" points="40.7,49.8 40.6,50.6 42.1,50.7 42.1,49.8 		"/>
		<linearGradient id="SVGID_32_" gradientUnits="userSpaceOnUse" x1="60.5259" y1="61.5153" x2="27.5556" y2="28.545">
			<stop  offset="0.34" style="stop-color:#FFFFFF"/>
			<stop  offset="0.4244" style="stop-color:#FFF4F5"/>
			<stop  offset="0.5778" style="stop-color:#FFE5E7"/>
			<stop  offset="0.5799" style="stop-color:#FFFFFF"/>
		</linearGradient>
		<polygon fill-rule="evenodd" clip-rule="evenodd" fill="url(#SVGID_32_)" points="48.6,49.9 48.6,50.8 50.1,50.8 50.1,49.9 		"/>
	</g>
	<g>
		<linearGradient id="SVGID_33_" gradientUnits="userSpaceOnUse" x1="68.4004" y1="53.6408" x2="35.4301" y2="20.6705">
			<stop  offset="0.34" style="stop-color:#FFFFFF"/>
			<stop  offset="0.4244" style="stop-color:#FFF4F5"/>
			<stop  offset="0.5778" style="stop-color:#FFE5E7"/>
			<stop  offset="0.5799" style="stop-color:#FFFFFF"/>
		</linearGradient>
		<path fill="url(#SVGID_33_)" d="M73.1,42.4l-19.4,8.8l-0.9,3l0,0L51.7,58l-0.1,0.1l0,0l0,0l0.1,0l3.2,2.7l0,0l2,1.7l21-9.6
			c2.9-1.3,4.2-4.8,2.9-7.7C79.5,42.4,76,41.1,73.1,42.4z M77,50.9l-19.7,8.9l-3-2.5l1.3-4.4l18.4-8.4c1.8-0.8,3.8,0,4.6,1.7
			C79.5,48,78.7,50.1,77,50.9z"/>
		<linearGradient id="SVGID_34_" gradientUnits="userSpaceOnUse" x1="74.7657" y1="47.2756" x2="41.7954" y2="14.3053">
			<stop  offset="0.34" style="stop-color:#FFFFFF"/>
			<stop  offset="0.4244" style="stop-color:#FFF4F5"/>
			<stop  offset="0.5778" style="stop-color:#FFE5E7"/>
			<stop  offset="0.5799" style="stop-color:#FFFFFF"/>
		</linearGradient>
		<circle fill="url(#SVGID_34_)" cx="75.3" cy="47.8" r="2.8"/>
		<linearGradient id="SVGID_35_" gradientUnits="userSpaceOnUse" x1="76.1847" y1="45.8565" x2="43.2145" y2="12.8862">
			<stop  offset="0.34" style="stop-color:#FFFFFF"/>
			<stop  offset="0.4244" style="stop-color:#FFF4F5"/>
			<stop  offset="0.5778" style="stop-color:#FFE5E7"/>
			<stop  offset="0.5799" style="stop-color:#FFFFFF"/>
		</linearGradient>
		<path fill-rule="evenodd" clip-rule="evenodd" fill="url(#SVGID_35_)" d="M82.7,51.2l-0.8-0.4c0,0,0,0.1-0.1,0.2
			c-0.1,0.1-0.1,0.3-0.2,0.4c-0.1,0.1-0.2,0.3-0.3,0.4c-0.1,0.1-0.1,0.2-0.1,0.2l0.7,0.6c0,0,0.1-0.1,0.2-0.2
			c0.1-0.1,0.2-0.3,0.3-0.4c0.1-0.2,0.2-0.3,0.3-0.5C82.6,51.3,82.7,51.2,82.7,51.2z"/>
		<linearGradient id="SVGID_36_" gradientUnits="userSpaceOnUse" x1="77.8641" y1="44.1772" x2="44.8938" y2="11.2069">
			<stop  offset="0.34" style="stop-color:#FFFFFF"/>
			<stop  offset="0.4244" style="stop-color:#FFF4F5"/>
			<stop  offset="0.5778" style="stop-color:#FFE5E7"/>
			<stop  offset="0.5799" style="stop-color:#FFFFFF"/>
		</linearGradient>
		<path fill-rule="evenodd" clip-rule="evenodd" fill="url(#SVGID_36_)" d="M83.4,48.6l-0.9-0.1c0,0,0,0.3-0.1,0.7
			c0,0.2-0.1,0.3-0.1,0.5c0,0.1-0.1,0.2-0.1,0.2l0.8,0.3c0,0,0-0.1,0.1-0.2c0-0.1,0.1-0.3,0.1-0.5C83.4,48.9,83.4,48.6,83.4,48.6z"
			/>
		<linearGradient id="SVGID_37_" gradientUnits="userSpaceOnUse" x1="79.1249" y1="42.9163" x2="46.1547" y2="9.946">
			<stop  offset="0.34" style="stop-color:#FFFFFF"/>
			<stop  offset="0.4244" style="stop-color:#FFF4F5"/>
			<stop  offset="0.5778" style="stop-color:#FFE5E7"/>
			<stop  offset="0.5799" style="stop-color:#FFFFFF"/>
		</linearGradient>
		<path fill-rule="evenodd" clip-rule="evenodd" fill="url(#SVGID_37_)" d="M83.1,45.8l-0.8,0.3c0,0,0,0.1,0.1,0.2
			c0,0.1,0.1,0.3,0.1,0.4c0,0.2,0.1,0.3,0.1,0.5c0,0.1,0,0.2,0,0.2l0.9-0.1c0,0,0-0.1,0-0.2c0-0.1-0.1-0.3-0.1-0.5
			c-0.1-0.2-0.1-0.4-0.1-0.5C83.1,45.9,83.1,45.8,83.1,45.8z"/>
		<linearGradient id="SVGID_38_" gradientUnits="userSpaceOnUse" x1="70.7943" y1="51.2469" x2="37.824" y2="18.2767">
			<stop  offset="0.34" style="stop-color:#FFFFFF"/>
			<stop  offset="0.4244" style="stop-color:#FFF4F5"/>
			<stop  offset="0.5778" style="stop-color:#FFE5E7"/>
			<stop  offset="0.5799" style="stop-color:#FFFFFF"/>
		</linearGradient>
		<polygon fill-rule="evenodd" clip-rule="evenodd" fill="url(#SVGID_38_)" points="76.2,55.8 75.8,55 74.4,55.7 74.8,56.5 		"/>
		<linearGradient id="SVGID_39_" gradientUnits="userSpaceOnUse" x1="72.5524" y1="49.4889" x2="39.5821" y2="16.5186">
			<stop  offset="0.34" style="stop-color:#FFFFFF"/>
			<stop  offset="0.4244" style="stop-color:#FFF4F5"/>
			<stop  offset="0.5778" style="stop-color:#FFE5E7"/>
			<stop  offset="0.5799" style="stop-color:#FFFFFF"/>
		</linearGradient>
		<polygon fill-rule="evenodd" clip-rule="evenodd" fill="url(#SVGID_39_)" points="78.6,54.7 78.2,54 76.9,54.6 77.2,55.4 		"/>
		<linearGradient id="SVGID_40_" gradientUnits="userSpaceOnUse" x1="74.2866" y1="47.7546" x2="41.3164" y2="14.7843">
			<stop  offset="0.34" style="stop-color:#FFFFFF"/>
			<stop  offset="0.4244" style="stop-color:#FFF4F5"/>
			<stop  offset="0.5778" style="stop-color:#FFE5E7"/>
			<stop  offset="0.5799" style="stop-color:#FFFFFF"/>
		</linearGradient>
		<path fill-rule="evenodd" clip-rule="evenodd" fill="url(#SVGID_40_)" d="M80.9,53.4l-0.6-0.7c0,0-0.1,0.1-0.2,0.1
			c-0.1,0.1-0.2,0.2-0.4,0.3c-0.1,0.1-0.3,0.2-0.4,0.3c-0.1,0.1-0.2,0.1-0.2,0.1l0.4,0.8c0,0,0.1,0,0.2-0.1c0.1-0.1,0.3-0.2,0.4-0.3
			c0.2-0.1,0.3-0.2,0.4-0.3C80.8,53.4,80.9,53.4,80.9,53.4z"/>
		<linearGradient id="SVGID_41_" gradientUnits="userSpaceOnUse" x1="65.5135" y1="56.5278" x2="32.5432" y2="23.5575">
			<stop  offset="0.34" style="stop-color:#FFFFFF"/>
			<stop  offset="0.4244" style="stop-color:#FFF4F5"/>
			<stop  offset="0.5778" style="stop-color:#FFE5E7"/>
			<stop  offset="0.5799" style="stop-color:#FFFFFF"/>
		</linearGradient>
		<polygon fill-rule="evenodd" clip-rule="evenodd" fill="url(#SVGID_41_)" points="68.9,59.1 68.5,58.4 67.2,59 67.5,59.8 		"/>
		<linearGradient id="SVGID_42_" gradientUnits="userSpaceOnUse" x1="67.2715" y1="54.7697" x2="34.3012" y2="21.7994">
			<stop  offset="0.34" style="stop-color:#FFFFFF"/>
			<stop  offset="0.4244" style="stop-color:#FFF4F5"/>
			<stop  offset="0.5778" style="stop-color:#FFE5E7"/>
			<stop  offset="0.5799" style="stop-color:#FFFFFF"/>
		</linearGradient>
		<polygon fill-rule="evenodd" clip-rule="evenodd" fill="url(#SVGID_42_)" points="71.3,58 71,57.3 69.6,57.9 70,58.7 		"/>
		<linearGradient id="SVGID_43_" gradientUnits="userSpaceOnUse" x1="69.0238" y1="53.0174" x2="36.0535" y2="20.0471">
			<stop  offset="0.34" style="stop-color:#FFFFFF"/>
			<stop  offset="0.4244" style="stop-color:#FFF4F5"/>
			<stop  offset="0.5778" style="stop-color:#FFE5E7"/>
			<stop  offset="0.5799" style="stop-color:#FFFFFF"/>
		</linearGradient>
		<polygon fill-rule="evenodd" clip-rule="evenodd" fill="url(#SVGID_43_)" points="73.7,57 73.4,56.2 72,56.8 72.4,57.6 		"/>
		<linearGradient id="SVGID_44_" gradientUnits="userSpaceOnUse" x1="60.2326" y1="61.8086" x2="27.2623" y2="28.8383">
			<stop  offset="0.34" style="stop-color:#FFFFFF"/>
			<stop  offset="0.4244" style="stop-color:#FFF4F5"/>
			<stop  offset="0.5778" style="stop-color:#FFE5E7"/>
			<stop  offset="0.5799" style="stop-color:#FFFFFF"/>
		</linearGradient>
		<polygon fill-rule="evenodd" clip-rule="evenodd" fill="url(#SVGID_44_)" points="61.6,62.4 61.3,61.7 59.9,62.3 60.3,63.1 		"/>
		<linearGradient id="SVGID_45_" gradientUnits="userSpaceOnUse" x1="61.9907" y1="60.0506" x2="29.0204" y2="27.0803">
			<stop  offset="0.34" style="stop-color:#FFFFFF"/>
			<stop  offset="0.4244" style="stop-color:#FFF4F5"/>
			<stop  offset="0.5778" style="stop-color:#FFE5E7"/>
			<stop  offset="0.5799" style="stop-color:#FFFFFF"/>
		</linearGradient>
		<polygon fill-rule="evenodd" clip-rule="evenodd" fill="url(#SVGID_45_)" points="64.1,61.3 63.7,60.6 62.3,61.2 62.7,62 		"/>
		<linearGradient id="SVGID_46_" gradientUnits="userSpaceOnUse" x1="63.743" y1="58.2983" x2="30.7727" y2="25.328">
			<stop  offset="0.34" style="stop-color:#FFFFFF"/>
			<stop  offset="0.4244" style="stop-color:#FFF4F5"/>
			<stop  offset="0.5778" style="stop-color:#FFE5E7"/>
			<stop  offset="0.5799" style="stop-color:#FFFFFF"/>
		</linearGradient>
		<polygon fill-rule="evenodd" clip-rule="evenodd" fill="url(#SVGID_46_)" points="66.5,60.3 66.1,59.5 64.8,60.1 65.1,60.9 		"/>
		<linearGradient id="SVGID_47_" gradientUnits="userSpaceOnUse" x1="58.4621" y1="63.5791" x2="25.4918" y2="30.6088">
			<stop  offset="0.34" style="stop-color:#FFFFFF"/>
			<stop  offset="0.4244" style="stop-color:#FFF4F5"/>
			<stop  offset="0.5778" style="stop-color:#FFE5E7"/>
			<stop  offset="0.5799" style="stop-color:#FFFFFF"/>
		</linearGradient>
		<polygon fill-rule="evenodd" clip-rule="evenodd" fill="url(#SVGID_47_)" points="59.2,63.6 58.8,62.8 57.5,63.4 57.9,64.2 		"/>
		<linearGradient id="SVGID_48_" gradientUnits="userSpaceOnUse" x1="63.0339" y1="59.0073" x2="30.0636" y2="26.037">
			<stop  offset="0.34" style="stop-color:#FFFFFF"/>
			<stop  offset="0.4244" style="stop-color:#FFF4F5"/>
			<stop  offset="0.5778" style="stop-color:#FFE5E7"/>
			<stop  offset="0.5799" style="stop-color:#FFFFFF"/>
		</linearGradient>
		<polygon fill-rule="evenodd" clip-rule="evenodd" fill="url(#SVGID_48_)" points="52.9,49.6 53.3,50.4 54.6,49.8 54.3,49 		"/>
		<linearGradient id="SVGID_49_" gradientUnits="userSpaceOnUse" x1="68.3148" y1="53.7265" x2="35.3445" y2="20.7562">
			<stop  offset="0.34" style="stop-color:#FFFFFF"/>
			<stop  offset="0.4244" style="stop-color:#FFF4F5"/>
			<stop  offset="0.5778" style="stop-color:#FFE5E7"/>
			<stop  offset="0.5799" style="stop-color:#FFFFFF"/>
		</linearGradient>
		<polygon fill-rule="evenodd" clip-rule="evenodd" fill="url(#SVGID_49_)" points="60.2,46.3 60.5,47.1 61.9,46.5 61.5,45.7 		"/>
		<linearGradient id="SVGID_50_" gradientUnits="userSpaceOnUse" x1="66.5567" y1="55.4845" x2="33.5864" y2="22.5143">
			<stop  offset="0.34" style="stop-color:#FFFFFF"/>
			<stop  offset="0.4244" style="stop-color:#FFF4F5"/>
			<stop  offset="0.5778" style="stop-color:#FFE5E7"/>
			<stop  offset="0.5799" style="stop-color:#FFFFFF"/>
		</linearGradient>
		<polygon fill-rule="evenodd" clip-rule="evenodd" fill="url(#SVGID_50_)" points="57.8,47.4 58.1,48.2 59.5,47.6 59.1,46.8 		"/>
		<linearGradient id="SVGID_51_" gradientUnits="userSpaceOnUse" x1="64.8044" y1="57.2368" x2="31.8341" y2="24.2666">
			<stop  offset="0.34" style="stop-color:#FFFFFF"/>
			<stop  offset="0.4244" style="stop-color:#FFF4F5"/>
			<stop  offset="0.5778" style="stop-color:#FFE5E7"/>
			<stop  offset="0.5799" style="stop-color:#FFFFFF"/>
		</linearGradient>
		<polygon fill-rule="evenodd" clip-rule="evenodd" fill="url(#SVGID_51_)" points="55.3,48.5 55.7,49.3 57.1,48.7 56.7,47.9 		"/>
		<linearGradient id="SVGID_52_" gradientUnits="userSpaceOnUse" x1="73.5956" y1="48.4456" x2="40.6253" y2="15.4754">
			<stop  offset="0.34" style="stop-color:#FFFFFF"/>
			<stop  offset="0.4244" style="stop-color:#FFF4F5"/>
			<stop  offset="0.5778" style="stop-color:#FFE5E7"/>
			<stop  offset="0.5799" style="stop-color:#FFFFFF"/>
		</linearGradient>
		<polygon fill-rule="evenodd" clip-rule="evenodd" fill="url(#SVGID_52_)" points="67.4,43 67.8,43.8 69.1,43.2 68.8,42.4 		"/>
		<linearGradient id="SVGID_53_" gradientUnits="userSpaceOnUse" x1="71.8375" y1="50.2037" x2="38.8673" y2="17.2334">
			<stop  offset="0.34" style="stop-color:#FFFFFF"/>
			<stop  offset="0.4244" style="stop-color:#FFF4F5"/>
			<stop  offset="0.5778" style="stop-color:#FFE5E7"/>
			<stop  offset="0.5799" style="stop-color:#FFFFFF"/>
		</linearGradient>
		<polygon fill-rule="evenodd" clip-rule="evenodd" fill="url(#SVGID_53_)" points="65,44.1 65.4,44.9 66.7,44.3 66.4,43.5 		"/>
		<linearGradient id="SVGID_54_" gradientUnits="userSpaceOnUse" x1="70.0852" y1="51.956" x2="37.115" y2="18.9857">
			<stop  offset="0.34" style="stop-color:#FFFFFF"/>
			<stop  offset="0.4244" style="stop-color:#FFF4F5"/>
			<stop  offset="0.5778" style="stop-color:#FFE5E7"/>
			<stop  offset="0.5799" style="stop-color:#FFFFFF"/>
		</linearGradient>
		<polygon fill-rule="evenodd" clip-rule="evenodd" fill="url(#SVGID_54_)" points="62.6,45.2 63,46 64.3,45.4 64,44.6 		"/>
		<linearGradient id="SVGID_55_" gradientUnits="userSpaceOnUse" x1="78.6781" y1="43.3631" x2="45.7079" y2="10.3928">
			<stop  offset="0.34" style="stop-color:#FFFFFF"/>
			<stop  offset="0.4244" style="stop-color:#FFF4F5"/>
			<stop  offset="0.5778" style="stop-color:#FFE5E7"/>
			<stop  offset="0.5799" style="stop-color:#FFFFFF"/>
		</linearGradient>
		<path fill-rule="evenodd" clip-rule="evenodd" fill="url(#SVGID_55_)" d="M74.9,40l0.1,0.9c0,0,0.1,0,0.2,0c0.1,0,0.3,0,0.5,0
			c0.2,0,0.3,0,0.5,0c0.1,0,0.2,0,0.2,0l0.1-0.9c0,0-0.1,0-0.2,0c-0.1,0-0.3,0-0.5,0c-0.2,0-0.4,0-0.5,0C75,40,74.9,40,74.9,40z"/>
		<linearGradient id="SVGID_56_" gradientUnits="userSpaceOnUse" x1="77.1226" y1="44.9186" x2="44.1523" y2="11.9484">
			<stop  offset="0.34" style="stop-color:#FFFFFF"/>
			<stop  offset="0.4244" style="stop-color:#FFF4F5"/>
			<stop  offset="0.5778" style="stop-color:#FFE5E7"/>
			<stop  offset="0.5799" style="stop-color:#FFFFFF"/>
		</linearGradient>
		<path fill-rule="evenodd" clip-rule="evenodd" fill="url(#SVGID_56_)" d="M72.3,40.8l0.4,0.8c0,0,0.3-0.1,0.7-0.3
			c0.2-0.1,0.3-0.1,0.4-0.2c0.1-0.1,0.2-0.1,0.2-0.1l-0.3-0.8c0,0-0.1,0-0.2,0.1c-0.1,0.1-0.3,0.1-0.5,0.2
			C72.6,40.7,72.3,40.8,72.3,40.8z"/>
		<linearGradient id="SVGID_57_" gradientUnits="userSpaceOnUse" x1="75.3661" y1="46.6751" x2="42.3958" y2="13.7049">
			<stop  offset="0.34" style="stop-color:#FFFFFF"/>
			<stop  offset="0.4244" style="stop-color:#FFF4F5"/>
			<stop  offset="0.5778" style="stop-color:#FFE5E7"/>
			<stop  offset="0.5799" style="stop-color:#FFFFFF"/>
		</linearGradient>
		<polygon fill-rule="evenodd" clip-rule="evenodd" fill="url(#SVGID_57_)" points="69.9,41.9 70.2,42.7 71.6,42.1 71.2,41.3 		"/>
		<linearGradient id="SVGID_58_" gradientUnits="userSpaceOnUse" x1="79.8726" y1="42.1686" x2="46.9023" y2="9.1983">
			<stop  offset="0.34" style="stop-color:#FFFFFF"/>
			<stop  offset="0.4244" style="stop-color:#FFF4F5"/>
			<stop  offset="0.5778" style="stop-color:#FFE5E7"/>
			<stop  offset="0.5799" style="stop-color:#FFFFFF"/>
		</linearGradient>
		<path fill-rule="evenodd" clip-rule="evenodd" fill="url(#SVGID_58_)" d="M82,43.3l-0.8,0.4c0,0,0,0.1,0.1,0.2
			c0.1,0.1,0.1,0.3,0.2,0.4c0.2,0.3,0.3,0.7,0.3,0.7l0.8-0.4c0,0-0.2-0.3-0.3-0.7c-0.1-0.2-0.2-0.3-0.2-0.5C82,43.4,82,43.3,82,43.3
			z"/>
		<linearGradient id="SVGID_59_" gradientUnits="userSpaceOnUse" x1="80.1735" y1="41.8677" x2="47.2032" y2="8.8974">
			<stop  offset="0.34" style="stop-color:#FFFFFF"/>
			<stop  offset="0.4244" style="stop-color:#FFF4F5"/>
			<stop  offset="0.5778" style="stop-color:#FFE5E7"/>
			<stop  offset="0.5799" style="stop-color:#FFFFFF"/>
		</linearGradient>
		<path fill-rule="evenodd" clip-rule="evenodd" fill="url(#SVGID_59_)" d="M80.1,41.3L79.6,42c0,0,0.1,0.1,0.2,0.1
			c0.1,0.1,0.2,0.2,0.4,0.3c0.1,0.1,0.2,0.2,0.3,0.3c0.1,0.1,0.1,0.2,0.1,0.2l0.7-0.6c0,0-0.1-0.1-0.2-0.2c-0.1-0.1-0.2-0.2-0.4-0.4
			c-0.1-0.1-0.3-0.3-0.4-0.3C80.2,41.3,80.1,41.3,80.1,41.3z"/>
		<linearGradient id="SVGID_60_" gradientUnits="userSpaceOnUse" x1="79.7526" y1="42.2886" x2="46.7823" y2="9.3183">
			<stop  offset="0.34" style="stop-color:#FFFFFF"/>
			<stop  offset="0.4244" style="stop-color:#FFF4F5"/>
			<stop  offset="0.5778" style="stop-color:#FFE5E7"/>
			<stop  offset="0.5799" style="stop-color:#FFFFFF"/>
		</linearGradient>
		<path fill-rule="evenodd" clip-rule="evenodd" fill="url(#SVGID_60_)" d="M77.6,40.1L77.4,41c0,0,0.3,0.1,0.6,0.2
			c0.2,0.1,0.3,0.1,0.4,0.2c0.1,0,0.2,0.1,0.2,0.1l0.4-0.8c0,0-0.1-0.1-0.2-0.1c-0.1-0.1-0.3-0.1-0.5-0.2
			C78,40.2,77.6,40.1,77.6,40.1z"/>
	</g>
	<linearGradient id="SVGID_61_" gradientUnits="userSpaceOnUse" x1="64.5682" y1="57.473" x2="31.5979" y2="24.5028">
		<stop  offset="0.34" style="stop-color:#FFFFFF"/>
		<stop  offset="0.4244" style="stop-color:#FFF4F5"/>
		<stop  offset="0.5778" style="stop-color:#FFE5E7"/>
		<stop  offset="0.5799" style="stop-color:#FFFFFF"/>
	</linearGradient>
	<polygon fill="url(#SVGID_61_)" points="52.3,48.8 33.7,45.2 37.2,26.6 55.9,30.2 	"/>
</g>
</svg>
