<?xml version="1.0" encoding="utf-8"?>
<!-- Generator: Adobe Illustrator 17.1.0, SVG Export Plug-In . SVG Version: 6.00 Build 0)  -->
<!DOCTYPE svg PUBLIC "-//W3C//DTD SVG 1.1//EN" "http://www.w3.org/Graphics/SVG/1.1/DTD/svg11.dtd">
<svg version="1.1" id="Layer_1" xmlns="http://www.w3.org/2000/svg" xmlns:xlink="http://www.w3.org/1999/xlink" x="0px" y="0px"
	 viewBox="0 0 99 99" enable-background="new 0 0 99 99" xml:space="preserve">
<linearGradient id="SVGID_1_" gradientUnits="userSpaceOnUse" x1="14.4982" y1="14.4982" x2="84.5018" y2="84.5018">
	<stop  offset="0" style="stop-color:#484949"/>
	<stop  offset="1" style="stop-color:#2A2724"/>
</linearGradient>
<circle fill="url(#SVGID_1_)" cx="49.5" cy="49.5" r="49.5"/>
<path opacity="0.24" fill="#231F20" d="M98.7,54.8L68.2,24.3l-3.3,4.6L51,30.7l10.2,10.2l-1.3,1.8L47.8,30.6L30.5,47.9l11,11
	l-2.2,0.9l-8.8-8.8l-0.4,8.6l-6.1,8.7l30.4,30.4C77.7,96.4,96.2,78,98.7,54.8z"/>
<g>
	<linearGradient id="SVGID_2_" gradientUnits="userSpaceOnUse" x1="44.0612" y1="71.1874" x2="21.6412" y2="48.7674">
		<stop  offset="0.34" style="stop-color:#FFFFFF"/>
		<stop  offset="0.4244" style="stop-color:#FFF4F5"/>
		<stop  offset="0.5778" style="stop-color:#FFE5E7"/>
		<stop  offset="0.5799" style="stop-color:#FFFFFF"/>
	</linearGradient>
	<path fill="url(#SVGID_2_)" d="M42.6,52.7c-3.2,0.6-6.4,1.8-9.3,3.5l-2.7-5.1l-6.5,17.3l17.9,4.3l-3.3-6.2c5-3.2,11.2-3.6,16.5-1.2
		L42.6,52.7z"/>
	<linearGradient id="SVGID_3_" gradientUnits="userSpaceOnUse" x1="57.5489" y1="57.6996" x2="35.1289" y2="35.2797">
		<stop  offset="0.34" style="stop-color:#FFFFFF"/>
		<stop  offset="0.4244" style="stop-color:#FFF4F5"/>
		<stop  offset="0.5778" style="stop-color:#FFE5E7"/>
		<stop  offset="0.5799" style="stop-color:#FFFFFF"/>
	</linearGradient>
	<path fill="url(#SVGID_3_)" d="M44.1,52.4C44.1,52.4,44.1,52.4,44.1,52.4l9.8,9.8c-1.7-3.2-2.8-6.8-3.2-10.5
		c-0.3-2.9-0.1-5.8,0.5-8.6l-7.9-7.9l4.6-4.6l-18.4-1.1l1.1,18.4l4.6-4.6L44.1,52.4z"/>
	<linearGradient id="SVGID_4_" gradientUnits="userSpaceOnUse" x1="66.5077" y1="48.7409" x2="44.0877" y2="26.3209">
		<stop  offset="0.34" style="stop-color:#FFFFFF"/>
		<stop  offset="0.4244" style="stop-color:#FFF4F5"/>
		<stop  offset="0.5778" style="stop-color:#FFE5E7"/>
		<stop  offset="0.5799" style="stop-color:#FFFFFF"/>
	</linearGradient>
	<path fill="url(#SVGID_4_)" d="M50.9,30.7l5.1,2.7c-0.5,0.8-0.9,1.6-1.3,2.5c0,0.1-0.1,0.2-0.1,0.3c-0.1,0.2-0.2,0.4-0.3,0.6
		c-0.8,2-1.4,4.1-1.9,6.2c-0.1,0.4-0.1,0.8-0.2,1.2l0,0c-0.4,2.7-0.6,5.2-0.3,7.4c0.7,5.9,3.2,11.6,7.3,16l1.2,1.2c0,0,0,0,0,0
		c0,0,0,0,0,0l0,0l8.2-8.2l0,0c0,0,0,0,0,0c-5.9-5.9-6.7-14.9-2.4-21.7l6.2,3.3l-4.3-17.9L50.9,30.7z"/>
</g>
</svg>
