<?xml version="1.0" encoding="utf-8"?>
<!-- Generator: Adobe Illustrator 17.1.0, SVG Export Plug-In . SVG Version: 6.00 Build 0)  -->
<!DOCTYPE svg PUBLIC "-//W3C//DTD SVG 1.1//EN" "http://www.w3.org/Graphics/SVG/1.1/DTD/svg11.dtd">
<svg version="1.1" id="Layer_1" xmlns="http://www.w3.org/2000/svg" xmlns:xlink="http://www.w3.org/1999/xlink" x="0px" y="0px"
	 viewBox="0 0 99 99.1" enable-background="new 0 0 99 99.1" xml:space="preserve">
<linearGradient id="SVGID_1_" gradientUnits="userSpaceOnUse" x1="-3.894187e-06" y1="49.5713" x2="99" y2="49.5713">
	<stop  offset="0" style="stop-color:#484949"/>
	<stop  offset="1" style="stop-color:#2A2724"/>
</linearGradient>
<rect x="0" fill="url(#SVGID_1_)" width="99" height="99.1"/>
<polygon opacity="0.24" fill="#231F20" points="99,99.1 99,64.1 84.9,50 82.1,49.8 67.6,35.3 50.8,42.7 36.1,50.2 19.8,59.7 
	59.2,99.1 "/>
<linearGradient id="SVGID_2_" gradientUnits="userSpaceOnUse" x1="78.977" y1="57.3107" x2="35.8474" y2="14.1811">
	<stop  offset="0.34" style="stop-color:#FFFFFF"/>
	<stop  offset="0.4244" style="stop-color:#FFF4F5"/>
	<stop  offset="0.5778" style="stop-color:#FFE5E7"/>
	<stop  offset="0.5799" style="stop-color:#FFFFFF"/>
</linearGradient>
<path fill="url(#SVGID_2_)" d="M62.6,54.2v-8.5l12.2,0l0-4.7L84.9,50l-10.1,8.9l0-4.7l-11.7,0c0,0,0,0,0,0H62.6z"/>
<linearGradient id="SVGID_3_" gradientUnits="userSpaceOnUse" x1="65.2112" y1="69.075" x2="22.0815" y2="25.9454">
	<stop  offset="0.34" style="stop-color:#FFFFFF"/>
	<stop  offset="0.4244" style="stop-color:#FFF4F5"/>
	<stop  offset="0.5778" style="stop-color:#FFE5E7"/>
	<stop  offset="0.5799" style="stop-color:#FFFFFF"/>
</linearGradient>
<path fill="url(#SVGID_3_)" d="M64.9,55.6v3.1L46.3,69.4V50.2l7.9-4.6v6.7l2.7-1.6v-6.6l8-4.6v4.8h2.6v-9L43.3,21.8L19.8,35.3v24.5
	l23.9,13.8l23.9-13.8v-4.2H64.9z M43.3,24.8l18.9,10.5l-7.1,4.1L36.2,28.9L43.3,24.8z M25.1,35.3l8.4-4.8l19,10.5l-8.8,5.1
	L25.1,35.3z"/>
</svg>
